<svg width="224" height="497" viewBox="0 0 224 497" fill="none" xmlns="http://www.w3.org/2000/svg">
<line x1="177.062" y1="39.4538" x2="60.5584" y2="44.9024" stroke="#0B090A" stroke-width="6"/>
<line x1="59.042" y1="40.7378" x2="65.8139" y2="148.528" stroke="#0B090A" stroke-width="5"/>
<line x1="81.6354" y1="18.7481" x2="89.5014" y2="151.296" stroke="#0B090A" stroke-width="6"/>
<line x1="100.265" y1="14.4426" x2="110.442" y2="151.897" stroke="#0B090A" stroke-width="6"/>
<line x1="186.728" y1="70.2245" x2="39.3412" y2="79.5177" stroke="#0B090A" stroke-width="6"/>
<line x1="188.102" y1="82.2592" x2="45.1068" y2="90.9053" stroke="#0B090A" stroke-width="7"/>
<line x1="186.388" y1="53.707" x2="43.431" y2="64.032" stroke="#0B090A" stroke-width="6"/>
<line x1="120.058" y1="13.4036" x2="133.059" y2="154.099" stroke="#0B090A" stroke-width="6"/>
<line x1="190.651" y1="93.2084" x2="46.1022" y2="106.294" stroke="#0B090A" stroke-width="7"/>
<line x1="160.984" y1="21.2951" x2="172.891" y2="137.233" stroke="#0B090A" stroke-width="6"/>
<line x1="137.13" y1="13.054" x2="148.384" y2="149.383" stroke="#0B090A" stroke-width="6"/>
<line x1="188.789" y1="109.773" x2="49.1685" y2="121.649" stroke="#0B090A" stroke-width="7"/>
<line x1="177.607" y1="130.951" x2="60.4583" y2="137.928" stroke="#0B090A" stroke-width="7"/>
<line x1="152.694" y1="490.34" x2="160.431" y2="404.276" stroke="#0B090A" stroke-width="15"/>
<path d="M94.8438 494.133L73.6681 402.904" stroke="#0B090A" stroke-width="15"/>
<line y1="-7.5" x2="233.255" y2="-7.5" transform="matrix(-0.161342 -0.986899 0.986899 -0.161341 82.0781 408.316)" stroke="#D40000" stroke-width="15"/>
<line x1="160.481" y1="405.554" x2="186.408" y2="185.066" stroke="#A4161A" stroke-width="15"/>
<line x1="99.5337" y1="489.289" x2="155.397" y2="489.016" stroke="#E5383B" stroke-width="15"/>
<path d="M144.742 432.781L104.097 433.004" stroke="#0B090A" stroke-width="15"/>
<path d="M167.773 399.031L140.449 436.09" stroke="#0B090A" stroke-width="15"/>
<line x1="146.867" y1="203.203" x2="73.899" y2="211.079" stroke="#E5383B" stroke-width="15"/>
<line y1="-7.5" x2="75.4088" y2="-7.5" transform="matrix(-0.806753 -0.590889 0.590892 -0.806751 82.6562 203.922)" stroke="#0B090A" stroke-width="15"/>
<line y1="-7.5" x2="72.3853" y2="-7.5" transform="matrix(-0.143167 -0.989699 0.989699 -0.143165 27.1328 169.648)" stroke="#D40000" stroke-width="15"/>
<line y1="-7.5" x2="58.7018" y2="-7.5" transform="matrix(0.467981 -0.883738 0.88374 0.467978 13.2578 106.23)" stroke="#D40000" stroke-width="15"/>
<line y1="-7.5" x2="59.5937" y2="-7.5" transform="matrix(0.717809 -0.69624 0.696243 0.717806 36.125 59.2734)" stroke="#0B090A" stroke-width="15"/>
<line x1="70.917" y1="16.0209" x2="152.248" y2="10.5332" stroke="#0B090A" stroke-width="15"/>
<line y1="-7.5" x2="80.5522" y2="-7.5" transform="matrix(0.719403 0.694593 -0.694596 0.7194 140.039 10.7891)" stroke="#D40000" stroke-width="15"/>
<path d="M202.102 56.9219L216.17 124.366" stroke="#0B090A" stroke-width="15"/>
<line y1="-7.5" x2="68.2774" y2="-7.5" transform="matrix(-0.3608 0.932643 -0.932644 -0.360798 209.852 118.207)" stroke="#0B090A" stroke-width="15"/>
<line y1="-7.5" x2="59.1121" y2="-7.5" transform="matrix(-0.918271 0.395952 -0.395955 -0.91827 193.953 174.828)" stroke="#0B090A" stroke-width="15"/>
<line y1="-7.5" x2="49.5132" y2="-7.5" transform="matrix(-0.787018 -0.61693 0.616933 -0.787016 113.484 431.621)" stroke="#0B090A" stroke-width="15"/>
<path d="M123.574 231.165L123.405 224.667L110.409 225.005L110.578 231.503L117.076 231.334L123.574 231.165ZM121.797 412.645L128.295 412.475L123.574 231.165L117.076 231.334L110.578 231.503L115.299 412.814L121.797 412.645Z" fill="#0B090A"/>
</svg>
