<svg width="225" height="498" viewBox="0 0 225 498" fill="none" xmlns="http://www.w3.org/2000/svg">
<line x1="177.203" y1="39.4811" x2="60.5977" y2="44.9346" stroke="#0B090A" stroke-width="6"/>
<line x1="59.081" y1="40.769" x2="65.8588" y2="148.653" stroke="#A4161A" stroke-width="5"/>
<line x1="81.69" y1="18.7598" x2="89.563" y2="151.424" stroke="#D40000" stroke-width="6"/>
<line x1="100.336" y1="14.4504" x2="110.521" y2="152.024" stroke="#0B090A" stroke-width="6"/>
<line x1="186.876" y1="70.2792" x2="39.3617" y2="79.5805" stroke="#0B090A" stroke-width="6"/>
<line x1="188.25" y1="82.3217" x2="45.131" y2="90.9754" stroke="#0B090A" stroke-width="7"/>
<line x1="186.536" y1="53.7461" x2="43.4554" y2="64.0801" stroke="#0B090A" stroke-width="6"/>
<line x1="120.151" y1="13.4115" x2="133.164" y2="154.23" stroke="#FF0000" stroke-width="6"/>
<line x1="190.808" y1="93.2826" x2="46.1324" y2="106.38" stroke="#0B090A" stroke-width="7"/>
<line x1="161.109" y1="21.3068" x2="173.027" y2="137.346" stroke="#E5383B" stroke-width="6"/>
<line x1="137.232" y1="13.0618" x2="148.495" y2="149.51" stroke="#0B090A" stroke-width="6"/>
<line x1="188.945" y1="109.858" x2="49.2039" y2="121.745" stroke="#0B090A" stroke-width="7"/>
<line x1="177.747" y1="131.056" x2="60.4971" y2="138.04" stroke="#0B090A" stroke-width="7"/>
<line x1="152.819" y1="490.766" x2="160.563" y2="404.627" stroke="#0B090A" stroke-width="15"/>
<path d="M94.9141 494.559L73.7199 403.25" stroke="#0B090A" stroke-width="15"/>
<line x1="74.7389" y1="409.878" x2="37.0722" y2="179.477" stroke="#0B090A" stroke-width="15"/>
<line x1="160.614" y1="405.905" x2="186.563" y2="185.225" stroke="#0B090A" stroke-width="15"/>
<line x1="99.6118" y1="489.719" x2="155.524" y2="489.446" stroke="#E5383B" stroke-width="15"/>
<path d="M144.859 433.156L104.178 433.379" stroke="#D40000" stroke-width="15"/>
<path d="M167.906 399.375L140.558 436.466" stroke="#0B090A" stroke-width="15"/>
<line x1="146.985" y1="203.367" x2="73.9533" y2="211.25" stroke="#D40000" stroke-width="15"/>
<line x1="78.2871" y1="210.144" x2="17.3978" y2="165.547" stroke="#0B090A" stroke-width="15"/>
<line x1="19.7257" y1="170.867" x2="9.35351" y2="99.1643" stroke="#D40000" stroke-width="15"/>
<line x1="6.62977" y1="102.807" x2="34.1251" y2="50.8841" stroke="#0B090A" stroke-width="15"/>
<line x1="30.9266" y1="53.9368" x2="73.7408" y2="12.4089" stroke="#0B090A" stroke-width="15"/>
<line x1="70.9638" y1="16.0365" x2="152.366" y2="10.544" stroke="#D40000" stroke-width="15"/>
<line x1="145.358" y1="5.39746" x2="203.358" y2="61.3975" stroke="#D40000" stroke-width="15"/>
<path d="M202.266 56.9648L216.346 124.468" stroke="#0B090A" stroke-width="15"/>
<line x1="217.018" y1="121.011" x2="192.362" y2="184.745" stroke="#E5383B" stroke-width="15"/>
<line x1="197.079" y1="181.864" x2="142.751" y2="205.29" stroke="#0B090A" stroke-width="15"/>
<line x1="108.943" y1="437.895" x2="69.9416" y2="407.322" stroke="#0B090A" stroke-width="15"/>
<path d="M123.664 231.361L123.495 224.864L110.499 225.202L110.668 231.7L117.166 231.53L123.664 231.361ZM121.891 413L128.388 412.831L123.664 231.361L117.166 231.53L110.668 231.7L115.393 413.169L121.891 413Z" fill="#D40000"/>
</svg>
