<svg width="10446" height="345" viewBox="0 0 10446 345" fill="none" xmlns="http://www.w3.org/2000/svg">
<rect width="4963" height="345" fill="white"/>
<rect x="4963" width="5483" height="345" fill="white"/>
<path d="M10365.5 193.066L10319 185.611L10310.1 175.3H10293.7L10285.1 179.583H10225.1L10194.6 165.307L10181 161.817L10236.4 73.7806C10236.4 73.7806 10257.5 35.3412 10250.7 42.7789C10245.2 48.8686 10242.7 50.9863 10236.4 53.7403C10232.1 55.6128 10224.8 56.5813 10224.8 56.5813C10224.8 56.5813 10228.7 44.8164 10230.7 41.561C10233.4 37.1028 10197.7 67.5434 10197.7 67.5434C10197.7 67.5434 10198.5 57.394 10203.3 50.0865C10208.1 42.7789 10181 69.9793 10181 69.9793C10181 69.9793 10179.9 61.1881 10181 53.7403C10182.1 46.2926 10165.5 85.0003 10165.5 85.0003C10165.5 85.0003 10163.7 82.5645 10165.5 69.9793C10167.4 57.394 10149.6 100.833 10149.6 100.833C10149.6 100.833 10147.7 89.4661 10147.4 85.0003C10147 80.5346 10142.6 117.072 10142.6 117.072C10142.6 117.072 10137.7 108.141 10135.9 101.645C10134 95.1497 10135.1 121.944 10135.1 121.944C10135.1 121.944 10129.4 123.567 10126.6 119.508C10123.3 114.637 10129.7 139.401 10129.7 139.401C10129.7 139.401 10107.8 117.11 10093 103.761C10069.2 82.215 10051.2 76.3113 10029.2 52.5303C10021.3 43.9405 10017.2 38.72 10009.9 29.3894C10005.9 24.122 10025.9 74.0466 10025.9 74.0466C10025.9 74.0466 10015.5 70.8122 10007 62.6927C9996.71 52.9086 10024.4 89.0798 10024.4 89.0798C10024.4 89.0798 10014.8 87.0512 10002.2 79.3364C9989.66 71.6761 10027.4 108.567 10027.4 108.567C10027.4 108.567 10012.2 110.257 10002.2 102.478C9989.53 92.655 10025.9 128.865 10025.9 128.865C10025.9 128.865 10017.7 132.114 10007 126.431C9991.76 118.376 10036.2 150.792 10036.2 150.792C10036.2 150.792 10021.6 150.545 10012.5 145.918C10007 143.079 10045.1 164.591 10045.1 164.591C10045.1 164.591 10038.8 168.246 10033.3 168.246C10019.4 168.246 10085.5 185.611 10085.5 185.611L10100.7 182.222L10059.8 192.114L10016.7 211.784L10040.1 218.287L10046.8 211.784L10113.9 241.129L10176.5 218.287L10199.2 197.983L10285.1 196.239L10293.7 202.108L10310.1 203.853L10319 197.666L10365.5 193.066Z" fill="#0B090A"/>
<path d="M10046.8 211.784L10113.9 241.129L10176.5 218.287L10199.2 197.983L10285.1 196.239L10293.7 202.108L10310.1 203.853L10319 197.666L10365.5 193.066L10319 185.611L10310.1 175.3H10293.7L10285.1 179.583H10225.1L10194.6 165.307L10181 161.817M10046.8 211.784H10016.7M10046.8 211.784L10040.1 218.287M9977.62 279.675L10040.1 218.287M9977.62 279.675L9964.75 316M9977.62 279.675L9964.75 295.379M9977.62 279.675L9931.34 305.055M10016.7 211.784L10040.1 218.287M10016.7 211.784L10059.8 192.114L10100.7 182.222L10085.5 185.611M10040.1 218.287L9931.34 263.337M9931.34 263.337L9911.38 254.93M9931.34 263.337L9909.64 266.351M9931.34 263.337L9904 279.675M10085.5 185.611L10160.2 168.955M10085.5 185.611C10085.5 185.611 10019.4 168.246 10033.3 168.246C10038.8 168.246 10045.1 164.591 10045.1 164.591C10045.1 164.591 10007 143.079 10012.5 145.918C10021.6 150.545 10036.2 150.792 10036.2 150.792C10036.2 150.792 9991.76 118.376 10007 126.431C10017.7 132.114 10025.9 128.865 10025.9 128.865C10025.9 128.865 9989.53 92.655 10002.2 102.478C10012.2 110.257 10027.4 108.567 10027.4 108.567C10027.4 108.567 9989.66 71.6761 10002.2 79.3364C10014.8 87.0512 10024.4 89.0798 10024.4 89.0798C10024.4 89.0798 9996.71 52.9086 10007 62.6927C10015.5 70.8122 10025.9 74.0466 10025.9 74.0466C10025.9 74.0466 10005.9 24.122 10009.9 29.3894C10017.2 38.72 10021.3 43.9405 10029.2 52.5303C10051.2 76.3113 10069.2 82.215 10093 103.761C10107.8 117.11 10129.7 139.401 10129.7 139.401M10160.2 168.955L10181 161.817M10160.2 168.955L10129.7 139.401M10181 161.817L10236.4 73.7806C10236.4 73.7806 10257.5 35.3412 10250.7 42.7789C10245.2 48.8686 10242.7 50.9863 10236.4 53.7403C10232.1 55.6128 10224.8 56.5813 10224.8 56.5813C10224.8 56.5813 10228.7 44.8164 10230.7 41.561C10233.4 37.1028 10197.7 67.5434 10197.7 67.5434C10197.7 67.5434 10198.5 57.394 10203.3 50.0865C10208.1 42.7789 10181 69.9793 10181 69.9793C10181 69.9793 10179.9 61.1881 10181 53.7403C10182.1 46.2926 10165.5 85.0003 10165.5 85.0003C10165.5 85.0003 10163.7 82.5645 10165.5 69.9793C10167.4 57.394 10149.6 100.833 10149.6 100.833C10149.6 100.833 10147.7 89.4661 10147.4 85.0003C10147 80.5346 10142.6 117.072 10142.6 117.072C10142.6 117.072 10137.7 108.141 10135.9 101.645C10134 95.1497 10135.1 121.944 10135.1 121.944C10135.1 121.944 10129.4 123.567 10126.6 119.508C10123.3 114.637 10129.7 139.401 10129.7 139.401" stroke="#0B090A" stroke-width="3"/>
<path d="M541.32 193.066L494.808 185.611L485.996 175.3H469.529L461.007 179.583H401.061L370.582 165.307L357.004 161.817L412.328 73.7806C412.328 73.7806 433.419 35.3412 426.641 42.7789C421.092 48.8686 418.665 50.9863 412.328 53.7403C408.019 55.6128 400.746 56.5813 400.746 56.5813C400.746 56.5813 404.698 44.8164 406.665 41.561C409.358 37.1028 373.741 67.5434 373.741 67.5434C373.741 67.5434 374.481 57.394 379.29 50.0865C384.099 42.7789 357.004 69.9793 357.004 69.9793C357.004 69.9793 355.894 61.1881 357.004 53.7403C358.113 46.2926 341.557 85.0003 341.557 85.0003C341.557 85.0003 339.707 82.5645 341.557 69.9793C343.406 57.394 325.65 100.833 325.65 100.833C325.65 100.833 323.8 89.4661 323.43 85.0003C323.06 80.5346 318.621 117.072 318.621 117.072C318.621 117.072 313.812 108.141 311.962 101.645C310.112 95.1497 311.222 121.944 311.222 121.944C311.222 121.944 305.488 123.567 302.714 119.508C299.384 114.637 305.819 139.401 305.819 139.401C305.819 139.401 283.931 117.11 269.179 103.761C245.37 82.215 227.393 76.3113 205.422 52.5303C197.486 43.9405 193.393 38.72 186.185 29.3894C182.116 24.122 202.092 74.0466 202.092 74.0466C202.092 74.0466 191.734 70.8122 183.226 62.6927C172.973 52.9086 200.612 89.0798 200.612 89.0798C200.612 89.0798 190.994 87.0512 178.416 79.3364C165.927 71.6761 203.572 108.567 203.572 108.567C203.572 108.567 188.405 110.257 178.416 102.478C165.804 92.655 202.092 128.865 202.092 128.865C202.092 128.865 193.954 132.114 183.226 126.431C168.021 118.376 212.45 150.792 212.45 150.792C212.45 150.792 197.82 150.545 188.775 145.918C183.226 143.079 221.329 164.591 221.329 164.591C221.329 164.591 215.04 168.246 209.491 168.246C195.621 168.246 261.651 185.611 261.651 185.611L276.819 182.222L235.956 192.114L192.91 211.784L216.341 218.287L222.955 211.784L289.979 241.129L352.526 218.287L375.204 197.983L461.007 196.239L469.529 202.108L485.996 203.853L494.808 197.666L541.32 193.066Z" fill="#0B090A"/>
<path d="M222.955 211.784L289.979 241.129L352.526 218.287L375.204 197.983L461.007 196.239L469.529 202.108L485.996 203.853L494.808 197.666L541.32 193.066L494.808 185.611L485.996 175.3H469.529L461.007 179.583H401.061L370.582 165.307L357.004 161.817M222.955 211.784H192.91M222.955 211.784L216.341 218.287M153.909 279.675L216.341 218.287M153.909 279.675L141.053 316M153.909 279.675L141.053 295.379M153.909 279.675L107.685 305.055M192.91 211.784L216.341 218.287M192.91 211.784L235.956 192.114L276.819 182.222L261.651 185.611M216.341 218.287L107.685 263.337M107.685 263.337L87.7512 254.93M107.685 263.337L86.0178 266.351M107.685 263.337L80.3843 279.675M261.651 185.611L336.203 168.955M261.651 185.611C261.651 185.611 195.621 168.246 209.491 168.246C215.04 168.246 221.329 164.591 221.329 164.591C221.329 164.591 183.226 143.079 188.775 145.918C197.82 150.545 212.45 150.792 212.45 150.792C212.45 150.792 168.021 118.376 183.226 126.431C193.954 132.114 202.092 128.865 202.092 128.865C202.092 128.865 165.804 92.655 178.416 102.478C188.405 110.257 203.572 108.567 203.572 108.567C203.572 108.567 165.927 71.6761 178.416 79.3364C190.994 87.0512 200.612 89.0798 200.612 89.0798C200.612 89.0798 172.973 52.9086 183.226 62.6927C191.734 70.8122 202.092 74.0466 202.092 74.0466C202.092 74.0466 182.116 24.122 186.185 29.3894C193.393 38.72 197.485 43.9405 205.422 52.5303C227.393 76.3113 245.37 82.215 269.179 103.761C283.931 117.11 305.819 139.401 305.819 139.401M336.203 168.955L357.004 161.817M336.203 168.955L305.819 139.401M357.004 161.817L412.328 73.7806C412.328 73.7806 433.419 35.3412 426.641 42.7789C421.092 48.8686 418.665 50.9863 412.328 53.7403C408.019 55.6128 400.746 56.5813 400.746 56.5813C400.746 56.5813 404.698 44.8164 406.665 41.561C409.358 37.1028 373.741 67.5434 373.741 67.5434C373.741 67.5434 374.481 57.394 379.29 50.0865C384.099 42.7789 357.004 69.9793 357.004 69.9793C357.004 69.9793 355.894 61.1881 357.004 53.7403C358.113 46.2926 341.557 85.0003 341.557 85.0003C341.557 85.0003 339.707 82.5645 341.557 69.9793C343.406 57.394 325.65 100.833 325.65 100.833C325.65 100.833 323.8 89.4661 323.43 85.0003C323.06 80.5346 318.621 117.072 318.621 117.072C318.621 117.072 313.812 108.141 311.962 101.645C310.112 95.1497 311.222 121.944 311.222 121.944C311.222 121.944 305.488 123.567 302.714 119.508C299.384 114.637 305.819 139.401 305.819 139.401" stroke="#0B090A" stroke-width="3"/>
<path d="M2982.24 193.066L2935.67 185.611L2926.85 175.3H2910.37L2901.83 179.583H2841.82L2811.3 165.307L2797.71 161.817L2853.1 73.7806C2853.1 73.7806 2874.21 35.3412 2867.43 42.7789C2861.87 48.8686 2859.44 50.9863 2853.1 53.7403C2848.78 55.6128 2841.5 56.5813 2841.5 56.5813C2841.5 56.5813 2845.46 44.8164 2847.43 41.561C2850.12 37.1028 2814.46 67.5434 2814.46 67.5434C2814.46 67.5434 2815.21 57.394 2820.02 50.0865C2824.84 42.7789 2797.71 69.9793 2797.71 69.9793C2797.71 69.9793 2796.6 61.1881 2797.71 53.7403C2798.82 46.2926 2782.24 85.0003 2782.24 85.0003C2782.24 85.0003 2780.39 82.5645 2782.24 69.9793C2784.09 57.394 2766.32 100.833 2766.32 100.833C2766.32 100.833 2764.47 89.4661 2764.09 85.0003C2763.72 80.5346 2759.28 117.072 2759.28 117.072C2759.28 117.072 2754.47 108.141 2752.61 101.645C2750.76 95.1497 2751.87 121.944 2751.87 121.944C2751.87 121.944 2746.13 123.567 2743.35 119.508C2740.02 114.637 2746.46 139.401 2746.46 139.401C2746.46 139.401 2724.55 117.11 2709.78 103.761C2685.94 82.215 2667.94 76.3113 2645.95 52.5303C2638 43.9405 2633.9 38.72 2626.69 29.3894C2622.61 24.122 2642.61 74.0466 2642.61 74.0466C2642.61 74.0466 2632.24 70.8122 2623.72 62.6927C2613.46 52.9086 2641.13 89.0798 2641.13 89.0798C2641.13 89.0798 2631.5 87.0512 2618.91 79.3364C2606.41 71.6761 2644.1 108.567 2644.1 108.567C2644.1 108.567 2628.91 110.257 2618.91 102.478C2606.28 92.655 2642.61 128.865 2642.61 128.865C2642.61 128.865 2634.47 132.114 2623.72 126.431C2608.5 118.376 2652.98 150.792 2652.98 150.792C2652.98 150.792 2638.34 150.545 2629.28 145.918C2623.72 143.079 2661.87 164.591 2661.87 164.591C2661.87 164.591 2655.58 168.246 2650.02 168.246C2636.13 168.246 2702.24 185.611 2702.24 185.611L2717.43 182.222L2676.52 192.114L2633.42 211.784L2656.88 218.287L2663.5 211.784L2730.6 241.129L2793.22 218.287L2815.93 197.983L2901.83 196.239L2910.37 202.108L2926.85 203.853L2935.67 197.666L2982.24 193.066Z" fill="#0B090A"/>
<path d="M2663.5 211.784L2730.6 241.129L2793.22 218.287L2815.93 197.983L2901.83 196.239L2910.37 202.108L2926.85 203.853L2935.67 197.666L2982.24 193.066L2935.67 185.611L2926.85 175.3H2910.37L2901.83 179.583H2841.82L2811.3 165.307L2797.71 161.817M2663.5 211.784H2633.42M2663.5 211.784L2656.88 218.287M2594.37 279.675L2656.88 218.287M2594.37 279.675L2581.5 316M2594.37 279.675L2581.5 295.379M2594.37 279.675L2548.1 305.055M2633.42 211.784L2656.88 218.287M2633.42 211.784L2676.52 192.114L2717.43 182.222L2702.24 185.611M2656.88 218.287L2548.1 263.337M2548.1 263.337L2528.14 254.93M2548.1 263.337L2526.4 266.351M2548.1 263.337L2520.76 279.675M2702.24 185.611L2776.88 168.955M2702.24 185.611C2702.24 185.611 2636.13 168.246 2650.02 168.246C2655.58 168.246 2661.87 164.591 2661.87 164.591C2661.87 164.591 2623.72 143.079 2629.28 145.918C2638.34 150.545 2652.98 150.792 2652.98 150.792C2652.98 150.792 2608.5 118.376 2623.72 126.431C2634.47 132.114 2642.61 128.865 2642.61 128.865C2642.61 128.865 2606.28 92.655 2618.91 102.478C2628.91 110.257 2644.1 108.567 2644.1 108.567C2644.1 108.567 2606.41 71.6761 2618.91 79.3364C2631.5 87.0512 2641.13 89.0798 2641.13 89.0798C2641.13 89.0798 2613.46 52.9086 2623.72 62.6927C2632.24 70.8122 2642.61 74.0466 2642.61 74.0466C2642.61 74.0466 2622.61 24.122 2626.69 29.3894C2633.9 38.72 2638 43.9405 2645.95 52.5303C2667.94 76.3113 2685.94 82.215 2709.78 103.761C2724.55 117.11 2746.46 139.401 2746.46 139.401M2776.88 168.955L2797.71 161.817M2776.88 168.955L2746.46 139.401M2797.71 161.817L2853.1 73.7806C2853.1 73.7806 2874.21 35.3412 2867.43 42.7789C2861.87 48.8686 2859.44 50.9863 2853.1 53.7403C2848.78 55.6128 2841.5 56.5813 2841.5 56.5813C2841.5 56.5813 2845.46 44.8164 2847.43 41.561C2850.12 37.1028 2814.46 67.5434 2814.46 67.5434C2814.46 67.5434 2815.21 57.394 2820.02 50.0865C2824.84 42.7789 2797.71 69.9793 2797.71 69.9793C2797.71 69.9793 2796.6 61.1881 2797.71 53.7403C2798.82 46.2926 2782.24 85.0003 2782.24 85.0003C2782.24 85.0003 2780.39 82.5645 2782.24 69.9793C2784.09 57.394 2766.32 100.833 2766.32 100.833C2766.32 100.833 2764.47 89.4661 2764.09 85.0003C2763.72 80.5346 2759.28 117.072 2759.28 117.072C2759.28 117.072 2754.47 108.141 2752.61 101.645C2750.76 95.1497 2751.87 121.944 2751.87 121.944C2751.87 121.944 2746.13 123.567 2743.35 119.508C2740.02 114.637 2746.46 139.401 2746.46 139.401" stroke="#0B090A" stroke-width="3"/>
<path d="M2282.56 208.601L2358.66 204.532L2362.44 232.569L2349.62 234.458L2347.46 217.171L2270.55 221.238L2270 198.465H2282.31L2282.56 208.601Z" fill="#0B090A"/>
<path d="M2337.45 133.373L2349.86 133.082V188.211H2337.58L2337.45 133.373Z" fill="#0B090A"/>
<path d="M2299.29 154.825L2286.88 154.925V136.113H2299.15L2299.29 154.825Z" fill="#0B090A"/>
<path d="M2291.97 191.845L2291.88 178.48H2309.35V191.699L2291.97 191.845Z" fill="#0B090A"/>
<path d="M2297.27 208.334H2339.91V187.559H2347.6V208.334H2355.43V231.867H2349.22L2347.87 216.614H2289.45V136.111H2297.27V208.334ZM2347.6 136.109H2339.91V114.926H2347.6V136.109Z" fill="#0B090A"/>
<path d="M2340 227.635L2354.5 225.259L2355.66 233.445L2333.42 237.089L2329.04 206.078L2336.9 205.715L2340 227.635Z" fill="#0B090A"/>
<path d="M1953.78 141.668L1894.77 148.062L1933.26 181.398H1916.16L1879.73 148.879L1883.14 137.994L1952.14 130.375L1953.78 141.668Z" fill="#0B090A"/>
<path d="M1945.57 144.556H1951.02V178.57H1945.57V144.556Z" fill="#0B090A"/>
<path d="M1921.16 238.085H1913.96L1925.14 181.398H1932.28L1921.16 238.085Z" fill="#0B090A"/>
<path d="M1948.01 193.797L1890.28 191.075L1890.47 178.559L1948.2 181.416L1948.01 193.797Z" fill="#0B090A"/>
<path d="M1942.24 218.253H1935.04V121.875H1942.24V218.253Z" fill="#0B090A"/>
<path d="M1804.09 189.352L1804.29 190.347L1815.68 187.148L1824.54 212.744L1813.66 217.137L1807.66 201.209L1740.49 220.143L1743.72 234.381L1732.73 238.217L1726.66 212.414L1793.06 193.657L1792.71 191.963L1804.09 189.352Z" fill="#0B090A"/>
<path d="M1760.32 197.723H1752.88L1753.82 194.387L1761.55 193.38L1760.32 197.723ZM1803.08 197.723H1795.55V126.441H1790.39C1788.1 126.441 1786.08 126.867 1784.32 127.721C1782.64 128.479 1781.28 129.57 1780.22 130.992C1779.16 132.414 1778.33 134.169 1777.71 136.255L1771.18 159.324L1763.76 158.854L1769.25 139.242C1769.7 137.725 1770.27 135.828 1770.97 133.553C1771.68 131.277 1772.73 129.048 1774.14 126.867C1775.55 124.591 1777.49 122.695 1779.96 121.178C1782.42 119.661 1785.64 118.902 1789.6 118.902H1803.08V197.723Z" fill="#0B090A"/>
<path d="M1762.66 194.951L1775.36 155.782L1764.46 151.906L1752.26 189.361L1748.67 196.082L1759.04 201.657L1762.66 194.951Z" fill="#0B090A"/>
<path d="M1560.81 140.009L1537.43 178.839L1528.31 182.537L1564.91 229.191L1555.4 238.295L1516.95 187.231L1506.95 191.252V178.774L1529.1 170.305L1550.9 133.75L1560.81 140.009Z" fill="#0B090A"/>
<path d="M1509.7 203.566H1504.2V104H1509.7V203.566Z" fill="#0B090A"/>
<path d="M1508.65 147.709H1496.49L1495.95 104.117H1508.1L1508.65 147.709Z" fill="#0B090A"/>
<path d="M1634.85 224.656L1622.68 228.241L1611.52 193.772L1576.46 195.011L1576.18 183.616L1607.9 182.782L1590.27 128.666L1600.82 125.487L1634.85 224.656Z" fill="#0B090A"/>
<path d="M1630.47 224.155L1623.29 226.366L1616.78 205.146L1614.24 195.567H1614.26L1614.06 194.903L1613.29 192.008H1613.2L1601.04 150.904L1588.23 195.567H1588.25L1583.43 212.751H1583.44L1575.81 238.238H1567.88L1597.61 138.672H1604.61L1630.47 224.155Z" fill="#0B090A"/>
<path d="M1887.64 224.071L1875.48 227.813L1864.32 191.847L1829.26 193.139L1828.98 181.248L1860.7 180.379L1843.07 123.913L1853.62 120.597L1887.64 224.071Z" fill="#0B090A"/>
<path d="M1883.27 223.548L1876.09 225.855L1869.57 203.722L1867.03 193.725H1867.05L1866.85 193.021L1866.09 190.012H1866L1853.84 147.123L1841.03 193.725H1841.05L1836.22 211.655H1836.24L1828.61 238.249H1820.68L1850.41 134.359H1857.41L1883.27 223.548Z" fill="#0B090A"/>
<path d="M2433.79 224.074L2421.62 227.816L2410.47 191.851L2375.41 193.143L2375.13 181.252L2406.85 180.382L2389.22 123.917L2399.77 120.601L2433.79 224.074Z" fill="#0B090A"/>
<path d="M2429.42 223.549L2422.24 225.857L2415.73 203.722L2413.19 193.725H2413.21L2413 192.988L2412.24 190.012H2412.16L2400 147.123L2387.18 193.725H2387.21L2382.38 211.655H2382.4L2374.76 238.249H2366.84L2396.56 134.359H2403.56L2429.42 223.549Z" fill="#0B090A"/>
<path d="M1231.52 160.092H1233.52V119.223H1240.22V160.092H1242.34L1248.39 149.134V162.979H1248.55L1248.33 163.382L1274.07 207.794H1265.96L1242.22 167.052H1240.22V207.794H1233.52V167.052H1231.64L1223.89 180.284V166.384L1225.65 163.382L1201.79 119.223H1209.31L1231.52 160.092Z" fill="#0B090A"/>
<path d="M1216.24 159.366L1239.32 160.286L1239.36 170.81L1230.92 170.37L1218.4 221.946L1207.84 218.265L1220.4 169.609L1210.7 169.089L1183.87 142.04L1190.86 133.798L1216.24 159.366Z" fill="#0B090A"/>
<path d="M1257.17 170.736L1234.09 169.815L1234.05 159.292L1242.49 159.732L1255.02 108.156L1265.57 111.838L1253.01 160.492L1262.71 161.012L1289.54 188.061L1282.55 196.304L1257.17 170.736Z" fill="#0B090A"/>
<path d="M1670.66 175.982H1672.66V135.113H1679.36V175.982H1681.48L1687.53 165.026V178.869H1687.69L1687.47 179.272L1713.21 223.685H1705.1L1681.36 182.942H1679.36V223.685H1672.66V182.942H1670.78L1663.03 196.175V182.272L1664.79 179.272L1640.93 135.113H1648.45L1670.66 175.982Z" fill="#0B090A"/>
<path d="M1655.36 175.261L1678.44 176.181L1678.48 186.704L1670.04 186.264L1657.52 237.84L1646.96 234.16L1659.52 185.504L1649.82 184.984L1622.99 157.935L1629.98 149.693L1655.36 175.261Z" fill="#0B090A"/>
<path d="M1696.29 186.618L1673.21 185.698L1673.17 175.175L1681.61 175.615L1694.13 124.039L1704.69 127.719L1692.13 176.375L1701.83 176.895L1728.66 203.944L1721.67 212.186L1696.29 186.618Z" fill="#0B090A"/>
<path d="M777.715 141.79H743.494V177.218H766.967L764.743 185.474H743.494V190.273H736.453V133.984H777.715V141.79Z" fill="#0B090A"/>
<path d="M745.38 208.137L798.378 199.73L799.489 212.49L733.891 222.248L734.385 133.98H745.627L745.38 208.137Z" fill="#0B090A"/>
<path d="M753.163 133.512H741.921V133.438H753.163V133.512ZM805.79 121.429L734.632 126.982L733.891 114.373L805.172 108.969L805.79 121.429Z" fill="#0B090A"/>
<path d="M1337.71 141.79H1303.49V177.218H1326.96L1324.74 185.474H1303.49V190.273H1296.45V133.984H1337.71V141.79Z" fill="#0B090A"/>
<path d="M1305.37 208.137L1358.37 199.73L1359.48 212.49L1293.88 222.248L1294.38 133.98H1305.62L1305.37 208.137Z" fill="#0B090A"/>
<path d="M1313.16 133.512H1301.91V133.438H1313.16V133.512ZM1365.78 121.429L1294.62 126.982L1293.88 114.373L1365.17 108.969L1365.78 121.429Z" fill="#0B090A"/>
<path d="M1070.74 201.609L1056.83 201.775V111.949H1070.89L1070.74 201.609Z" fill="#0B090A"/>
<path d="M1108.22 201.609L1100.59 201.775V111.949H1108.31L1108.22 201.609Z" fill="#0B090A"/>
<path d="M1107.88 141.879H1096.13L1095.06 132.787L1066.03 138.144L1065.16 132.395L1032.18 138.013V141.879H1020.81V128.605L1068.75 120.897L1069.61 126.776L1105.19 120.113L1107.88 141.879Z" fill="#0B090A"/>
<path d="M1097.47 222.454H1090.55V152.554L1074.64 201.766H1067.23L1090.55 130.996H1097.47V222.454ZM1061.06 201.766H1053.83L1038.17 152.554V190.177L1031.13 182.827V130.996H1038.17L1061.06 201.766Z" fill="#0B090A"/>
<path d="M1411.84 133.834L1417.44 220.075L1410.66 220.585L1405.06 134.343L1360.74 136.855L1360.51 130.211L1454.37 125.586L1454.57 131.365L1411.84 133.834Z" fill="#0B090A"/>
<path d="M1417.52 221.473L1406.28 222.138L1405.99 213.267H1417.25L1417.52 221.473ZM1415.88 171.703H1404.61L1403.69 143.666L1414.93 143.001L1415.88 171.703ZM1378.76 138.834L1371.94 139.276L1371.2 128.104L1378.76 127.628V138.834ZM1417.36 136.334L1399.35 137.501V126.333L1417.36 125.199V136.334ZM1447.91 134.355L1445.67 134.5V123.418L1447.3 123.316L1447.91 134.355Z" fill="#0B090A"/>
<path d="M1447.76 119.012L1371.78 123.933L1371.04 112.761L1447.14 107.973L1447.76 119.012Z" fill="#0B090A"/>
<path d="M850.905 133.833L856.497 220.075L849.719 220.584L844.127 134.342L799.804 136.855L799.576 130.211L893.432 125.585L893.631 131.364L850.905 133.833Z" fill="#0B090A"/>
<path d="M856.585 221.473L845.343 222.138L845.05 213.267H856.313L856.585 221.473ZM854.939 171.703H843.675L842.748 143.666L853.99 143.001L854.939 171.703ZM817.819 138.834L810.999 139.276L810.258 128.104L817.819 127.628V138.834ZM856.421 136.334L838.409 137.501V126.333L856.421 125.199V136.334ZM886.976 134.355L884.732 134.5V123.418L886.357 123.316L886.976 134.355Z" fill="#0B090A"/>
<path d="M886.827 119.012L810.851 123.933L810.109 112.761L886.209 107.973L886.827 119.012Z" fill="#0B090A"/>
<path d="M2137 148.735L2142.59 234.977L2135.81 235.486L2130.22 149.245L2085.9 151.758L2085.67 145.114L2179.53 140.487L2179.72 146.266L2137 148.735Z" fill="#0B090A"/>
<path d="M2142.69 236.375L2131.45 237.04L2131.16 228.169H2142.42L2142.69 236.375ZM2141.05 186.605H2129.79L2128.86 158.568L2140.1 157.903L2141.05 186.605ZM2103.93 153.736L2097.11 154.179L2096.37 143.007L2103.93 142.53V153.736ZM2142.53 151.236L2124.52 152.403V141.235L2142.53 140.102V151.236ZM2173.08 149.258L2170.84 149.402V138.32L2172.47 138.219L2173.08 149.258Z" fill="#0B090A"/>
<path d="M2172.91 133.914L2096.94 138.835L2096.2 127.663L2172.29 122.875L2172.91 133.914Z" fill="#0B090A"/>
<path d="M916.221 153.4H916.804V222.197C915.789 222.111 914.802 222.01 913.842 221.891C912.163 221.781 910.765 221.671 909.646 221.562C908.62 221.452 908.153 221.396 908.246 221.396V105.984H916.221V153.4Z" fill="#0B090A"/>
<path d="M942.186 154.506L944.284 204.965L886.084 215.057L884.266 202.103L931.134 194.12L929.874 166.706L881.484 162.317V149.512L942.186 154.506Z" fill="#0B090A"/>
<path d="M912.01 173.652L889.093 172.534V186.542L953.219 189.555V175.944L912.01 173.652Z" fill="#0B090A"/>
<path d="M1133.99 178.656H1122.57L1117.8 136.073L1129.05 134.211L1133.99 178.656ZM1189.59 126.012H1178.09L1178.09 125.965L1115.83 126.098L1116.32 115.059L1190.07 114.926L1189.59 126.012Z" fill="#0B090A"/>
<path d="M1148.92 116.68C1157.07 116.68 1163.41 119.163 1167.94 124.128C1172.47 129.005 1174.73 135.788 1174.73 144.478V148.176H1167.82V143.147C1167.82 138.803 1167.03 135.211 1165.47 132.374C1163.9 129.537 1161.68 127.409 1158.8 125.99C1155.92 124.483 1152.5 123.729 1148.54 123.729C1144.76 123.729 1141.42 124.483 1138.54 125.99C1135.74 127.409 1133.56 129.537 1131.99 132.374C1130.43 135.211 1129.64 138.803 1129.64 143.147V187.038C1129.64 191.294 1130.47 194.84 1132.11 197.678C1133.76 200.515 1135.98 202.688 1138.79 204.195C1141.67 205.614 1144.92 206.323 1148.54 206.323C1152.33 206.323 1155.67 205.658 1158.55 204.328C1161.43 202.909 1163.7 200.782 1165.35 197.944C1166.99 195.018 1167.82 191.383 1167.82 187.038V186.968H1174.73V187.171C1174.73 192.58 1173.62 197.235 1171.4 201.137C1169.26 205.038 1166.21 208.053 1162.26 210.181C1158.39 212.309 1153.9 213.372 1148.79 213.372C1143.93 213.372 1139.53 212.397 1135.57 210.446C1131.62 208.496 1128.45 205.569 1126.06 201.668C1123.75 197.767 1122.6 192.934 1122.6 187.171V144.344C1122.6 135.3 1124.95 128.428 1129.64 123.729C1134.34 119.029 1140.76 116.68 1148.92 116.68Z" fill="#0B090A"/>
<path d="M1177.44 143.173L1177.59 222.575L1164.72 222.036V209.655L1165.19 209.674L1165.04 142.641L1177.44 143.173Z" fill="#0B090A"/>
<path d="M668.6 213.747H656.863L655.01 136.073H666.252L668.6 213.747ZM726.08 178.66H714.826L714.679 126.63L652.539 130.221L651.922 119.049L725.921 114.926L726.08 178.66Z" fill="#0B090A"/>
<path d="M723.961 136.362H721.5V221.883H716.219V128.781H723.961V136.362Z" fill="#0B090A"/>
<path d="M694.854 167.578H687.689V139.132H648.651V167.574H641.609V131.551H694.854V167.578Z" fill="#0B090A"/>
<path d="M2025.74 229.638H2014L2012.15 151.964H2023.39L2025.74 229.638ZM2083.22 194.551H2071.97L2071.82 142.521L2009.68 146.111L2009.06 134.939L2083.06 130.816L2083.22 194.551Z" fill="#0B090A"/>
<path d="M2081.1 152.257H2078.64V237.777H2073.36V144.676H2081.1V152.257Z" fill="#0B090A"/>
<path d="M2052 183.461H2044.84V155.019H2005.8V183.465H1998.76V147.438H2052V183.461Z" fill="#0B090A"/>
<path d="M2261.2 225.318H2249.95L2250.57 142.613L2213.26 221.009L2203.87 214.06L2249.09 123.014L2261.07 122.875L2261.2 225.318ZM2201.28 225.318H2201.22V222.808L2201.28 225.318Z" fill="#0B090A"/>
<path d="M2201.43 223.641L2223.71 184.222V198.55L2201.43 237.969H2194.51V140.594H2201.43V223.641Z" fill="#0B090A"/>
<path d="M2201.72 152.206L2212.74 158.845V171.755L2184.3 153.875L2184.18 140.392L2212.74 140.348V152.311L2201.72 152.206ZM2275.13 207.732V207.671L2275.23 207.668V207.732H2275.13Z" fill="#0B090A"/>
<path d="M4723.56 208.601L4799.67 204.532L4803.45 232.569L4790.63 234.458L4788.47 217.171L4711.55 221.238L4711 198.465H4723.31L4723.56 208.601Z" fill="#0B090A"/>
<path d="M4778.47 133.373L4790.88 133.082V188.211H4778.6L4778.47 133.373Z" fill="#0B090A"/>
<path d="M4740.29 154.825L4727.88 154.925V136.113H4740.15L4740.29 154.825Z" fill="#0B090A"/>
<path d="M4732.98 191.845L4732.88 178.48H4750.36V191.699L4732.98 191.845Z" fill="#0B090A"/>
<path d="M4738.28 208.334H4780.92V187.559H4788.61V208.334H4796.44V231.867H4790.23L4788.88 216.614H4730.45V136.111H4738.28V208.334ZM4788.61 136.109H4780.92V114.926H4788.61V136.109Z" fill="#0B090A"/>
<path d="M4781 227.636L4795.5 225.259L4796.66 233.445L4774.42 237.089L4770.04 206.078L4777.9 205.715L4781 227.636Z" fill="#0B090A"/>
<path d="M4394.77 141.668L4335.75 148.062L4374.25 181.398H4357.15L4320.71 148.879L4324.12 137.994L4393.13 130.375L4394.77 141.668Z" fill="#0B090A"/>
<path d="M4386.54 144.556H4392V178.57H4386.54V144.556Z" fill="#0B090A"/>
<path d="M4362.16 238.085H4354.95L4366.13 181.398H4373.27L4362.16 238.085Z" fill="#0B090A"/>
<path d="M4388.99 193.801L4331.25 191.079L4331.45 178.562L4389.18 181.42L4388.99 193.801Z" fill="#0B090A"/>
<path d="M4383.24 218.253H4376.03V121.875H4383.24V218.253Z" fill="#0B090A"/>
<path d="M4245.07 189.356L4245.28 190.351L4256.67 187.151L4265.53 212.748L4254.64 217.14L4248.65 201.212L4181.48 220.146L4184.7 234.384L4173.71 238.22L4167.65 212.417L4234.04 193.661L4233.7 191.967L4245.07 189.356Z" fill="#0B090A"/>
<path d="M4201.32 197.723H4193.88L4194.82 194.385L4202.55 193.379L4201.32 197.723ZM4244.08 197.723H4236.55V126.441H4231.4C4229.11 126.441 4227.08 126.867 4225.32 127.721C4223.64 128.479 4222.28 129.57 4221.22 130.992C4220.16 132.414 4219.33 134.169 4218.71 136.255L4212.18 159.325L4204.76 158.855L4210.26 139.242C4210.7 137.725 4211.27 135.828 4211.97 133.553C4212.68 131.277 4213.74 129.048 4215.14 126.867C4216.55 124.592 4218.49 122.695 4220.96 121.178C4223.42 119.661 4226.64 118.902 4230.6 118.902H4244.08V197.723Z" fill="#0B090A"/>
<path d="M4203.65 194.951L4216.35 155.782L4205.44 151.907L4193.25 189.36L4189.66 196.082L4200.03 201.657L4203.65 194.951Z" fill="#0B090A"/>
<path d="M4001.77 140.009L3978.39 178.839L3969.27 182.537L4005.87 229.191L3996.36 238.295L3957.91 187.231L3947.91 191.251V178.773L3970.06 170.305L3991.86 133.75L4001.77 140.009Z" fill="#0B090A"/>
<path d="M3950.67 203.566H3945.16V104H3950.67V203.566Z" fill="#0B090A"/>
<path d="M3949.62 147.709H3937.46L3936.91 104.117H3949.07L3949.62 147.709Z" fill="#0B090A"/>
<path d="M4075.83 224.656L4063.66 228.241L4052.5 193.773L4017.44 195.011L4017.16 183.616L4048.88 182.782L4031.25 128.666L4041.8 125.487L4075.83 224.656Z" fill="#0B090A"/>
<path d="M4071.45 224.152L4064.27 226.364L4057.75 205.122L4055.21 195.567H4055.23L4055.03 194.871L4054.27 192.008H4054.18L4042.02 150.904L4029.21 195.567H4029.23L4024.4 212.751H4024.42L4016.79 238.238H4008.86L4038.59 138.672H4045.59L4071.45 224.152Z" fill="#0B090A"/>
<path d="M4328.63 224.071L4316.46 227.813L4305.3 191.847L4270.25 193.139L4269.96 181.249L4301.68 180.379L4284.05 123.913L4294.6 120.597L4328.63 224.071Z" fill="#0B090A"/>
<path d="M4324.26 223.55L4317.08 225.857L4310.55 203.696L4308.02 193.725H4308.04L4307.83 192.988L4307.07 190.012H4306.99L4294.83 147.123L4282.01 193.725H4282.03L4277.21 211.655H4277.23L4269.59 238.249H4261.66L4291.39 134.359H4298.39L4324.26 223.55Z" fill="#0B090A"/>
<path d="M4874.83 224.071L4862.66 227.813L4851.5 191.847L4816.44 193.139L4816.16 181.248L4847.88 180.379L4830.25 123.913L4840.8 120.597L4874.83 224.071Z" fill="#0B090A"/>
<path d="M4870.46 223.55L4863.28 225.857L4856.76 203.712L4854.22 193.725H4854.24L4854.03 192.96L4853.28 190.012H4853.19L4841.03 147.123L4828.21 193.725H4828.24L4823.41 211.655H4823.43L4815.79 238.249H4807.87L4837.6 134.359H4844.6L4870.46 223.55Z" fill="#0B090A"/>
<path d="M3672.46 160.092H3674.46V119.223H3681.16V160.092H3683.28L3689.32 149.139V162.979H3689.49L3689.27 163.382L3715.01 207.794H3706.9L3683.16 167.052H3681.16V207.794H3674.46V167.052H3672.58L3664.83 180.283V166.382L3666.59 163.382L3642.73 119.223H3650.25L3672.46 160.092Z" fill="#0B090A"/>
<path d="M3657.18 159.366L3680.26 160.286L3680.3 170.81L3671.86 170.369L3659.34 221.946L3648.78 218.265L3661.34 169.609L3651.64 169.089L3624.81 142.04L3631.8 133.798L3657.18 159.366Z" fill="#0B090A"/>
<path d="M3698.11 170.736L3675.03 169.815L3674.99 159.292L3683.43 159.732L3695.95 108.156L3706.51 111.837L3693.95 160.492L3703.65 161.012L3730.48 188.061L3723.49 196.303L3698.11 170.736Z" fill="#0B090A"/>
<path d="M4111.64 175.982H4113.64V135.113H4120.34V175.982H4122.46L4128.5 165.03V178.869H4128.67L4128.45 179.272L4154.19 223.685H4146.08L4122.34 182.942H4120.34V223.685H4113.64V182.942H4111.76L4104.01 196.174V182.272L4105.77 179.272L4081.91 135.113H4089.43L4111.64 175.982Z" fill="#0B090A"/>
<path d="M4096.35 175.264L4119.43 176.184L4119.47 186.707L4111.03 186.268L4098.51 237.843L4087.95 234.163L4100.52 185.507L4090.82 184.987L4063.98 157.939L4070.97 149.696L4096.35 175.264Z" fill="#0B090A"/>
<path d="M4137.29 186.622L4114.21 185.701L4114.18 175.178L4122.61 175.618L4135.14 124.042L4145.69 127.724L4133.13 176.378L4142.83 176.899L4169.67 203.948L4162.68 212.19L4137.29 186.622Z" fill="#0B090A"/>
<path d="M3218.63 141.79H3184.41V177.218H3207.88L3205.66 185.474H3184.41V190.273H3177.37V133.984H3218.63V141.79Z" fill="#0B090A"/>
<path d="M3186.29 208.137L3239.29 199.73L3240.41 212.49L3174.8 222.248L3175.3 133.98H3186.54L3186.29 208.137Z" fill="#0B090A"/>
<path d="M3194.08 133.512H3182.83V133.438H3194.08V133.512ZM3246.71 121.429L3175.55 126.982L3174.8 114.373L3246.09 108.969L3246.71 121.429Z" fill="#0B090A"/>
<path d="M3778.67 141.79H3744.45V177.218H3767.92L3765.7 185.474H3744.45V190.273H3737.41V133.984H3778.67V141.79Z" fill="#0B090A"/>
<path d="M3746.33 208.137L3799.33 199.73L3800.45 212.49L3734.84 222.248L3735.34 133.98H3746.58L3746.33 208.137Z" fill="#0B090A"/>
<path d="M3754.12 133.512H3742.87V133.438H3754.12V133.512ZM3806.75 121.429L3735.58 126.982L3734.84 114.373L3806.13 108.969L3806.75 121.429Z" fill="#0B090A"/>
<path d="M3511.69 201.609L3497.78 201.775V111.949H3511.84L3511.69 201.609Z" fill="#0B090A"/>
<path d="M3549.18 201.609L3541.54 201.775V111.949H3549.26L3549.18 201.609Z" fill="#0B090A"/>
<path d="M3548.82 141.879H3537.07L3536 132.787L3506.97 138.144L3506.1 132.395L3473.12 138.013V141.879H3461.75V128.605L3509.69 120.897L3510.55 126.776L3546.13 120.113L3548.82 141.879Z" fill="#0B090A"/>
<path d="M3538.41 222.454H3531.49V152.554L3515.57 201.766H3508.17L3531.49 130.996H3538.41V222.454ZM3501.99 201.766H3494.76L3479.11 152.554V190.183L3472.06 182.831V130.996H3479.11L3501.99 201.766Z" fill="#0B090A"/>
<path d="M3852.81 133.833L3858.41 220.075L3851.63 220.584L3846.04 134.342L3801.71 136.855L3801.48 130.211L3895.34 125.585L3895.54 131.364L3852.81 133.833Z" fill="#0B090A"/>
<path d="M3858.48 221.473L3847.24 222.138L3846.94 213.267H3858.21L3858.48 221.473ZM3856.83 171.703H3845.57L3844.64 143.666L3855.88 143.001L3856.83 171.703ZM3819.71 138.834L3812.89 139.276L3812.15 128.104L3819.71 127.628V138.834ZM3858.31 136.334L3840.3 137.501V126.333L3858.31 125.199V136.334ZM3888.87 134.355L3886.62 134.501V123.418L3888.25 123.316L3888.87 134.355Z" fill="#0B090A"/>
<path d="M3888.72 119.012L3812.74 123.933L3812 112.761L3888.1 107.973L3888.72 119.012Z" fill="#0B090A"/>
<path d="M3291.84 133.833L3297.43 220.075L3290.65 220.584L3285.06 134.342L3240.73 136.855L3240.51 130.211L3334.37 125.585L3334.57 131.364L3291.84 133.833Z" fill="#0B090A"/>
<path d="M3297.52 221.473L3286.27 222.138L3285.98 213.267H3297.25L3297.52 221.473ZM3295.87 171.703H3284.61L3283.68 143.666L3294.92 143.001L3295.87 171.703ZM3258.75 138.834L3251.93 139.276L3251.19 128.104L3258.75 127.628V138.834ZM3297.35 136.334L3279.34 137.501V126.333L3297.35 125.199V136.334ZM3327.91 134.355L3325.66 134.501V123.418L3327.29 123.316L3327.91 134.355Z" fill="#0B090A"/>
<path d="M3327.75 119.012L3251.77 123.933L3251.03 112.761L3327.13 107.973L3327.75 119.012Z" fill="#0B090A"/>
<path d="M4578.01 148.735L4583.6 234.977L4576.82 235.486L4571.23 149.245L4526.91 151.758L4526.68 145.114L4620.54 140.487L4620.74 146.266L4578.01 148.735Z" fill="#0B090A"/>
<path d="M4583.69 236.375L4572.45 237.04L4572.15 228.169H4583.42L4583.69 236.375ZM4582.04 186.605H4570.78L4569.85 158.568L4581.09 157.903L4582.04 186.605ZM4544.92 153.736L4538.1 154.179L4537.36 143.007L4544.92 142.53V153.736ZM4583.52 151.236L4565.51 152.403V141.235L4583.52 140.102V151.236ZM4614.08 149.258L4611.83 149.403V138.32L4613.46 138.219L4614.08 149.258Z" fill="#0B090A"/>
<path d="M4613.91 133.914L4537.93 138.835L4537.19 127.663L4613.29 122.875L4613.91 133.914Z" fill="#0B090A"/>
<path d="M3357.17 153.4H3357.75V222.197C3356.73 222.111 3355.75 222.009 3354.79 221.891C3353.11 221.781 3351.71 221.671 3350.59 221.562C3349.56 221.452 3349.1 221.396 3349.19 221.396V105.984H3357.17V153.4Z" fill="#0B090A"/>
<path d="M3383.13 154.506L3385.23 204.965L3327.03 215.057L3325.21 202.103L3372.08 194.12L3370.82 166.706L3322.43 162.317V149.512L3383.13 154.506Z" fill="#0B090A"/>
<path d="M3352.95 173.651L3330.03 172.534V186.542L3394.16 189.555V175.944L3352.95 173.651Z" fill="#0B090A"/>
<path d="M3574.94 178.656H3563.52L3558.75 136.073L3569.99 134.211L3574.94 178.656ZM3630.54 126.012H3619.04L3619.04 125.965L3556.77 126.098L3557.27 115.059L3631.02 114.926L3630.54 126.012Z" fill="#0B090A"/>
<path d="M3589.86 116.68C3598.02 116.68 3604.36 119.163 3608.89 124.128C3613.42 129.005 3615.68 135.788 3615.68 144.478V148.176H3608.76V143.147C3608.76 138.803 3607.98 135.211 3606.42 132.374C3604.85 129.537 3602.63 127.409 3599.75 125.99C3596.86 124.483 3593.45 123.729 3589.49 123.729C3585.7 123.729 3582.37 124.483 3579.48 125.99C3576.68 127.409 3574.5 129.537 3572.94 132.374C3571.37 135.211 3570.59 138.803 3570.59 143.147V187.038C3570.59 191.294 3571.41 194.84 3573.06 197.678C3574.71 200.515 3576.93 202.688 3579.73 204.195C3582.61 205.614 3585.87 206.323 3589.49 206.323C3593.28 206.323 3596.62 205.658 3599.5 204.328C3602.38 202.909 3604.65 200.782 3606.29 197.944C3607.94 195.018 3608.76 191.383 3608.76 187.038V186.968H3615.68V187.171C3615.68 192.58 3614.57 197.235 3612.35 201.137C3610.21 205.038 3607.16 208.053 3603.21 210.181C3599.33 212.309 3594.85 213.372 3589.74 213.372C3584.88 213.372 3580.47 212.397 3576.52 210.446C3572.57 208.496 3569.4 205.569 3567.01 201.668C3564.7 197.767 3563.55 192.934 3563.55 187.171V144.344C3563.55 135.3 3565.9 128.428 3570.59 123.729C3575.28 119.029 3581.71 116.68 3589.86 116.68Z" fill="#0B090A"/>
<path d="M3618.39 143.173L3618.54 222.575L3605.68 222.037V209.655L3606.14 209.674L3605.99 142.641L3618.39 143.173Z" fill="#0B090A"/>
<path d="M3109.52 213.747H3097.79L3095.93 136.073H3107.18L3109.52 213.747ZM3167.01 178.66H3155.75L3155.6 126.63L3093.46 130.221L3092.84 119.049L3166.85 114.926L3167.01 178.66Z" fill="#0B090A"/>
<path d="M3164.89 136.362H3162.44V221.883H3157.16V128.781H3164.89V136.362Z" fill="#0B090A"/>
<path d="M3135.77 167.578H3128.61V139.132H3089.57V167.574H3082.52V131.551H3135.77V167.578Z" fill="#0B090A"/>
<path d="M4466.73 229.638H4455L4453.14 151.964H4464.39L4466.73 229.638ZM4524.22 194.551H4512.96L4512.82 142.521L4450.67 146.111L4450.05 134.939L4524.06 130.816L4524.22 194.551Z" fill="#0B090A"/>
<path d="M4522.1 152.257H4519.64V237.777H4514.36V144.676H4522.1V152.257Z" fill="#0B090A"/>
<path d="M4493 183.461H4485.83V155.019H4446.79V183.465H4439.75V147.438H4493V183.461Z" fill="#0B090A"/>
<path d="M4702.21 225.318H4690.96L4691.58 142.613L4654.27 221.009L4644.88 214.06L4690.1 123.014L4702.08 122.875L4702.21 225.318ZM4642.29 225.318H4642.23V222.849L4642.29 225.318Z" fill="#0B090A"/>
<path d="M4642.44 223.641L4664.72 184.223V198.551L4642.44 237.969H4635.52V140.594H4642.44V223.641Z" fill="#0B090A"/>
<path d="M4642.73 152.206L4653.75 158.846V171.756L4625.31 153.875L4625.19 140.392L4653.75 140.348V152.311L4642.73 152.206ZM4716.15 207.732V207.671L4716.24 207.668V207.732H4716.15Z" fill="#0B090A"/>
<path d="M5442.93 193.066L5396.42 185.611L5387.61 175.3H5371.14L5362.62 179.583H5302.67L5272.19 165.307L5258.61 161.817L5313.94 73.7806C5313.94 73.7806 5335.03 35.3412 5328.25 42.7789C5322.7 48.8686 5320.27 50.9863 5313.94 53.7403C5309.63 55.6128 5302.36 56.5813 5302.36 56.5813C5302.36 56.5813 5306.31 44.8164 5308.27 41.561C5310.97 37.1028 5275.35 67.5434 5275.35 67.5434C5275.35 67.5434 5276.09 57.394 5280.9 50.0865C5285.71 42.7789 5258.61 69.9793 5258.61 69.9793C5258.61 69.9793 5257.5 61.1881 5258.61 53.7403C5259.72 46.2926 5243.17 85.0003 5243.17 85.0003C5243.17 85.0003 5241.32 82.5645 5243.17 69.9793C5245.02 57.394 5227.26 100.833 5227.26 100.833C5227.26 100.833 5225.41 89.4661 5225.04 85.0003C5224.67 80.5346 5220.23 117.072 5220.23 117.072C5220.23 117.072 5215.42 108.141 5213.57 101.645C5211.72 95.1497 5212.83 121.944 5212.83 121.944C5212.83 121.944 5207.1 123.567 5204.32 119.508C5200.99 114.637 5207.43 139.401 5207.43 139.401C5207.43 139.401 5185.54 117.11 5170.79 103.761C5146.98 82.215 5129 76.3113 5107.03 52.5303C5099.09 43.9405 5095 38.72 5087.79 29.3894C5083.73 24.122 5103.7 74.0466 5103.7 74.0466C5103.7 74.0466 5093.34 70.8122 5084.83 62.6927C5074.58 52.9086 5102.22 89.0798 5102.22 89.0798C5102.22 89.0798 5092.6 87.0512 5080.03 79.3364C5067.54 71.6761 5105.18 108.567 5105.18 108.567C5105.18 108.567 5090.01 110.257 5080.03 102.478C5067.41 92.655 5103.7 128.865 5103.7 128.865C5103.7 128.865 5095.56 132.114 5084.83 126.431C5069.63 118.376 5114.06 150.792 5114.06 150.792C5114.06 150.792 5099.43 150.545 5090.38 145.918C5084.83 143.079 5122.94 164.591 5122.94 164.591C5122.94 164.591 5116.65 168.246 5111.1 168.246C5097.23 168.246 5163.26 185.611 5163.26 185.611L5178.43 182.222L5137.57 192.114L5094.52 211.784L5117.95 218.287L5124.56 211.784L5191.59 241.129L5254.14 218.287L5276.81 197.983L5362.62 196.239L5371.14 202.108L5387.61 203.853L5396.42 197.666L5442.93 193.066Z" fill="#0B090A"/>
<path d="M5124.56 211.784L5191.59 241.129L5254.14 218.287L5276.81 197.983L5362.62 196.239L5371.14 202.108L5387.61 203.853L5396.42 197.666L5442.93 193.066L5396.42 185.611L5387.61 175.3H5371.14L5362.62 179.583H5302.67L5272.19 165.307L5258.61 161.817M5124.56 211.784H5094.52M5124.56 211.784L5117.95 218.287M5055.52 279.675L5117.95 218.287M5055.52 279.675L5042.66 316M5055.52 279.675L5042.66 295.379M5055.52 279.675L5009.29 305.055M5094.52 211.784L5117.95 218.287M5094.52 211.784L5137.57 192.114L5178.43 182.222L5163.26 185.611M5117.95 218.287L5009.29 263.337M5009.29 263.337L4989.36 254.93M5009.29 263.337L4987.63 266.351M5009.29 263.337L4981.99 279.675M5163.26 185.611L5237.81 168.955M5163.26 185.611C5163.26 185.611 5097.23 168.246 5111.1 168.246C5116.65 168.246 5122.94 164.591 5122.94 164.591C5122.94 164.591 5084.83 143.079 5090.38 145.918C5099.43 150.545 5114.06 150.792 5114.06 150.792C5114.06 150.792 5069.63 118.376 5084.83 126.431C5095.56 132.114 5103.7 128.865 5103.7 128.865C5103.7 128.865 5067.41 92.655 5080.03 102.478C5090.01 110.257 5105.18 108.567 5105.18 108.567C5105.18 108.567 5067.54 71.6761 5080.03 79.3364C5092.6 87.0512 5102.22 89.0798 5102.22 89.0798C5102.22 89.0798 5074.58 52.9086 5084.83 62.6927C5093.34 70.8122 5103.7 74.0466 5103.7 74.0466C5103.7 74.0466 5083.73 24.122 5087.79 29.3894C5095 38.72 5099.09 43.9405 5107.03 52.5303C5129 76.3113 5146.98 82.215 5170.79 103.761C5185.54 117.11 5207.43 139.401 5207.43 139.401M5237.81 168.955L5258.61 161.817M5237.81 168.955L5207.43 139.401M5258.61 161.817L5313.94 73.7806C5313.94 73.7806 5335.03 35.3412 5328.25 42.7789C5322.7 48.8686 5320.27 50.9863 5313.94 53.7403C5309.63 55.6128 5302.36 56.5813 5302.36 56.5813C5302.36 56.5813 5306.31 44.8164 5308.27 41.561C5310.97 37.1028 5275.35 67.5434 5275.35 67.5434C5275.35 67.5434 5276.09 57.394 5280.9 50.0865C5285.71 42.7789 5258.61 69.9793 5258.61 69.9793C5258.61 69.9793 5257.5 61.1881 5258.61 53.7403C5259.72 46.2926 5243.17 85.0003 5243.17 85.0003C5243.17 85.0003 5241.32 82.5645 5243.17 69.9793C5245.02 57.394 5227.26 100.833 5227.26 100.833C5227.26 100.833 5225.41 89.4661 5225.04 85.0003C5224.67 80.5346 5220.23 117.072 5220.23 117.072C5220.23 117.072 5215.42 108.141 5213.57 101.645C5211.72 95.1497 5212.83 121.944 5212.83 121.944C5212.83 121.944 5207.1 123.567 5204.32 119.508C5200.99 114.637 5207.43 139.401 5207.43 139.401" stroke="#0B090A" stroke-width="3"/>
<path d="M7904.23 193.066L7857.66 185.611L7848.84 175.3H7832.35L7823.82 179.583H7763.8L7733.29 165.307L7719.69 161.817L7775.08 73.7806C7775.08 73.7806 7796.2 35.3412 7789.41 42.7789C7783.86 48.8686 7781.43 50.9863 7775.08 53.7403C7770.77 55.6128 7763.49 56.5813 7763.49 56.5813C7763.49 56.5813 7767.44 44.8164 7769.41 41.561C7772.11 37.1028 7736.45 67.5434 7736.45 67.5434C7736.45 67.5434 7737.19 57.394 7742 50.0865C7746.82 42.7789 7719.69 69.9793 7719.69 69.9793C7719.69 69.9793 7718.58 61.1881 7719.69 53.7403C7720.8 46.2926 7704.23 85.0003 7704.23 85.0003C7704.23 85.0003 7702.38 82.5645 7704.23 69.9793C7706.08 57.394 7688.3 100.833 7688.3 100.833C7688.3 100.833 7686.45 89.4661 7686.08 85.0003C7685.71 80.5346 7681.26 117.072 7681.26 117.072C7681.26 117.072 7676.45 108.141 7674.6 101.645C7672.75 95.1497 7673.86 121.944 7673.86 121.944C7673.86 121.944 7668.12 123.567 7665.34 119.508C7662.01 114.637 7668.45 139.401 7668.45 139.401C7668.45 139.401 7646.53 117.11 7631.76 103.761C7607.93 82.215 7589.93 76.3113 7567.93 52.5303C7559.99 43.9405 7555.89 38.72 7548.67 29.3894C7544.6 24.122 7564.6 74.0466 7564.6 74.0466C7564.6 74.0466 7554.23 70.8122 7545.71 62.6927C7535.44 52.9086 7563.12 89.0798 7563.12 89.0798C7563.12 89.0798 7553.49 87.0512 7540.89 79.3364C7528.39 71.6761 7566.08 108.567 7566.08 108.567C7566.08 108.567 7550.89 110.257 7540.89 102.478C7528.27 92.655 7564.6 128.865 7564.6 128.865C7564.6 128.865 7556.45 132.114 7545.71 126.431C7530.49 118.376 7574.97 150.792 7574.97 150.792C7574.97 150.792 7560.32 150.545 7551.26 145.918C7545.71 143.079 7583.86 164.591 7583.86 164.591C7583.86 164.591 7577.56 168.246 7572.01 168.246C7558.12 168.246 7624.23 185.611 7624.23 185.611L7639.41 182.222L7598.5 192.114L7555.4 211.784L7578.86 218.287L7585.49 211.784L7652.59 241.129L7715.21 218.287L7737.91 197.983L7823.82 196.239L7832.35 202.108L7848.84 203.853L7857.66 197.666L7904.23 193.066Z" fill="#0B090A"/>
<path d="M7585.49 211.784L7652.59 241.129L7715.21 218.287L7737.91 197.983L7823.82 196.239L7832.35 202.108L7848.84 203.853L7857.66 197.666L7904.23 193.066L7857.66 185.611L7848.84 175.3H7832.35L7823.82 179.583H7763.8L7733.29 165.307L7719.69 161.817M7585.49 211.784H7555.4M7585.49 211.784L7578.86 218.287M7516.36 279.675L7578.86 218.287M7516.36 279.675L7503.49 316M7516.36 279.675L7503.49 295.379M7516.36 279.675L7470.08 305.055M7555.4 211.784L7578.86 218.287M7555.4 211.784L7598.5 192.114L7639.41 182.222L7624.23 185.611M7578.86 218.287L7470.08 263.337M7470.08 263.337L7450.12 254.93M7470.08 263.337L7448.39 266.351M7470.08 263.337L7442.75 279.675M7624.23 185.611L7698.87 168.955M7624.23 185.611C7624.23 185.611 7558.12 168.246 7572.01 168.246C7577.56 168.246 7583.86 164.591 7583.86 164.591C7583.86 164.591 7545.71 143.079 7551.26 145.918C7560.32 150.545 7574.97 150.792 7574.97 150.792C7574.97 150.792 7530.49 118.376 7545.71 126.431C7556.45 132.114 7564.6 128.865 7564.6 128.865C7564.6 128.865 7528.27 92.655 7540.89 102.478C7550.89 110.257 7566.08 108.567 7566.08 108.567C7566.08 108.567 7528.39 71.6761 7540.89 79.3364C7553.49 87.0512 7563.12 89.0798 7563.12 89.0798C7563.12 89.0798 7535.44 52.9086 7545.71 62.6927C7554.23 70.8122 7564.6 74.0466 7564.6 74.0466C7564.6 74.0466 7544.6 24.122 7548.67 29.3894C7555.89 38.72 7559.99 43.9405 7567.93 52.5303C7589.93 76.3113 7607.93 82.215 7631.76 103.761C7646.53 117.11 7668.45 139.401 7668.45 139.401M7698.87 168.955L7719.69 161.817M7698.87 168.955L7668.45 139.401M7719.69 161.817L7775.08 73.7806C7775.08 73.7806 7796.2 35.3412 7789.41 42.7789C7783.86 48.8686 7781.43 50.9863 7775.08 53.7403C7770.77 55.6128 7763.49 56.5813 7763.49 56.5813C7763.49 56.5813 7767.44 44.8164 7769.41 41.561C7772.11 37.1028 7736.45 67.5434 7736.45 67.5434C7736.45 67.5434 7737.19 57.394 7742 50.0865C7746.82 42.7789 7719.69 69.9793 7719.69 69.9793C7719.69 69.9793 7718.58 61.1881 7719.69 53.7403C7720.8 46.2926 7704.23 85.0003 7704.23 85.0003C7704.23 85.0003 7702.38 82.5645 7704.23 69.9793C7706.08 57.394 7688.3 100.833 7688.3 100.833C7688.3 100.833 7686.45 89.4661 7686.08 85.0003C7685.71 80.5346 7681.26 117.072 7681.26 117.072C7681.26 117.072 7676.45 108.141 7674.6 101.645C7672.75 95.1497 7673.86 121.944 7673.86 121.944C7673.86 121.944 7668.12 123.567 7665.34 119.508C7662.01 114.637 7668.45 139.401 7668.45 139.401" stroke="#0B090A" stroke-width="3"/>
<path d="M7184.59 208.601L7260.7 204.532L7264.47 232.569L7251.66 234.458L7249.5 217.171L7172.58 221.238L7172.03 198.465H7184.34L7184.59 208.601Z" fill="#0B090A"/>
<path d="M7239.48 133.373L7251.89 133.082V188.211H7239.61L7239.48 133.373Z" fill="#0B090A"/>
<path d="M7201.32 154.825L7188.91 154.925V136.113H7201.19L7201.32 154.825Z" fill="#0B090A"/>
<path d="M7194 191.845L7193.91 178.48H7211.38V191.699L7194 191.845Z" fill="#0B090A"/>
<path d="M7199.3 208.334H7241.94V187.559H7249.63V208.334H7257.46V231.867H7251.25L7249.9 216.614H7191.48V136.111H7199.3V208.334ZM7249.63 136.109H7241.94V114.926H7249.63V136.109Z" fill="#0B090A"/>
<path d="M7242.04 227.635L7256.53 225.259L7257.69 233.445L7235.46 237.089L7231.07 206.078L7238.94 205.715L7242.04 227.635Z" fill="#0B090A"/>
<path d="M6855.81 141.668L6796.79 148.062L6835.29 181.398H6818.18L6781.75 148.879L6785.16 137.994L6854.16 130.375L6855.81 141.668Z" fill="#0B090A"/>
<path d="M6847.59 144.556H6853.05V178.57H6847.59V144.556Z" fill="#0B090A"/>
<path d="M6823.19 238.085H6815.98L6827.16 181.398H6834.3L6823.19 238.085Z" fill="#0B090A"/>
<path d="M6850.04 193.797L6792.3 191.075L6792.5 178.559L6850.23 181.416L6850.04 193.797Z" fill="#0B090A"/>
<path d="M6844.27 218.253H6837.06V121.875H6844.27V218.253Z" fill="#0B090A"/>
<path d="M6706.11 189.352L6706.31 190.347L6717.7 187.148L6726.56 212.744L6715.68 217.137L6709.68 201.209L6642.51 220.143L6645.74 234.381L6634.75 238.217L6628.69 212.414L6695.08 193.657L6694.74 191.963L6706.11 189.352Z" fill="#0B090A"/>
<path d="M6662.34 197.723H6654.91L6655.84 194.387L6663.57 193.38L6662.34 197.723ZM6705.1 197.723H6697.57V126.441H6692.42C6690.13 126.441 6688.1 126.867 6686.34 127.721C6684.67 128.479 6683.3 129.57 6682.24 130.992C6681.19 132.414 6680.35 134.169 6679.73 136.255L6673.21 159.324L6665.79 158.854L6671.28 139.242C6671.72 137.725 6672.29 135.828 6673 133.553C6673.7 131.277 6674.76 129.048 6676.17 126.867C6677.58 124.591 6679.51 122.695 6681.98 121.178C6684.45 119.661 6687.66 118.902 6691.62 118.902H6705.1V197.723Z" fill="#0B090A"/>
<path d="M6664.69 194.951L6677.39 155.782L6666.48 151.906L6654.29 189.361L6650.69 196.082L6661.07 201.657L6664.69 194.951Z" fill="#0B090A"/>
<path d="M6462.84 140.009L6439.45 178.839L6430.33 182.537L6466.93 229.191L6457.42 238.295L6418.97 187.231L6408.98 191.252V178.774L6431.13 170.305L6452.93 133.75L6462.84 140.009Z" fill="#0B090A"/>
<path d="M6411.73 203.566H6406.22V104H6411.73V203.566Z" fill="#0B090A"/>
<path d="M6410.67 147.709H6398.52L6397.97 104.117H6410.12L6410.67 147.709Z" fill="#0B090A"/>
<path d="M6536.87 224.656L6524.7 228.241L6513.54 193.772L6478.49 195.011L6478.21 183.616L6509.92 182.782L6492.29 128.666L6502.84 125.487L6536.87 224.656Z" fill="#0B090A"/>
<path d="M6532.5 224.155L6525.32 226.366L6518.8 205.146L6516.26 195.567H6516.28L6516.08 194.903L6515.31 192.008H6515.23L6503.07 150.904L6490.25 195.567H6490.28L6485.45 212.751H6485.47L6477.83 238.238H6469.91L6499.63 138.672H6506.63L6532.5 224.155Z" fill="#0B090A"/>
<path d="M6789.67 224.071L6777.5 227.813L6766.34 191.847L6731.28 193.139L6731 181.248L6762.72 180.379L6745.09 123.913L6755.64 120.597L6789.67 224.071Z" fill="#0B090A"/>
<path d="M6785.29 223.548L6778.11 225.855L6771.6 203.722L6769.06 193.725H6769.08L6768.88 193.021L6768.11 190.012H6768.02L6755.87 147.123L6743.05 193.725H6743.07L6738.25 211.655H6738.26L6730.63 238.249H6722.7L6752.43 134.359H6759.43L6785.29 223.548Z" fill="#0B090A"/>
<path d="M7335.82 224.074L7323.65 227.816L7312.49 191.851L7277.43 193.143L7277.15 181.252L7308.87 180.382L7291.24 123.917L7301.79 120.601L7335.82 224.074Z" fill="#0B090A"/>
<path d="M7331.45 223.549L7324.27 225.857L7317.75 203.722L7315.21 193.725H7315.23L7315.02 192.988L7314.27 190.012H7314.18L7302.02 147.123L7289.21 193.725H7289.23L7284.4 211.655H7284.42L7276.79 238.249H7268.86L7298.58 134.359H7305.59L7331.45 223.549Z" fill="#0B090A"/>
<path d="M6133.55 160.092H6135.54V119.223H6142.24V160.092H6144.36L6150.41 149.134V162.979H6150.57L6150.35 163.382L6176.09 207.794H6167.98L6144.24 167.052H6142.24V207.794H6135.54V167.052H6133.66L6125.92 180.284V166.384L6127.67 163.382L6103.81 119.223H6111.33L6133.55 160.092Z" fill="#0B090A"/>
<path d="M6118.27 159.366L6141.35 160.286L6141.38 170.81L6132.95 170.37L6120.42 221.946L6109.87 218.265L6122.43 169.609L6112.73 169.089L6085.89 142.04L6092.88 133.798L6118.27 159.366Z" fill="#0B090A"/>
<path d="M6159.19 170.736L6136.11 169.815L6136.08 159.292L6144.51 159.732L6157.04 108.156L6167.59 111.838L6155.03 160.492L6164.73 161.012L6191.57 188.061L6184.58 196.304L6159.19 170.736Z" fill="#0B090A"/>
<path d="M6572.69 175.982H6574.69V135.113H6581.38V175.982H6583.5L6589.55 165.026V178.869H6589.71L6589.49 179.272L6615.23 223.685H6607.12L6583.38 182.942H6581.38V223.685H6574.69V182.942H6572.8L6565.06 196.175V182.272L6566.81 179.272L6542.95 135.113H6550.47L6572.69 175.982Z" fill="#0B090A"/>
<path d="M6557.38 175.261L6580.46 176.181L6580.5 186.704L6572.06 186.264L6559.54 237.84L6548.98 234.16L6561.55 185.504L6551.85 184.984L6525.01 157.935L6532 149.693L6557.38 175.261Z" fill="#0B090A"/>
<path d="M6598.31 186.618L6575.23 185.698L6575.2 175.175L6583.63 175.615L6596.16 124.039L6606.71 127.719L6594.15 176.375L6603.85 176.895L6630.68 203.944L6623.7 212.186L6598.31 186.618Z" fill="#0B090A"/>
<path d="M5679.74 141.79H5645.52V177.218H5668.99L5666.77 185.474H5645.52V190.273H5638.48V133.984H5679.74V141.79Z" fill="#0B090A"/>
<path d="M5647.4 208.137L5700.4 199.73L5701.51 212.49L5635.91 222.248L5636.41 133.98H5647.65L5647.4 208.137Z" fill="#0B090A"/>
<path d="M5655.19 133.512H5643.94V133.438H5655.19V133.512ZM5707.81 121.429L5636.66 126.982L5635.91 114.373L5707.2 108.969L5707.81 121.429Z" fill="#0B090A"/>
<path d="M6239.73 141.79H6205.51V177.218H6228.98L6226.76 185.474H6205.51V190.273H6198.47V133.984H6239.73V141.79Z" fill="#0B090A"/>
<path d="M6207.4 208.137L6260.39 199.73L6261.5 212.49L6195.91 222.248L6196.4 133.98H6207.64L6207.4 208.137Z" fill="#0B090A"/>
<path d="M6215.18 133.512H6203.94V133.438H6215.18V133.512ZM6267.81 121.429L6196.65 126.982L6195.91 114.373L6267.19 108.969L6267.81 121.429Z" fill="#0B090A"/>
<path d="M5972.76 201.609L5958.85 201.775V111.949H5972.92L5972.76 201.609Z" fill="#0B090A"/>
<path d="M6010.25 201.609L6002.61 201.775V111.949H6010.33L6010.25 201.609Z" fill="#0B090A"/>
<path d="M6009.91 141.879H5998.15L5997.08 132.787L5968.05 138.144L5967.19 132.395L5934.2 138.013V141.879H5922.84V128.605L5970.77 120.897L5971.63 126.776L6007.21 120.113L6009.91 141.879Z" fill="#0B090A"/>
<path d="M5999.5 222.454H5992.58V152.554L5976.66 201.766H5969.26L5992.58 130.996H5999.5V222.454ZM5963.08 201.766H5955.85L5940.2 152.554V190.177L5933.16 182.827V130.996H5940.2L5963.08 201.766Z" fill="#0B090A"/>
<path d="M6313.87 133.834L6319.46 220.075L6312.68 220.585L6307.09 134.343L6262.77 136.855L6262.54 130.211L6356.39 125.586L6356.59 131.365L6313.87 133.834Z" fill="#0B090A"/>
<path d="M6319.55 221.473L6308.3 222.138L6308.01 213.267H6319.27L6319.55 221.473ZM6317.9 171.703H6306.64L6305.71 143.666L6316.95 143.001L6317.9 171.703ZM6280.78 138.834L6273.96 139.276L6273.22 128.104L6280.78 127.628V138.834ZM6319.38 136.334L6301.37 137.501V126.333L6319.38 125.199V136.334ZM6349.94 134.355L6347.69 134.5V123.418L6349.32 123.316L6349.94 134.355Z" fill="#0B090A"/>
<path d="M6349.78 119.012L6273.8 123.933L6273.06 112.761L6349.16 107.973L6349.78 119.012Z" fill="#0B090A"/>
<path d="M5752.93 133.833L5758.52 220.075L5751.74 220.584L5746.15 134.342L5701.83 136.855L5701.6 130.211L5795.46 125.585L5795.65 131.364L5752.93 133.833Z" fill="#0B090A"/>
<path d="M5758.61 221.473L5747.37 222.138L5747.07 213.267H5758.34L5758.61 221.473ZM5756.96 171.703H5745.7L5744.77 143.666L5756.01 143.001L5756.96 171.703ZM5719.84 138.834L5713.02 139.276L5712.28 128.104L5719.84 127.628V138.834ZM5758.44 136.334L5740.43 137.501V126.333L5758.44 125.199V136.334ZM5789 134.355L5786.76 134.5V123.418L5788.38 123.316L5789 134.355Z" fill="#0B090A"/>
<path d="M5788.85 119.012L5712.87 123.933L5712.13 112.761L5788.23 107.973L5788.85 119.012Z" fill="#0B090A"/>
<path d="M7039.02 148.735L7044.61 234.977L7037.84 235.486L7032.24 149.245L6987.92 151.758L6987.69 145.114L7081.55 140.487L7081.75 146.266L7039.02 148.735Z" fill="#0B090A"/>
<path d="M7044.72 236.375L7033.48 237.04L7033.18 228.169H7044.45L7044.72 236.375ZM7043.07 186.605H7031.81L7030.88 158.568L7042.12 157.903L7043.07 186.605ZM7005.95 153.736L6999.13 154.179L6998.39 143.007L7005.95 142.53V153.736ZM7044.55 151.236L7026.54 152.403V141.235L7044.55 140.102V151.236ZM7075.11 149.258L7072.87 149.402V138.32L7074.49 138.219L7075.11 149.258Z" fill="#0B090A"/>
<path d="M7074.94 133.914L6998.96 138.835L6998.22 127.663L7074.32 122.875L7074.94 133.914Z" fill="#0B090A"/>
<path d="M5818.24 153.4H5818.83V222.197C5817.81 222.111 5816.82 222.01 5815.87 221.891C5814.19 221.781 5812.79 221.671 5811.67 221.562C5810.64 221.452 5810.18 221.396 5810.27 221.396V105.984H5818.24V153.4Z" fill="#0B090A"/>
<path d="M5844.21 154.506L5846.31 204.965L5788.11 215.057L5786.29 202.103L5833.16 194.12L5831.9 166.706L5783.51 162.317V149.512L5844.21 154.506Z" fill="#0B090A"/>
<path d="M5814.03 173.652L5791.12 172.534V186.542L5855.24 189.555V175.944L5814.03 173.652Z" fill="#0B090A"/>
<path d="M6036.02 178.656H6024.59L6019.83 136.073L6031.07 134.211L6036.02 178.656ZM6091.61 126.012H6080.11L6080.11 125.965L6017.85 126.098L6018.35 115.059L6092.1 114.926L6091.61 126.012Z" fill="#0B090A"/>
<path d="M6050.94 116.68C6059.09 116.68 6065.43 119.163 6069.96 124.128C6074.49 129.005 6076.76 135.788 6076.76 144.478V148.176H6069.84V143.147C6069.84 138.803 6069.06 135.211 6067.49 132.374C6065.93 129.537 6063.7 127.409 6060.82 125.99C6057.94 124.483 6054.52 123.729 6050.57 123.729C6046.78 123.729 6043.44 124.483 6040.56 125.99C6037.76 127.409 6035.58 129.537 6034.01 132.374C6032.45 135.211 6031.67 138.803 6031.67 143.147V187.038C6031.67 191.294 6032.49 194.84 6034.14 197.678C6035.78 200.515 6038.01 202.688 6040.81 204.195C6043.69 205.614 6046.94 206.323 6050.57 206.323C6054.36 206.323 6057.69 205.658 6060.57 204.328C6063.46 202.909 6065.72 200.782 6067.37 197.944C6069.02 195.018 6069.84 191.383 6069.84 187.038V186.968H6076.76V187.171C6076.76 192.58 6075.65 197.235 6073.42 201.137C6071.28 205.038 6068.23 208.053 6064.28 210.181C6060.41 212.309 6055.92 213.372 6050.81 213.372C6045.96 213.372 6041.55 212.397 6037.6 210.446C6033.64 208.496 6030.47 205.569 6028.08 201.668C6025.78 197.767 6024.62 192.934 6024.62 187.171V144.344C6024.63 135.3 6026.97 128.428 6031.67 123.729C6036.36 119.029 6042.78 116.68 6050.94 116.68Z" fill="#0B090A"/>
<path d="M6079.47 143.173L6079.62 222.575L6066.74 222.036V209.655L6067.21 209.674L6067.06 142.641L6079.47 143.173Z" fill="#0B090A"/>
<path d="M5570.62 213.747H5558.89L5557.03 136.073H5568.28L5570.62 213.747ZM5628.1 178.66H5616.85L5616.7 126.63L5554.56 130.221L5553.95 119.049L5627.94 114.926L5628.1 178.66Z" fill="#0B090A"/>
<path d="M5625.98 136.362H5623.52V221.883H5618.24V128.781H5625.98V136.362Z" fill="#0B090A"/>
<path d="M5596.88 167.578H5589.71V139.132H5550.67V167.574H5543.63V131.551H5596.88V167.578Z" fill="#0B090A"/>
<path d="M6927.76 229.638H6916.03L6914.17 151.964H6925.42L6927.76 229.638ZM6985.24 194.551H6973.99L6973.84 142.521L6911.7 146.111L6911.09 134.939L6985.08 130.816L6985.24 194.551Z" fill="#0B090A"/>
<path d="M6983.12 152.257H6980.66V237.777H6975.38V144.676H6983.12V152.257Z" fill="#0B090A"/>
<path d="M6954.03 183.461H6946.86V155.019H6907.82V183.465H6900.78V147.438H6954.03V183.461Z" fill="#0B090A"/>
<path d="M7163.22 225.318H7151.98L7152.59 142.613L7115.29 221.009L7105.9 214.06L7151.11 123.014L7163.1 122.875L7163.22 225.318ZM7103.3 225.318H7103.24V222.808L7103.3 225.318Z" fill="#0B090A"/>
<path d="M7103.45 223.641L7125.74 184.222V198.55L7103.45 237.969H7096.53V140.594H7103.45V223.641Z" fill="#0B090A"/>
<path d="M7103.74 152.206L7114.76 158.845V171.755L7086.33 153.875L7086.2 140.392L7114.76 140.348V152.311L7103.74 152.206ZM7177.15 207.732V207.671L7177.25 207.668V207.732H7177.15Z" fill="#0B090A"/>
<path d="M9645.55 208.601L9721.65 204.532L9725.43 232.569L9712.61 234.458L9710.45 217.171L9633.54 221.238L9632.98 198.465H9645.3L9645.55 208.601Z" fill="#0B090A"/>
<path d="M9700.45 133.373L9712.87 133.082V188.211H9700.59L9700.45 133.373Z" fill="#0B090A"/>
<path d="M9662.27 154.825L9649.86 154.925V136.113H9662.14L9662.27 154.825Z" fill="#0B090A"/>
<path d="M9654.96 191.845L9654.87 178.48H9672.34V191.699L9654.96 191.845Z" fill="#0B090A"/>
<path d="M9660.26 208.334H9702.91V187.559H9710.6V208.334H9718.42V231.867H9712.22L9710.87 216.614H9652.44V136.111H9660.26V208.334ZM9710.6 136.109H9702.91V114.926H9710.6V136.109Z" fill="#0B090A"/>
<path d="M9702.99 227.636L9717.49 225.259L9718.64 233.445L9696.41 237.089L9692.02 206.078L9699.89 205.715L9702.99 227.636Z" fill="#0B090A"/>
<path d="M9316.76 141.668L9257.74 148.062L9296.23 181.398H9279.13L9242.7 148.879L9246.11 137.994L9315.11 130.375L9316.76 141.668Z" fill="#0B090A"/>
<path d="M9308.53 144.556H9313.98V178.57H9308.53V144.556Z" fill="#0B090A"/>
<path d="M9284.14 238.085H9276.94L9288.12 181.398H9295.26L9284.14 238.085Z" fill="#0B090A"/>
<path d="M9310.97 193.801L9253.24 191.079L9253.43 178.562L9311.16 181.42L9310.97 193.801Z" fill="#0B090A"/>
<path d="M9305.22 218.253H9298.02V121.875H9305.22V218.253Z" fill="#0B090A"/>
<path d="M9167.06 189.356L9167.26 190.351L9178.65 187.151L9187.51 212.748L9176.63 217.14L9170.63 201.212L9103.46 220.146L9106.69 234.384L9095.7 238.22L9089.63 212.417L9156.03 193.661L9155.69 191.967L9167.06 189.356Z" fill="#0B090A"/>
<path d="M9123.3 197.723H9115.87L9116.8 194.385L9124.53 193.379L9123.3 197.723ZM9166.06 197.723H9158.53V126.441H9153.38C9151.09 126.441 9149.06 126.867 9147.3 127.721C9145.63 128.479 9144.26 129.57 9143.21 130.992C9142.15 132.414 9141.31 134.169 9140.7 136.255L9134.17 159.325L9126.75 158.855L9132.24 139.242C9132.68 137.725 9133.25 135.828 9133.96 133.553C9134.66 131.277 9135.72 129.048 9137.13 126.867C9138.54 124.592 9140.48 122.695 9142.94 121.178C9145.41 119.661 9148.62 118.902 9152.59 118.902H9166.06V197.723Z" fill="#0B090A"/>
<path d="M9125.63 194.951L9138.33 155.782L9127.43 151.907L9115.23 189.36L9111.64 196.082L9122.01 201.657L9125.63 194.951Z" fill="#0B090A"/>
<path d="M8923.76 140.009L8900.37 178.839L8891.26 182.537L8927.85 229.191L8918.34 238.295L8879.89 187.231L8869.9 191.251V178.773L8892.05 170.305L8913.85 133.75L8923.76 140.009Z" fill="#0B090A"/>
<path d="M8872.66 203.566H8867.15V104H8872.66V203.566Z" fill="#0B090A"/>
<path d="M8871.6 147.709H8859.45L8858.9 104.117H8871.05L8871.6 147.709Z" fill="#0B090A"/>
<path d="M8997.81 224.656L8985.64 228.241L8974.48 193.773L8939.43 195.011L8939.14 183.616L8970.86 182.782L8953.23 128.666L8963.78 125.487L8997.81 224.656Z" fill="#0B090A"/>
<path d="M8993.44 224.152L8986.26 226.364L8979.73 205.122L8977.2 195.567H8977.22L8977.01 194.871L8976.25 192.008H8976.17L8964.01 150.904L8951.19 195.567H8951.21L8946.39 212.751H8946.41L8938.77 238.238H8930.84L8960.57 138.672H8967.57L8993.44 224.152Z" fill="#0B090A"/>
<path d="M9250.62 224.071L9238.45 227.813L9227.29 191.847L9192.23 193.139L9191.95 181.249L9223.67 180.379L9206.04 123.913L9216.59 120.597L9250.62 224.071Z" fill="#0B090A"/>
<path d="M9246.24 223.55L9239.06 225.857L9232.54 203.696L9230 193.725H9230.02L9229.81 192.988L9229.06 190.012H9228.97L9216.81 147.123L9204 193.725H9204.02L9199.19 211.655H9199.21L9191.58 238.249H9183.65L9213.38 134.359H9220.38L9246.24 223.55Z" fill="#0B090A"/>
<path d="M9796.81 224.071L9784.64 227.813L9773.48 191.847L9738.43 193.139L9738.14 181.248L9769.86 180.379L9752.23 123.913L9762.78 120.597L9796.81 224.071Z" fill="#0B090A"/>
<path d="M9792.44 223.55L9785.26 225.857L9778.75 203.712L9776.21 193.725H9776.23L9776.01 192.96L9775.26 190.012H9775.17L9763.01 147.123L9750.2 193.725H9750.22L9745.4 211.655H9745.41L9737.78 238.249H9729.85L9759.58 134.359H9766.58L9792.44 223.55Z" fill="#0B090A"/>
<path d="M8594.45 160.092H8596.45V119.223H8603.14V160.092H8605.26L8611.31 149.139V162.979H8611.47L8611.25 163.382L8636.99 207.794H8628.88L8605.14 167.052H8603.14V207.794H8596.45V167.052H8594.56L8586.82 180.283V166.382L8588.57 163.382L8564.71 119.223H8572.23L8594.45 160.092Z" fill="#0B090A"/>
<path d="M8579.17 159.366L8602.25 160.286L8602.28 170.81L8593.85 170.369L8581.32 221.946L8570.77 218.265L8583.33 169.609L8573.63 169.089L8546.79 142.04L8553.78 133.798L8579.17 159.366Z" fill="#0B090A"/>
<path d="M8620.09 170.736L8597.01 169.815L8596.97 159.292L8605.41 159.732L8617.94 108.156L8628.49 111.837L8615.93 160.492L8625.63 161.012L8652.46 188.061L8645.48 196.303L8620.09 170.736Z" fill="#0B090A"/>
<path d="M9033.63 175.982H9035.62V135.113H9042.32V175.982H9044.44L9050.49 165.03V178.869H9050.65L9050.43 179.272L9076.17 223.685H9068.06L9044.32 182.942H9042.32V223.685H9035.62V182.942H9033.74L9026 196.174V182.272L9027.75 179.272L9003.89 135.113H9011.41L9033.63 175.982Z" fill="#0B090A"/>
<path d="M9018.34 175.264L9041.42 176.184L9041.46 186.707L9033.02 186.268L9020.49 237.843L9009.94 234.163L9022.5 185.507L9012.8 184.987L8985.97 157.939L8992.95 149.696L9018.34 175.264Z" fill="#0B090A"/>
<path d="M9059.28 186.622L9036.2 185.701L9036.16 175.178L9044.6 175.618L9057.12 124.042L9067.68 127.724L9055.12 176.378L9064.82 176.899L9091.65 203.948L9084.66 212.19L9059.28 186.622Z" fill="#0B090A"/>
<path d="M8140.62 141.79H8106.39V177.218H8129.87L8127.64 185.474H8106.39V190.273H8099.35V133.984H8140.62V141.79Z" fill="#0B090A"/>
<path d="M8108.28 208.137L8161.28 199.73L8162.39 212.49L8096.79 222.248L8097.28 133.98H8108.53L8108.28 208.137Z" fill="#0B090A"/>
<path d="M8116.06 133.512H8104.82V133.438H8116.06V133.512ZM8168.69 121.429L8097.53 126.982L8096.79 114.373L8168.07 108.969L8168.69 121.429Z" fill="#0B090A"/>
<path d="M8700.65 141.79H8666.43V177.218H8689.91L8687.68 185.474H8666.43V190.273H8659.39V133.984H8700.65V141.79Z" fill="#0B090A"/>
<path d="M8668.32 208.137L8721.32 199.73L8722.43 212.49L8656.83 222.248L8657.32 133.98H8668.57L8668.32 208.137Z" fill="#0B090A"/>
<path d="M8676.1 133.512H8664.86V133.438H8676.1V133.512ZM8728.73 121.429L8657.57 126.982L8656.83 114.373L8728.11 108.969L8728.73 121.429Z" fill="#0B090A"/>
<path d="M8433.68 201.609L8419.77 201.775V111.949H8433.83L8433.68 201.609Z" fill="#0B090A"/>
<path d="M8471.16 201.609L8463.52 201.775V111.949H8471.25L8471.16 201.609Z" fill="#0B090A"/>
<path d="M8470.81 141.879H8459.05L8457.98 132.787L8428.95 138.144L8428.09 132.395L8395.1 138.013V141.879H8383.73V128.605L8431.67 120.897L8432.53 126.776L8468.12 120.113L8470.81 141.879Z" fill="#0B090A"/>
<path d="M8460.39 222.454H8453.47V152.554L8437.55 201.766H8430.15L8453.47 130.996H8460.39V222.454ZM8423.98 201.766H8416.75L8401.09 152.554V190.183L8394.05 182.831V130.996H8401.09L8423.98 201.766Z" fill="#0B090A"/>
<path d="M8774.8 133.833L8780.39 220.075L8773.61 220.584L8768.02 134.342L8723.69 136.855L8723.47 130.211L8817.33 125.585L8817.53 131.364L8774.8 133.833Z" fill="#0B090A"/>
<path d="M8780.46 221.473L8769.22 222.138L8768.93 213.267H8780.19L8780.46 221.473ZM8778.82 171.703H8767.55L8766.62 143.666L8777.87 143.001L8778.82 171.703ZM8741.69 138.834L8734.87 139.276L8734.13 128.104L8741.69 127.628V138.834ZM8780.29 136.334L8762.29 137.501V126.333L8780.29 125.199V136.334ZM8810.85 134.355L8808.61 134.501V123.418L8810.24 123.316L8810.85 134.355Z" fill="#0B090A"/>
<path d="M8810.71 119.012L8734.73 123.933L8733.98 112.761L8810.09 107.973L8810.71 119.012Z" fill="#0B090A"/>
<path d="M8213.82 133.833L8219.41 220.075L8212.64 220.584L8207.04 134.342L8162.72 136.855L8162.49 130.211L8256.35 125.585L8256.55 131.364L8213.82 133.833Z" fill="#0B090A"/>
<path d="M8219.5 221.473L8208.26 222.138L8207.97 213.267H8219.23L8219.5 221.473ZM8217.86 171.703H8206.59L8205.66 143.666L8216.91 143.001L8217.86 171.703ZM8180.73 138.834L8173.91 139.276L8173.17 128.104L8180.73 127.628V138.834ZM8219.33 136.334L8201.32 137.501V126.333L8219.33 125.199V136.334ZM8249.89 134.355L8247.65 134.501V123.418L8249.28 123.316L8249.89 134.355Z" fill="#0B090A"/>
<path d="M8249.74 119.012L8173.76 123.933L8173.02 112.761L8249.12 107.973L8249.74 119.012Z" fill="#0B090A"/>
<path d="M9499.99 148.735L9505.59 234.977L9498.81 235.486L9493.22 149.245L9448.89 151.758L9448.66 145.114L9542.52 140.487L9542.72 146.266L9499.99 148.735Z" fill="#0B090A"/>
<path d="M9505.67 236.375L9494.43 237.04L9494.14 228.169H9505.4L9505.67 236.375ZM9504.03 186.605H9492.76L9491.84 158.568L9503.08 157.903L9504.03 186.605ZM9466.91 153.736L9460.08 154.179L9459.34 143.007L9466.91 142.53V153.736ZM9505.5 151.236L9487.5 152.403V141.235L9505.5 140.102V151.236ZM9536.07 149.258L9533.82 149.403V138.32L9535.45 138.219L9536.07 149.258Z" fill="#0B090A"/>
<path d="M9535.89 133.914L9459.91 138.835L9459.17 127.663L9535.28 122.875L9535.89 133.914Z" fill="#0B090A"/>
<path d="M8279.15 153.4H8279.73V222.197C8278.72 222.111 8277.73 222.009 8276.77 221.891C8275.09 221.781 8273.69 221.671 8272.58 221.562C8271.55 221.452 8271.08 221.396 8271.18 221.396V105.984H8279.15V153.4Z" fill="#0B090A"/>
<path d="M8305.12 154.506L8307.22 204.965L8249.01 215.057L8247.19 202.103L8294.07 194.12L8292.81 166.706L8244.41 162.317V149.512L8305.12 154.506Z" fill="#0B090A"/>
<path d="M8274.93 173.651L8252.02 172.534V186.542L8316.15 189.555V175.944L8274.93 173.651Z" fill="#0B090A"/>
<path d="M8496.92 178.656H8485.5L8480.74 136.073L8491.98 134.211L8496.92 178.656ZM8552.52 126.012H8541.02L8541.02 125.965L8478.76 126.098L8479.25 115.059L8553.01 114.926L8552.52 126.012Z" fill="#0B090A"/>
<path d="M8511.85 116.68C8520 116.68 8526.34 119.163 8530.87 124.128C8535.4 129.005 8537.67 135.788 8537.67 144.478V148.176H8530.75V143.147C8530.75 138.803 8529.97 135.211 8528.4 132.374C8526.84 129.537 8524.61 127.409 8521.73 125.99C8518.85 124.483 8515.43 123.729 8511.48 123.729C8507.69 123.729 8504.35 124.483 8501.47 125.99C8498.67 127.409 8496.49 129.537 8494.92 132.374C8493.36 135.211 8492.57 138.803 8492.57 143.147V187.038C8492.57 191.294 8493.4 194.84 8495.04 197.678C8496.69 200.515 8498.92 202.688 8501.72 204.195C8504.6 205.614 8507.85 206.323 8511.48 206.323C8515.27 206.323 8518.6 205.658 8521.48 204.328C8524.37 202.909 8526.63 200.782 8528.28 197.944C8529.93 195.018 8530.75 191.383 8530.75 187.038V186.968H8537.67V187.171C8537.67 192.58 8536.56 197.235 8534.33 201.137C8532.19 205.038 8529.14 208.053 8525.19 210.181C8521.32 212.309 8516.83 213.372 8511.72 213.372C8506.86 213.372 8502.46 212.397 8498.5 210.446C8494.55 208.496 8491.38 205.569 8488.99 201.668C8486.69 197.767 8485.53 192.934 8485.53 187.171V144.344C8485.53 135.3 8487.88 128.428 8492.57 123.729C8497.27 119.029 8503.69 116.68 8511.85 116.68Z" fill="#0B090A"/>
<path d="M8540.38 143.173L8540.53 222.575L8527.66 222.037V209.655L8528.12 209.674L8527.97 142.641L8540.38 143.173Z" fill="#0B090A"/>
<path d="M8031.51 213.747H8019.77L8017.92 136.073H8029.16L8031.51 213.747ZM8088.99 178.66H8077.74L8077.59 126.63L8015.45 130.221L8014.83 119.049L8088.83 114.926L8088.99 178.66Z" fill="#0B090A"/>
<path d="M8086.87 136.362H8084.42V221.883H8079.14V128.781H8086.87V136.362Z" fill="#0B090A"/>
<path d="M8057.76 167.578H8050.59V139.132H8011.55V167.574H8004.51V131.551H8057.76V167.578Z" fill="#0B090A"/>
<path d="M9388.72 229.638H9376.98L9375.13 151.964H9386.37L9388.72 229.638ZM9446.2 194.551H9434.95L9434.8 142.521L9372.66 146.111L9372.04 134.939L9446.04 130.816L9446.2 194.551Z" fill="#0B090A"/>
<path d="M9444.08 152.257H9441.63V237.777H9436.34V144.676H9444.08V152.257Z" fill="#0B090A"/>
<path d="M9414.98 183.461H9407.82V155.019H9368.78V183.465H9361.73V147.438H9414.98V183.461Z" fill="#0B090A"/>
<path d="M9624.19 225.318H9612.95L9613.56 142.613L9576.25 221.009L9566.86 214.06L9612.08 123.014L9624.07 122.875L9624.19 225.318ZM9564.27 225.318H9564.21V222.849L9564.27 225.318Z" fill="#0B090A"/>
<path d="M9564.42 223.641L9586.71 184.223V198.551L9564.42 237.969H9557.5V140.594H9564.42V223.641Z" fill="#0B090A"/>
<path d="M9564.72 152.206L9575.74 158.846V171.756L9547.3 153.875L9547.17 140.392L9575.74 140.348V152.311L9564.72 152.206ZM9638.13 207.732V207.671L9638.23 207.668V207.732H9638.13Z" fill="#0B090A"/>
</svg>
