<svg width="1152" height="384" viewBox="0 0 1152 384" fill="none" xmlns="http://www.w3.org/2000/svg">
<rect width="384" height="384" fill="#A6DDE3"/>
<path d="M15.1172 99.9238L124.172 138.858L92.1421 70.9139L162.303 110.612L219.5 23.582L234.753 110.612L366.686 68.6237L250.768 157.944L366.686 180.846L224.076 219.78L290.424 273.22L175.268 255.661L130.273 340.4L124.172 252.607L28.0818 295.359L92.1421 193.061L15.1172 99.9238Z" fill="#D40000"/>
<rect x="384" width="384" height="384" fill="#A6DDE3"/>
<path d="M399.133 101.243L508.188 140.691L476.158 71.8509L546.319 112.072L603.516 23.8945L618.768 112.072L750.702 69.5304L634.783 160.029L750.702 183.233L608.092 222.681L674.44 276.825L559.284 259.035L514.289 344.892L508.188 255.941L412.097 299.257L476.158 195.609L399.133 101.243Z" fill="#D40000"/>
<path d="M424.617 119.167L517.968 150.843L495.05 92.9022L548.182 128.226L596.199 54.4609L609.642 128.226L694.05 100.145L619.145 164.771L712.496 184.27L595.668 220.482L653.803 267.838L556.539 250.01L519.645 316.864L512.937 246.11L433.561 277.309L490.019 195.969L424.617 119.167Z" fill="white"/>
<rect x="768" width="384" height="384" fill="#A6DDE3"/>
<path d="M783.125 101.24L892.18 140.687L860.15 71.8469L930.311 112.068L987.508 23.8906L1002.76 112.068L1134.69 69.5265L1018.78 160.025L1134.69 183.229L992.084 222.677L1058.43 276.822L943.276 259.031L898.281 344.889L892.18 255.937L796.09 299.253L860.15 195.605L783.125 101.24Z" fill="#D40000"/>
<path d="M808.602 119.167L901.953 150.843L879.034 92.9022L932.166 128.226L980.183 54.4609L993.627 128.226L1078.03 100.145L1003.13 164.771L1096.48 184.27L979.652 220.482L1037.79 267.838L940.523 250.01L903.63 316.864L896.922 246.11L817.545 277.309L874.003 195.969L808.602 119.167Z" fill="white"/>
<path d="M863.359 161.698L915.876 167.876L908.613 130.244L934.312 151.588L962.805 120.695L963.88 159.071L1018.67 134.737L971.006 180.552L1022.58 190.947L957.777 216.18L986.27 244.264L937.106 225.167L917.392 263.361L914.677 223.516L867.27 236.962L900.425 196.49L863.359 161.698Z" fill="#0B090A"/>
</svg>
