<svg width="1152" height="384" viewBox="0 0 1152 384" fill="none" xmlns="http://www.w3.org/2000/svg">
<rect width="384" height="384" fill="#A6DDE3"/>
<path d="M95.375 161.698L147.891 167.876L140.628 130.244L166.328 151.588L194.821 120.695L195.896 159.071L250.689 134.737L203.022 180.552L254.6 190.947L189.793 216.18L218.286 244.264L169.121 225.167L149.407 263.361L146.693 223.516L99.2858 236.962L132.441 196.49L95.375 161.698Z" fill="#0B090A"/>
<rect x="384" width="384" height="384" fill="#A6DDE3"/>
<path d="M424.602 119.171L517.953 150.846L495.034 92.9061L548.166 128.23L596.183 54.4648L609.627 128.23L694.034 100.149L619.13 164.774L712.481 184.274L595.652 220.486L653.787 267.841L556.523 250.014L519.63 316.868L512.922 246.114L433.545 277.312L490.003 195.973L424.602 119.171Z" fill="white"/>
<path d="M479.367 161.698L531.884 167.876L524.621 130.244L550.32 151.588L578.813 120.695L579.888 159.071L634.682 134.737L587.014 180.552L638.592 190.947L573.785 216.18L602.278 244.264L553.114 225.167L533.4 263.361L530.685 223.516L483.278 236.962L516.433 196.49L479.367 161.698Z" fill="#0B090A"/>
<rect x="768" width="384" height="384" fill="#A6DDE3"/>
<path d="M783.133 101.24L892.188 140.687L860.158 71.8469L930.319 112.068L987.516 23.8906L1002.77 112.068L1134.7 69.5265L1018.78 160.025L1134.7 183.229L992.092 222.677L1058.44 276.822L943.284 259.031L898.289 344.889L892.188 255.937L796.097 299.253L860.158 195.605L783.133 101.24Z" fill="#D40000"/>
<path d="M808.617 119.171L901.968 150.846L879.05 92.9061L932.182 128.23L980.199 54.4648L993.642 128.23L1078.05 100.149L1003.15 164.774L1096.5 184.274L979.668 220.486L1037.8 267.841L940.538 250.014L903.645 316.868L896.937 246.114L817.561 277.312L874.019 195.973L808.617 119.171Z" fill="white"/>
<path d="M863.375 161.698L915.891 167.876L908.628 130.244L934.328 151.588L962.821 120.695L963.896 159.071L1018.69 134.737L971.022 180.552L1022.6 190.947L957.793 216.18L986.286 244.264L937.121 225.167L917.407 263.361L914.693 223.516L867.286 236.962L900.441 196.49L863.375 161.698Z" fill="#0B090A"/>
</svg>
