<svg width="864" height="288" viewBox="0 0 864 288" fill="none" xmlns="http://www.w3.org/2000/svg">
<rect width="288" height="288.003" fill="#A6DDE3"/>
<path d="M71.5312 121.276L110.919 125.909L105.471 97.6849L124.746 113.693L146.116 90.5234L146.922 119.305L188.017 101.055L152.266 135.417L190.95 143.213L142.345 162.138L163.714 183.201L126.841 168.878L112.056 197.524L110.02 167.64L74.4643 177.725L99.3307 147.37L71.5312 121.276Z" fill="#0B090A"/>
<rect x="288" width="288" height="288.003" fill="#A6DDE3"/>
<path d="M318.453 89.3779L388.466 113.135L371.278 69.6788L411.126 96.1721L447.139 40.8477L457.222 96.1721L520.528 75.1108L464.349 123.581L534.362 138.205L446.741 165.365L490.342 200.882L417.394 187.511L389.724 237.652L384.693 184.586L325.161 207.985L367.504 146.98L318.453 89.3779Z" fill="white"/>
<path d="M359.531 121.276L398.919 125.909L393.471 97.6849L412.746 113.693L434.116 90.5234L434.922 119.305L476.017 101.055L440.266 135.417L478.95 143.213L430.345 162.138L451.714 183.201L414.841 168.878L400.056 197.524L398.02 167.64L362.464 177.725L387.331 147.37L359.531 121.276Z" fill="#0B090A"/>
<rect x="576" width="288" height="288.003" fill="#A6DDE3"/>
<path d="M587.352 75.9302L669.143 105.516L645.12 53.8856L697.741 84.0519L740.639 17.918L752.078 84.0519L851.028 52.1452L764.089 120.019L851.028 137.423L744.071 167.009L793.832 207.618L707.465 194.275L673.719 258.669L669.143 191.955L597.075 224.441L645.12 146.705L587.352 75.9302Z" fill="#D40000"/>
<path d="M606.461 89.3779L676.474 113.135L659.285 69.6788L699.134 96.1721L735.147 40.8477L745.23 96.1721L808.535 75.1108L752.357 123.581L822.37 138.205L734.749 165.365L778.35 200.882L705.402 187.511L677.732 237.652L672.701 184.586L613.169 207.985L655.512 146.98L606.461 89.3779Z" fill="white"/>
<path d="M647.531 121.276L686.919 125.909L681.471 97.6849L700.746 113.693L722.116 90.5234L722.922 119.305L764.017 101.055L728.266 135.417L766.95 143.213L718.345 162.138L739.714 183.201L702.841 168.878L688.056 197.524L686.02 167.64L650.464 177.725L675.331 147.37L647.531 121.276Z" fill="#0B090A"/>
</svg>
