<svg width="864" height="288" viewBox="0 0 864 288" fill="none" xmlns="http://www.w3.org/2000/svg">
<rect width="288" height="288.003" fill="#A6DDE3"/>
<path d="M11.3359 75.9302L93.1272 105.516L69.1046 53.8856L121.726 84.0519L164.623 17.918L176.062 84.0519L275.013 52.1452L188.074 120.019L275.013 137.423L168.055 167.009L217.816 207.618L131.449 194.275L97.703 258.669L93.1272 191.955L21.0594 224.441L69.1046 146.705L11.3359 75.9302Z" fill="#D40000"/>
<rect x="288" width="288" height="288.003" fill="#A6DDE3"/>
<path d="M299.352 75.9302L381.143 105.516L357.12 53.8856L409.741 84.0519L452.639 17.918L464.078 84.0519L563.028 52.1452L476.089 120.019L563.028 137.423L456.071 167.009L505.832 207.618L419.465 194.275L385.719 258.669L381.143 191.955L309.075 224.441L357.12 146.705L299.352 75.9302Z" fill="#D40000"/>
<path d="M318.461 89.3779L388.474 113.135L371.285 69.6788L411.134 96.1721L447.147 40.8477L457.23 96.1721L520.535 75.1108L464.357 123.581L534.37 138.205L446.749 165.365L490.35 200.882L417.402 187.511L389.732 237.652L384.701 184.586L325.169 207.985L367.512 146.98L318.461 89.3779Z" fill="white"/>
<rect x="576" width="288" height="288.003" fill="#A6DDE3"/>
<path d="M587.352 75.9302L669.143 105.516L645.12 53.8856L697.741 84.0519L740.639 17.918L752.078 84.0519L851.028 52.1452L764.089 120.019L851.028 137.423L744.071 167.009L793.832 207.618L707.465 194.275L673.719 258.669L669.143 191.955L597.075 224.441L645.12 146.705L587.352 75.9302Z" fill="#D40000"/>
<path d="M606.461 89.3779L676.474 113.135L659.285 69.6788L699.134 96.1721L735.147 40.8477L745.23 96.1721L808.535 75.1108L752.357 123.581L822.37 138.205L734.749 165.365L778.35 200.882L705.402 187.511L677.732 237.652L672.701 184.586L613.169 207.985L655.512 146.98L606.461 89.3779Z" fill="white"/>
<path d="M647.531 121.276L686.919 125.909L681.471 97.6849L700.746 113.693L722.116 90.5234L722.922 119.305L764.017 101.055L728.266 135.417L766.95 143.213L718.345 162.138L739.714 183.201L702.841 168.878L688.056 197.524L686.02 167.64L650.464 177.725L675.331 147.37L647.531 121.276Z" fill="#0B090A"/>
</svg>
