<svg width="80" height="100" viewBox="0 0 80 100" fill="none" xmlns="http://www.w3.org/2000/svg">
<path d="M14.2384 14.363L18.0891 13.6528L15.8438 84.1875L12.1461 84.0493L14.2384 14.363Z" fill="#0B090A"/>
<path d="M30.8828 2.70312L28.5713 100.001H18.0547L20.3652 2.70312H30.8828Z" fill="#0B090A"/>
<path d="M37.9219 9.63574L37.9082 9.63086L0.808594 13.4365L0 3.75L37.9219 0V9.63574Z" fill="#0B090A"/>
<path d="M40.6328 94.3271L40.6113 94.3193L3.51172 98.125L2.70312 88.4385L40.6328 84.6875V94.3271Z" fill="#0B090A"/>
<path d="M79.999 21.5479L73.1807 90.3057L49.6484 94.6006V83.4883L63.4717 80.9932L68.4414 28.9463L49.6484 20.7559V9.01172L79.999 21.5479Z" fill="#0B090A"/>
<path d="M53.2734 91.8076C51.0179 92.2224 48.536 92.4316 45.8271 92.4316H21.6719V85.583H28.2598V86.666H43.8623C47.2522 86.666 50.18 86.3197 52.6455 85.6279C52.8582 85.5682 53.067 85.5037 53.2734 85.4395V91.8076ZM43.5156 11.7109C47.1365 11.711 50.3891 12.1224 53.2734 12.9453V18.8545C50.8865 17.9368 48.0194 17.4766 44.6709 17.4766H28.2598V18.0146H21.6719V11.7109H43.5156Z" fill="#0B090A"/>
</svg>
