<svg width="2709" height="413" viewBox="0 0 2709 413" fill="none" xmlns="http://www.w3.org/2000/svg">
<path d="M756.462 404.394L736.721 362.384M736.721 362.384L758.916 324.342M736.721 362.384L717.074 308.546M736.721 362.384L694.973 347.397" stroke="#0B090A" stroke-width="9"/>
<path d="M593.962 283.133L584.715 237.665M584.715 237.665L615.282 205.918M584.715 237.665L578.357 180.724M584.715 237.665L547.691 213.279" stroke="#0B090A" stroke-width="9"/>
<path d="M510.494 126.28L528.4 83.46M528.4 83.46L571.557 74.2659M528.4 83.46L555.146 32.7557M528.4 83.46L511.451 42.5642" stroke="#0B090A" stroke-width="9"/>
<path d="M666.792 363.519L622.563 349.143M622.563 349.143L604.011 318.264M622.563 349.143L577.381 338.201M622.563 349.143L566.28 370.583" stroke="#0B090A" stroke-width="9"/>
<path d="M519.125 275.804L479.545 251.428M479.545 251.428L468.821 217.056M479.545 251.428L438.226 230.164M479.545 251.428L419.779 259.021" stroke="#0B090A" stroke-width="9"/>
<path d="M471.229 90.1235L452.159 47.8066M452.159 47.8066L462.603 13.3482M452.159 47.8066L429.9 7.09471M452.159 47.8066L398.403 20.6733" stroke="#0B090A" stroke-width="9"/>
<path d="M1143.45 403.394L1123.71 361.384M1123.71 361.384L1145.91 323.342M1123.71 361.384L1104.07 307.546M1123.71 361.384L1081.97 346.397" stroke="#0B090A" stroke-width="9"/>
<path d="M980.954 282.133L971.707 236.665M971.707 236.665L1002.27 204.918M971.707 236.665L965.349 179.724M971.707 236.665L934.683 212.279" stroke="#0B090A" stroke-width="9"/>
<path d="M897.487 125.28L915.392 82.46M915.392 82.46L958.549 73.2659M915.392 82.46L942.138 31.7557M915.392 82.46L898.443 41.5642" stroke="#0B090A" stroke-width="9"/>
<path d="M1053.78 362.519L1009.56 348.143M1009.56 348.143L991.004 317.264M1009.56 348.143L964.373 337.201M1009.56 348.143L953.273 369.583" stroke="#0B090A" stroke-width="9"/>
<path d="M906.117 274.804L866.537 250.428M866.537 250.428L855.813 216.056M866.537 250.428L825.219 229.164M866.537 250.428L806.772 258.021" stroke="#0B090A" stroke-width="9"/>
<path d="M1530.45 403.394L1510.71 361.384M1510.71 361.384L1532.9 323.342M1510.71 361.384L1491.06 307.546M1510.71 361.384L1468.96 346.397" stroke="#0B090A" stroke-width="9"/>
<path d="M1367.95 282.133L1358.7 236.665M1358.7 236.665L1389.27 204.918M1358.7 236.665L1352.34 179.724M1358.7 236.665L1321.68 212.279" stroke="#0B090A" stroke-width="9"/>
<path d="M1440.78 362.519L1396.55 348.143M1396.55 348.143L1378 317.264M1396.55 348.143L1351.37 337.201M1396.55 348.143L1340.26 369.583" stroke="#0B090A" stroke-width="9"/>
<path d="M1293.11 274.804L1253.53 250.428M1253.53 250.428L1242.81 216.056M1253.53 250.428L1212.21 229.164M1253.53 250.428L1193.76 258.021" stroke="#0B090A" stroke-width="9"/>
<path d="M1917.45 403.394L1897.71 361.384M1897.71 361.384L1919.9 323.342M1897.71 361.384L1878.06 307.546M1897.71 361.384L1855.96 346.397" stroke="#0B090A" stroke-width="9"/>
<path d="M1754.94 282.133L1745.69 236.665M1745.69 236.665L1776.26 204.918M1745.69 236.665L1739.33 179.724M1745.69 236.665L1708.67 212.279" stroke="#0B090A" stroke-width="9"/>
<path d="M1827.77 362.519L1783.54 348.143M1783.54 348.143L1764.99 317.264M1783.54 348.143L1738.36 337.201M1783.54 348.143L1727.26 369.583" stroke="#0B090A" stroke-width="9"/>
<path d="M2304.45 403.386L2284.71 361.376M2284.71 361.376L2306.91 323.334M2284.71 361.376L2265.07 307.538M2284.71 361.376L2242.97 346.389" stroke="#0B090A" stroke-width="9"/>
<path d="M2214.78 362.515L2170.55 348.139M2170.55 348.139L2152 317.26M2170.55 348.139L2125.37 337.197M2170.55 348.139L2114.26 369.579" stroke="#0B090A" stroke-width="9"/>
<path d="M2691.45 403.394L2671.71 361.384M2671.71 361.384L2693.91 323.342M2671.71 361.384L2652.07 307.546M2671.71 361.384L2629.97 346.397" stroke="#0B090A" stroke-width="9"/>
<path d="M369.462 404.394L349.721 362.384M349.721 362.384L371.916 324.342M349.721 362.384L330.074 308.546M349.721 362.384L307.973 347.397" stroke="#0B090A" stroke-width="9"/>
</svg>
