<svg width="3332" height="302" viewBox="0 0 3332 302" fill="none" xmlns="http://www.w3.org/2000/svg">
<g clip-path="url(#clip0_873_10)">
<path d="M904.416 284.471L862.375 264.737M862.375 264.737L824.305 286.925M862.375 264.737L808.497 245.096M862.375 264.737L847.377 223.004" stroke="#0B090A" stroke-width="9"/>
<path d="M799.163 184.968L753.66 175.725M753.66 175.725L721.891 206.281M753.66 175.725L696.677 169.368M753.66 175.725L729.257 138.712" stroke="#0B090A" stroke-width="9"/>
<path d="M625.233 127.347L582.381 145.246M582.381 145.246L573.18 188.389M582.381 145.246L531.639 171.983M582.381 145.246L541.455 128.303" stroke="#0B090A" stroke-width="9"/>
<path d="M902.488 205.754L888.101 161.54M888.101 161.54L857.199 142.994M888.101 161.54L877.15 116.373M888.101 161.54L909.556 105.276" stroke="#0B090A" stroke-width="9"/>
<path d="M774.425 116.085L750.031 76.5181M750.031 76.5181L715.633 65.7977M750.031 76.5181L728.751 35.2137M750.031 76.5181L757.629 16.773" stroke="#0B090A" stroke-width="9"/>
<path d="M566.19 84.1977L523.842 65.1344M523.842 65.1344L489.358 75.5746M523.842 65.1344L483.1 42.8832M523.842 65.1344L496.689 11.3967" stroke="#0B090A" stroke-width="9"/>
<path d="M1380.42 284.467L1338.37 264.733M1338.37 264.733L1300.3 286.921M1338.37 264.733L1284.5 245.093M1338.37 264.733L1323.38 223" stroke="#0B090A" stroke-width="9"/>
<path d="M1275.16 184.968L1229.66 175.725M1229.66 175.725L1197.89 206.281M1229.66 175.725L1172.68 169.368M1229.66 175.725L1205.26 138.712" stroke="#0B090A" stroke-width="9"/>
<path d="M1101.23 127.347L1058.38 145.246M1058.38 145.246L1049.18 188.389M1058.38 145.246L1007.64 171.983M1058.38 145.246L1017.46 128.303" stroke="#0B090A" stroke-width="9"/>
<path d="M1378.49 205.754L1364.1 161.54M1364.1 161.54L1333.2 142.994M1364.1 161.54L1353.15 116.373M1364.1 161.54L1385.56 105.276" stroke="#0B090A" stroke-width="9"/>
<path d="M1250.43 116.081L1226.03 76.5142M1226.03 76.5142L1191.63 65.7938M1226.03 76.5142L1204.75 35.2098M1226.03 76.5142L1233.63 16.769" stroke="#0B090A" stroke-width="9"/>
<path d="M1856.42 284.471L1814.37 264.737M1814.37 264.737L1776.3 286.925M1814.37 264.737L1760.5 245.096M1814.37 264.737L1799.38 223.004" stroke="#0B090A" stroke-width="9"/>
<path d="M1751.16 184.968L1705.66 175.725M1705.66 175.725L1673.89 206.281M1705.66 175.725L1648.68 169.368M1705.66 175.725L1681.26 138.712" stroke="#0B090A" stroke-width="9"/>
<path d="M1854.49 205.758L1840.1 161.544M1840.1 161.544L1809.2 142.998M1840.1 161.544L1829.15 116.377M1840.1 161.544L1861.56 105.28" stroke="#0B090A" stroke-width="9"/>
<path d="M1726.43 116.085L1702.03 76.5181M1702.03 76.5181L1667.63 65.7977M1702.03 76.5181L1680.75 35.2137M1702.03 76.5181L1709.63 16.773" stroke="#0B090A" stroke-width="9"/>
<path d="M2332.42 284.463L2290.37 264.729M2290.37 264.729L2252.3 286.917M2290.37 264.729L2236.5 245.089M2290.37 264.729L2275.38 222.996" stroke="#0B090A" stroke-width="9"/>
<path d="M2227.16 184.964L2181.66 175.721M2181.66 175.721L2149.89 206.277M2181.66 175.721L2124.68 169.364M2181.66 175.721L2157.26 138.709" stroke="#0B090A" stroke-width="9"/>
<path d="M2330.49 205.75L2316.1 161.536M2316.1 161.536L2285.2 142.991M2316.1 161.536L2305.15 116.369M2316.1 161.536L2337.56 105.272" stroke="#0B090A" stroke-width="9"/>
<path d="M2808.42 284.467L2766.37 264.733M2766.37 264.733L2728.3 286.921M2766.37 264.733L2712.5 245.093M2766.37 264.733L2751.38 223" stroke="#0B090A" stroke-width="9"/>
<path d="M2806.49 205.75L2792.1 161.536M2792.1 161.536L2761.2 142.991M2792.1 161.536L2781.15 116.369M2792.1 161.536L2813.56 105.272" stroke="#0B090A" stroke-width="9"/>
<path d="M3284.42 284.467L3242.37 264.733M3242.37 264.733L3204.3 286.921M3242.37 264.733L3188.5 245.093M3242.37 264.733L3227.38 223" stroke="#0B090A" stroke-width="9"/>
</g>
<defs>
<clipPath id="clip0_873_10">
<rect width="3332" height="302" fill="white"/>
</clipPath>
</defs>
</svg>
