<svg width="2430" height="512" viewBox="0 0 2430 512" fill="none" xmlns="http://www.w3.org/2000/svg">
<line x1="2247.8" y1="41.6647" x2="2131.3" y2="47.1134" stroke="#0B090A" stroke-width="6"/>
<line x1="2129.78" y1="42.9487" x2="2136.56" y2="150.739" stroke="#0B090A" stroke-width="5"/>
<line x1="2152.38" y1="20.959" x2="2160.24" y2="153.507" stroke="#0B090A" stroke-width="6"/>
<line x1="2171.01" y1="16.6535" x2="2181.18" y2="154.108" stroke="#0B090A" stroke-width="6"/>
<line x1="2257.47" y1="72.4355" x2="2110.08" y2="81.7287" stroke="#0B090A" stroke-width="6"/>
<line x1="2258.84" y1="84.4702" x2="2115.85" y2="93.1163" stroke="#0B090A" stroke-width="7"/>
<line x1="2257.13" y1="55.918" x2="2114.17" y2="66.2429" stroke="#0B090A" stroke-width="6"/>
<line x1="2190.8" y1="15.6146" x2="2203.8" y2="156.31" stroke="#A4161A" stroke-width="6"/>
<line x1="2261.39" y1="95.4193" x2="2116.84" y2="108.505" stroke="#D40000" stroke-width="7"/>
<line x1="2231.73" y1="23.506" x2="2243.63" y2="139.444" stroke="#D40000" stroke-width="6"/>
<line x1="2207.87" y1="15.2649" x2="2219.13" y2="151.594" stroke="#0B090A" stroke-width="6"/>
<line x1="2259.53" y1="111.983" x2="2119.91" y2="123.86" stroke="#D40000" stroke-width="7"/>
<line x1="2248.35" y1="133.162" x2="2131.2" y2="140.139" stroke="#FF0000" stroke-width="7"/>
<line x1="2223.44" y1="492.551" x2="2231.17" y2="406.487" stroke="#A4161A" stroke-width="15"/>
<path d="M2165.59 496.344L2144.41 405.115" stroke="#0B090A" stroke-width="15"/>
<line y1="-7.5" x2="233.255" y2="-7.5" transform="matrix(-0.161342 -0.986899 0.986899 -0.161341 2152.82 410.527)" stroke="#D40000" stroke-width="15"/>
<line x1="2231.22" y1="407.765" x2="2257.15" y2="187.277" stroke="#A4161A" stroke-width="15"/>
<line x1="2170.28" y1="491.5" x2="2226.14" y2="491.227" stroke="#E5383B" stroke-width="15"/>
<path d="M2215.48 434.992L2174.84 435.214" stroke="#0B090A" stroke-width="15"/>
<path d="M2238.52 401.242L2211.19 438.301" stroke="#0B090A" stroke-width="15"/>
<line x1="2217.61" y1="205.414" x2="2144.64" y2="213.29" stroke="#E5383B" stroke-width="15"/>
<line y1="-7.5" x2="75.4088" y2="-7.5" transform="matrix(-0.806753 -0.590889 0.590892 -0.806751 2153.4 206.133)" stroke="#0B090A" stroke-width="15"/>
<line y1="-7.5" x2="72.3853" y2="-7.5" transform="matrix(-0.143167 -0.989699 0.989699 -0.143165 2097.88 171.859)" stroke="#D40000" stroke-width="15"/>
<line y1="-7.5" x2="58.7018" y2="-7.5" transform="matrix(0.467981 -0.883738 0.88374 0.467978 2084 108.441)" stroke="#0B090A" stroke-width="15"/>
<line y1="-7.5" x2="59.5937" y2="-7.5" transform="matrix(0.717809 -0.69624 0.696243 0.717806 2106.87 61.4844)" stroke="#0B090A" stroke-width="15"/>
<line x1="2141.66" y1="18.2319" x2="2222.99" y2="12.7441" stroke="#0B090A" stroke-width="15"/>
<line y1="-7.5" x2="80.5522" y2="-7.5" transform="matrix(0.719403 0.694593 -0.694596 0.7194 2210.78 13)" stroke="#D40000" stroke-width="15"/>
<path d="M2272.84 59.1328L2286.91 126.577" stroke="#0B090A" stroke-width="15"/>
<line y1="-7.5" x2="68.2774" y2="-7.5" transform="matrix(-0.3608 0.932643 -0.932644 -0.360798 2280.59 120.418)" stroke="#0B090A" stroke-width="15"/>
<line y1="-7.5" x2="59.1121" y2="-7.5" transform="matrix(-0.918271 0.395952 -0.395955 -0.91827 2264.7 177.039)" stroke="#0B090A" stroke-width="15"/>
<line y1="-7.5" x2="49.5132" y2="-7.5" transform="matrix(-0.787018 -0.61693 0.616933 -0.787016 2184.23 433.832)" stroke="#0B090A" stroke-width="15"/>
<path d="M2194.32 233.376L2194.15 226.878L2181.15 227.216L2181.32 233.714L2187.82 233.545L2194.32 233.376ZM2192.54 414.855L2199.04 414.686L2194.32 233.376L2187.82 233.545L2181.32 233.714L2186.04 415.025L2192.54 414.855Z" fill="#D40000"/>
<line x1="303.804" y1="41.6647" x2="187.301" y2="47.1134" stroke="#0B090A" stroke-width="6"/>
<line x1="185.784" y1="42.9487" x2="192.556" y2="150.739" stroke="#0B090A" stroke-width="5"/>
<line x1="208.378" y1="20.959" x2="216.244" y2="153.507" stroke="#0B090A" stroke-width="6"/>
<line x1="227.007" y1="16.6535" x2="237.184" y2="154.108" stroke="#0B090A" stroke-width="6"/>
<line x1="313.47" y1="72.4355" x2="166.083" y2="81.7287" stroke="#0B090A" stroke-width="6"/>
<line x1="314.844" y1="84.4702" x2="171.849" y2="93.1163" stroke="#0B090A" stroke-width="7"/>
<line x1="313.13" y1="55.918" x2="170.173" y2="66.2429" stroke="#0B090A" stroke-width="6"/>
<line x1="246.8" y1="15.6146" x2="259.801" y2="156.31" stroke="#0B090A" stroke-width="6"/>
<line x1="317.394" y1="95.4193" x2="172.844" y2="108.505" stroke="#0B090A" stroke-width="7"/>
<line x1="287.726" y1="23.506" x2="299.634" y2="139.444" stroke="#0B090A" stroke-width="6"/>
<line x1="263.873" y1="15.2649" x2="275.126" y2="151.594" stroke="#0B090A" stroke-width="6"/>
<line x1="315.531" y1="111.983" x2="175.911" y2="123.86" stroke="#0B090A" stroke-width="7"/>
<line x1="304.349" y1="133.162" x2="187.2" y2="140.139" stroke="#0B090A" stroke-width="7"/>
<line x1="279.436" y1="492.551" x2="287.173" y2="406.487" stroke="#0B090A" stroke-width="15"/>
<path d="M221.586 496.344L200.41 405.115" stroke="#0B090A" stroke-width="15"/>
<line y1="-7.5" x2="233.255" y2="-7.5" transform="matrix(-0.161342 -0.986899 0.986899 -0.161341 208.82 410.527)" stroke="#D40000" stroke-width="15"/>
<line x1="287.223" y1="407.765" x2="313.15" y2="187.277" stroke="#A4161A" stroke-width="15"/>
<line x1="226.276" y1="491.5" x2="282.14" y2="491.227" stroke="#E5383B" stroke-width="15"/>
<path d="M271.484 434.992L230.839 435.214" stroke="#0B090A" stroke-width="15"/>
<path d="M294.516 401.242L267.191 438.301" stroke="#0B090A" stroke-width="15"/>
<line x1="273.61" y1="205.414" x2="200.641" y2="213.29" stroke="#E5383B" stroke-width="15"/>
<line y1="-7.5" x2="75.4088" y2="-7.5" transform="matrix(-0.806753 -0.590889 0.590892 -0.806751 209.398 206.133)" stroke="#0B090A" stroke-width="15"/>
<line y1="-7.5" x2="72.3853" y2="-7.5" transform="matrix(-0.143167 -0.989699 0.989699 -0.143165 153.875 171.859)" stroke="#D40000" stroke-width="15"/>
<line y1="-7.5" x2="58.7018" y2="-7.5" transform="matrix(0.467981 -0.883738 0.88374 0.467978 140 108.441)" stroke="#D40000" stroke-width="15"/>
<line y1="-7.5" x2="59.5937" y2="-7.5" transform="matrix(0.717809 -0.69624 0.696243 0.717806 162.867 61.4844)" stroke="#0B090A" stroke-width="15"/>
<line x1="197.659" y1="18.2319" x2="278.991" y2="12.7441" stroke="#0B090A" stroke-width="15"/>
<line y1="-7.5" x2="80.5522" y2="-7.5" transform="matrix(0.719403 0.694593 -0.694596 0.7194 266.781 13)" stroke="#D40000" stroke-width="15"/>
<path d="M328.844 59.1328L342.912 126.577" stroke="#0B090A" stroke-width="15"/>
<line y1="-7.5" x2="68.2774" y2="-7.5" transform="matrix(-0.3608 0.932643 -0.932644 -0.360798 336.594 120.418)" stroke="#0B090A" stroke-width="15"/>
<line y1="-7.5" x2="59.1121" y2="-7.5" transform="matrix(-0.918271 0.395952 -0.395955 -0.91827 320.695 177.039)" stroke="#0B090A" stroke-width="15"/>
<line y1="-7.5" x2="49.5132" y2="-7.5" transform="matrix(-0.787018 -0.61693 0.616933 -0.787016 240.227 433.832)" stroke="#0B090A" stroke-width="15"/>
<path d="M250.316 233.376L250.147 226.878L237.151 227.216L237.321 233.714L243.818 233.545L250.316 233.376ZM248.539 414.855L255.037 414.686L250.316 233.376L243.818 233.545L237.321 233.714L242.041 415.025L248.539 414.855Z" fill="#0B090A"/>
<line x1="789.804" y1="41.6647" x2="673.301" y2="47.1134" stroke="#D40000" stroke-width="6"/>
<line x1="671.784" y1="42.9487" x2="678.556" y2="150.739" stroke="#0B090A" stroke-width="5"/>
<line x1="694.378" y1="20.959" x2="702.244" y2="153.507" stroke="#0B090A" stroke-width="6"/>
<line x1="713.007" y1="16.6535" x2="723.184" y2="154.108" stroke="#0B090A" stroke-width="6"/>
<line x1="799.47" y1="72.4355" x2="652.083" y2="81.7287" stroke="#0B090A" stroke-width="6"/>
<line x1="800.844" y1="84.4702" x2="657.849" y2="93.1163" stroke="#0B090A" stroke-width="7"/>
<line x1="799.13" y1="55.918" x2="656.173" y2="66.2429" stroke="#E5383B" stroke-width="6"/>
<line x1="732.8" y1="15.6146" x2="745.801" y2="156.31" stroke="#0B090A" stroke-width="6"/>
<line x1="803.394" y1="95.4193" x2="658.844" y2="108.505" stroke="#D40000" stroke-width="7"/>
<line x1="773.726" y1="23.506" x2="785.634" y2="139.444" stroke="#0B090A" stroke-width="6"/>
<line x1="749.873" y1="15.2649" x2="761.126" y2="151.594" stroke="#0B090A" stroke-width="6"/>
<line x1="801.531" y1="111.983" x2="661.911" y2="123.86" stroke="#0B090A" stroke-width="7"/>
<line x1="790.349" y1="133.162" x2="673.2" y2="140.139" stroke="#A4161A" stroke-width="7"/>
<line x1="765.436" y1="492.551" x2="773.173" y2="406.487" stroke="#0B090A" stroke-width="15"/>
<path d="M707.586 496.344L686.41 405.115" stroke="#0B090A" stroke-width="15"/>
<line y1="-7.5" x2="233.255" y2="-7.5" transform="matrix(-0.161342 -0.986899 0.986899 -0.161341 694.82 410.527)" stroke="#D40000" stroke-width="15"/>
<line x1="773.223" y1="407.765" x2="799.15" y2="187.277" stroke="#A4161A" stroke-width="15"/>
<line x1="712.276" y1="491.5" x2="768.14" y2="491.227" stroke="#E5383B" stroke-width="15"/>
<path d="M757.484 434.992L716.839 435.214" stroke="#0B090A" stroke-width="15"/>
<path d="M780.516 401.242L753.191 438.301" stroke="#0B090A" stroke-width="15"/>
<line x1="759.61" y1="205.414" x2="686.641" y2="213.29" stroke="#E5383B" stroke-width="15"/>
<line y1="-7.5" x2="75.4088" y2="-7.5" transform="matrix(-0.806753 -0.590889 0.590892 -0.806751 695.398 206.133)" stroke="#0B090A" stroke-width="15"/>
<line y1="-7.5" x2="72.3853" y2="-7.5" transform="matrix(-0.143167 -0.989699 0.989699 -0.143165 639.875 171.859)" stroke="#D40000" stroke-width="15"/>
<line y1="-7.5" x2="58.7018" y2="-7.5" transform="matrix(0.467981 -0.883738 0.88374 0.467978 626 108.441)" stroke="#D40000" stroke-width="15"/>
<line y1="-7.5" x2="59.5937" y2="-7.5" transform="matrix(0.717809 -0.69624 0.696243 0.717806 648.867 61.4844)" stroke="#0B090A" stroke-width="15"/>
<line x1="683.659" y1="18.2319" x2="764.991" y2="12.7441" stroke="#0B090A" stroke-width="15"/>
<line y1="-7.5" x2="80.5522" y2="-7.5" transform="matrix(0.719403 0.694593 -0.694596 0.7194 752.781 13)" stroke="#D40000" stroke-width="15"/>
<path d="M814.844 59.1328L828.912 126.577" stroke="#0B090A" stroke-width="15"/>
<line y1="-7.5" x2="68.2774" y2="-7.5" transform="matrix(-0.3608 0.932643 -0.932644 -0.360798 822.594 120.418)" stroke="#0B090A" stroke-width="15"/>
<line y1="-7.5" x2="59.1121" y2="-7.5" transform="matrix(-0.918271 0.395952 -0.395955 -0.91827 806.695 177.039)" stroke="#0B090A" stroke-width="15"/>
<line y1="-7.5" x2="49.5132" y2="-7.5" transform="matrix(-0.787018 -0.61693 0.616933 -0.787016 726.227 433.832)" stroke="#0B090A" stroke-width="15"/>
<path d="M736.316 233.376L736.147 226.878L723.151 227.216L723.321 233.714L729.818 233.545L736.316 233.376ZM734.539 414.855L741.037 414.686L736.316 233.376L729.818 233.545L723.321 233.714L728.041 415.025L734.539 414.855Z" fill="#0B090A"/>
<line x1="1275.8" y1="41.6647" x2="1159.3" y2="47.1134" stroke="#0B090A" stroke-width="6"/>
<line x1="1157.78" y1="42.9487" x2="1164.56" y2="150.739" stroke="#A4161A" stroke-width="5"/>
<line x1="1180.38" y1="20.959" x2="1188.24" y2="153.507" stroke="#D40000" stroke-width="6"/>
<line x1="1199.01" y1="16.6535" x2="1209.18" y2="154.108" stroke="#0B090A" stroke-width="6"/>
<line x1="1285.47" y1="72.4355" x2="1138.08" y2="81.7287" stroke="#0B090A" stroke-width="6"/>
<line x1="1286.84" y1="84.4702" x2="1143.85" y2="93.1163" stroke="#0B090A" stroke-width="7"/>
<line x1="1285.13" y1="55.918" x2="1142.17" y2="66.2429" stroke="#0B090A" stroke-width="6"/>
<line x1="1218.8" y1="15.6146" x2="1231.8" y2="156.31" stroke="#FF0000" stroke-width="6"/>
<line x1="1289.39" y1="95.4193" x2="1144.84" y2="108.505" stroke="#0B090A" stroke-width="7"/>
<line x1="1259.73" y1="23.506" x2="1271.63" y2="139.444" stroke="#E5383B" stroke-width="6"/>
<line x1="1235.87" y1="15.2649" x2="1247.13" y2="151.594" stroke="#0B090A" stroke-width="6"/>
<line x1="1287.53" y1="111.983" x2="1147.91" y2="123.86" stroke="#0B090A" stroke-width="7"/>
<line x1="1276.35" y1="133.162" x2="1159.2" y2="140.139" stroke="#0B090A" stroke-width="7"/>
<line x1="1251.44" y1="492.551" x2="1259.17" y2="406.487" stroke="#0B090A" stroke-width="15"/>
<path d="M1193.59 496.344L1172.41 405.115" stroke="#0B090A" stroke-width="15"/>
<line y1="-7.5" x2="233.255" y2="-7.5" transform="matrix(-0.161342 -0.986899 0.986899 -0.161341 1180.82 410.527)" stroke="#0B090A" stroke-width="15"/>
<line x1="1259.22" y1="407.765" x2="1285.15" y2="187.277" stroke="#0B090A" stroke-width="15"/>
<line x1="1198.28" y1="491.5" x2="1254.14" y2="491.227" stroke="#E5383B" stroke-width="15"/>
<path d="M1243.48 434.992L1202.84 435.214" stroke="#D40000" stroke-width="15"/>
<path d="M1266.52 401.242L1239.19 438.301" stroke="#0B090A" stroke-width="15"/>
<line x1="1245.61" y1="205.414" x2="1172.64" y2="213.29" stroke="#D40000" stroke-width="15"/>
<line y1="-7.5" x2="75.4088" y2="-7.5" transform="matrix(-0.806753 -0.590889 0.590892 -0.806751 1181.4 206.133)" stroke="#0B090A" stroke-width="15"/>
<line y1="-7.5" x2="72.3853" y2="-7.5" transform="matrix(-0.143167 -0.989699 0.989699 -0.143165 1125.88 171.859)" stroke="#D40000" stroke-width="15"/>
<line y1="-7.5" x2="58.7018" y2="-7.5" transform="matrix(0.467981 -0.883738 0.88374 0.467978 1112 108.441)" stroke="#0B090A" stroke-width="15"/>
<line y1="-7.5" x2="59.5937" y2="-7.5" transform="matrix(0.717809 -0.69624 0.696243 0.717806 1134.87 61.4844)" stroke="#0B090A" stroke-width="15"/>
<line x1="1169.66" y1="18.2319" x2="1250.99" y2="12.7441" stroke="#D40000" stroke-width="15"/>
<line y1="-7.5" x2="80.5522" y2="-7.5" transform="matrix(0.719403 0.694593 -0.694596 0.7194 1238.78 13)" stroke="#D40000" stroke-width="15"/>
<path d="M1300.84 59.1328L1314.91 126.577" stroke="#0B090A" stroke-width="15"/>
<line y1="-7.5" x2="68.2775" y2="-7.5" transform="matrix(-0.3608 0.932643 -0.932644 -0.360798 1308.59 120.418)" stroke="#E5383B" stroke-width="15"/>
<line y1="-7.5" x2="59.1121" y2="-7.5" transform="matrix(-0.918271 0.395952 -0.395955 -0.91827 1292.7 177.039)" stroke="#0B090A" stroke-width="15"/>
<line y1="-7.5" x2="49.5132" y2="-7.5" transform="matrix(-0.787018 -0.61693 0.616933 -0.787016 1212.23 433.832)" stroke="#0B090A" stroke-width="15"/>
<path d="M1222.32 233.376L1222.15 226.878L1209.15 227.216L1209.32 233.714L1215.82 233.545L1222.32 233.376ZM1220.54 414.855L1227.04 414.686L1222.32 233.376L1215.82 233.545L1209.32 233.714L1214.04 415.025L1220.54 414.855Z" fill="#D40000"/>
<line x1="1761.8" y1="41.6647" x2="1645.3" y2="47.1134" stroke="#0B090A" stroke-width="6"/>
<line x1="1643.78" y1="42.9487" x2="1650.56" y2="150.739" stroke="#0B090A" stroke-width="5"/>
<line x1="1666.38" y1="20.959" x2="1674.24" y2="153.507" stroke="#FF0000" stroke-width="6"/>
<line x1="1685.01" y1="16.6535" x2="1695.18" y2="154.108" stroke="#0B090A" stroke-width="6"/>
<line x1="1771.47" y1="72.4355" x2="1624.08" y2="81.7287" stroke="#FF0000" stroke-width="6"/>
<line x1="1772.84" y1="84.4702" x2="1629.85" y2="93.1163" stroke="#0B090A" stroke-width="7"/>
<line x1="1771.13" y1="55.918" x2="1628.17" y2="66.2429" stroke="#0B090A" stroke-width="6"/>
<line x1="1704.8" y1="15.6146" x2="1717.8" y2="156.31" stroke="#FF0000" stroke-width="6"/>
<line x1="1775.39" y1="95.4193" x2="1630.84" y2="108.505" stroke="#0B090A" stroke-width="7"/>
<line x1="1745.73" y1="23.506" x2="1757.63" y2="139.444" stroke="#D40000" stroke-width="6"/>
<line x1="1721.87" y1="15.2649" x2="1733.13" y2="151.594" stroke="#0B090A" stroke-width="6"/>
<line x1="1773.53" y1="111.983" x2="1633.91" y2="123.86" stroke="#0B090A" stroke-width="7"/>
<line x1="1762.35" y1="133.162" x2="1645.2" y2="140.139" stroke="#D40000" stroke-width="7"/>
<line x1="1737.44" y1="492.551" x2="1745.17" y2="406.487" stroke="#A4161A" stroke-width="15"/>
<path d="M1679.59 496.344L1658.41 405.115" stroke="#0B090A" stroke-width="15"/>
<line y1="-7.5" x2="233.255" y2="-7.5" transform="matrix(-0.161342 -0.986899 0.986899 -0.161341 1666.82 410.527)" stroke="#D40000" stroke-width="15"/>
<line x1="1745.22" y1="407.765" x2="1771.15" y2="187.277" stroke="#0B090A" stroke-width="15"/>
<line x1="1684.28" y1="491.5" x2="1740.14" y2="491.227" stroke="#E5383B" stroke-width="15"/>
<path d="M1729.48 434.992L1688.84 435.214" stroke="#D40000" stroke-width="15"/>
<path d="M1752.52 401.242L1725.19 438.301" stroke="#0B090A" stroke-width="15"/>
<line x1="1731.61" y1="205.414" x2="1658.64" y2="213.29" stroke="#0B090A" stroke-width="15"/>
<line y1="-7.5" x2="75.4088" y2="-7.5" transform="matrix(-0.806753 -0.590889 0.590892 -0.806751 1667.4 206.133)" stroke="#0B090A" stroke-width="15"/>
<line y1="-7.5" x2="72.3853" y2="-7.5" transform="matrix(-0.143167 -0.989699 0.989699 -0.143165 1611.88 171.859)" stroke="#0B090A" stroke-width="15"/>
<line y1="-7.5" x2="58.7018" y2="-7.5" transform="matrix(0.467981 -0.883738 0.88374 0.467978 1598 108.441)" stroke="#0B090A" stroke-width="15"/>
<line y1="-7.5" x2="59.5937" y2="-7.5" transform="matrix(0.717809 -0.69624 0.696243 0.717806 1620.87 61.4844)" stroke="#D40000" stroke-width="15"/>
<line x1="1655.66" y1="18.2319" x2="1736.99" y2="12.7441" stroke="#D40000" stroke-width="15"/>
<line y1="-7.5" x2="80.5522" y2="-7.5" transform="matrix(0.719403 0.694593 -0.694596 0.7194 1724.78 13)" stroke="#D40000" stroke-width="15"/>
<path d="M1786.84 59.1328L1800.91 126.577" stroke="#0B090A" stroke-width="15"/>
<line y1="-7.5" x2="68.2774" y2="-7.5" transform="matrix(-0.3608 0.932643 -0.932644 -0.360798 1794.59 120.418)" stroke="#E5383B" stroke-width="15"/>
<line y1="-7.5" x2="59.1121" y2="-7.5" transform="matrix(-0.918271 0.395952 -0.395955 -0.91827 1778.7 177.039)" stroke="#0B090A" stroke-width="15"/>
<line y1="-7.5" x2="49.5132" y2="-7.5" transform="matrix(-0.787018 -0.61693 0.616933 -0.787016 1698.23 433.832)" stroke="#0B090A" stroke-width="15"/>
<path d="M1708.32 233.376L1708.15 226.878L1695.15 227.216L1695.32 233.714L1701.82 233.545L1708.32 233.376ZM1706.54 414.855L1713.04 414.686L1708.32 233.376L1701.82 233.545L1695.32 233.714L1700.04 415.025L1706.54 414.855Z" fill="#D40000"/>
</svg>
