<svg width="72" height="87" viewBox="0 0 72 87" fill="none" xmlns="http://www.w3.org/2000/svg">
<path d="M13.5898 74.7686L59.0674 70.1592V81.4756L1.38379 87.0029L0 56.043H12.5879L13.5898 74.7686Z" fill="#0B090A"/>
<path d="M56.7344 86.9521H49.751V56.042H33.0898L29.9326 47.0576H56.7344V86.9521ZM14.124 9.28906C12.7241 11.7383 12.0215 14.9295 12.0215 18.8643V56.042H11.3984V83.4883C9.0041 81.7309 6.99975 79.5178 5.3877 76.8457C3.17642 72.9449 2.07036 68.0689 2.07031 62.2178V19.9287C2.07031 15.9779 2.53632 12.4316 3.46387 9.28906H14.124Z" fill="#0B090A"/>
<path d="M52.8672 11.1084L12.6045 13.6592L12.9268 19.6777H0.732422L0 3.28711L52.8672 0V11.1084Z" fill="#0B090A"/>
<path d="M71.9932 54.7471H60.1348L59.3428 43.9834H46.6328V32.2285L70.2227 32.1484L71.9932 54.7471Z" fill="#0B090A"/>
</svg>
