<svg width="121" height="114" viewBox="0 0 121 114" fill="none" xmlns="http://www.w3.org/2000/svg">
<line y1="-2.5" x2="92.5707" y2="-2.5" transform="matrix(-0.998919 0.0464879 -0.0469484 -0.998897 109.352 20.2695)" stroke="#D40000" stroke-width="5"/>
<line y1="-2.5" x2="85.3036" y2="-2.5" transform="matrix(0.0630101 0.998013 -0.998052 0.0623931 13.8125 23.7852)" stroke="#D40000" stroke-width="5"/>
<line y1="-2.5" x2="104.874" y2="-2.5" transform="matrix(0.059533 0.998226 -0.998261 0.0589498 31.3438 6.42969)" stroke="#D40000" stroke-width="5"/>
<line y1="-2.5" x2="108.862" y2="-2.5" transform="matrix(0.0741979 0.997244 -0.997297 0.0734724 46.1328 3.0625)" stroke="#D40000" stroke-width="5"/>
<line y1="-2.5" x2="117.213" y2="-2.5" transform="matrix(-0.998038 0.0626196 -0.0632389 -0.997998 116.984 44.5859)" stroke="#D40000" stroke-width="5"/>
<line y1="-2.5" x2="113.702" y2="-2.5" transform="matrix(-0.998195 0.0600579 -0.060652 -0.998159 118.055 53.6836)" stroke="#D40000" stroke-width="5"/>
<line y1="-2.5" x2="113.759" y2="-2.5" transform="matrix(-0.997427 0.0716837 -0.0723917 -0.997376 116.695 31.5352)" stroke="#D40000" stroke-width="5"/>
<line y1="-2.5" x2="111.601" y2="-2.5" transform="matrix(0.0924668 0.995716 -0.995799 0.0915653 61.8516 2.28906)" stroke="#D40000" stroke-width="5"/>
<line y1="-2.5" x2="115.196" y2="-2.5" transform="matrix(-0.995967 0.0897195 -0.0906031 -0.995887 120 62.3438)" stroke="#D40000" stroke-width="5"/>
<line y1="-2.5" x2="108.043" y2="-2.5" transform="matrix(0.0826702 0.996577 -0.996643 0.0818629 75.3906 1.98438)" stroke="#D40000" stroke-width="5"/>
<line y1="-2.5" x2="108.043" y2="-2.5" transform="matrix(0.0826702 0.996577 -0.996643 0.0818629 91.9766 0.410156)" stroke="#D40000" stroke-width="5"/>
<line y1="-2.5" x2="111.215" y2="-2.5" transform="matrix(-0.996437 0.0843409 -0.0851722 -0.996366 118.539 75.4258)" stroke="#D40000" stroke-width="5"/>
<line y1="-2.5" x2="93.1454" y2="-2.5" transform="matrix(-0.998248 0.0591623 -0.0597477 -0.998214 109.727 92.1445)" stroke="#D40000" stroke-width="5"/>
</svg>
