<svg width="121" height="114" viewBox="0 0 121 114" fill="none" xmlns="http://www.w3.org/2000/svg">
<line y1="-2.5" x2="92.575" y2="-2.5" transform="matrix(-0.998919 0.0464871 -0.0469492 -0.998897 109.344 20.2734)" stroke="white" stroke-width="5"/>
<line y1="-2.5" x2="85.3055" y2="-2.5" transform="matrix(0.0630111 0.998013 -0.998052 0.0623921 13.8047 23.7773)" stroke="white" stroke-width="5"/>
<line y1="-2.5" x2="104.877" y2="-2.5" transform="matrix(0.0595339 0.998226 -0.998261 0.0589488 31.3359 6.42578)" stroke="white" stroke-width="5"/>
<line y1="-2.5" x2="108.865" y2="-2.5" transform="matrix(0.0741991 0.997243 -0.997297 0.0734713 46.125 3.0625)" stroke="white" stroke-width="5"/>
<line y1="-2.5" x2="117.218" y2="-2.5" transform="matrix(-0.998038 0.0626186 -0.0632399 -0.997998 116.984 44.5781)" stroke="white" stroke-width="5"/>
<line y1="-2.5" x2="113.708" y2="-2.5" transform="matrix(-0.998195 0.060057 -0.060653 -0.998159 118.055 53.6875)" stroke="white" stroke-width="5"/>
<line y1="-2.5" x2="113.765" y2="-2.5" transform="matrix(-0.997427 0.0716826 -0.0723929 -0.997376 116.688 31.5352)" stroke="white" stroke-width="5"/>
<line y1="-2.5" x2="111.604" y2="-2.5" transform="matrix(0.0924682 0.995716 -0.995799 0.0915639 61.8438 2.28516)" stroke="white" stroke-width="5"/>
<line y1="-2.5" x2="115.201" y2="-2.5" transform="matrix(-0.995967 0.0897181 -0.0906045 -0.995887 120 62.3477)" stroke="white" stroke-width="5"/>
<line y1="-2.5" x2="108.046" y2="-2.5" transform="matrix(0.0826715 0.996577 -0.996644 0.0818616 75.3828 1.98828)" stroke="white" stroke-width="5"/>
<line y1="-2.5" x2="108.046" y2="-2.5" transform="matrix(0.0826715 0.996577 -0.996644 0.0818616 91.9688 0.410156)" stroke="white" stroke-width="5"/>
<line y1="-2.5" x2="111.22" y2="-2.5" transform="matrix(-0.996437 0.0843395 -0.0851735 -0.996366 118.539 75.4258)" stroke="white" stroke-width="5"/>
<line y1="-2.5" x2="93.1497" y2="-2.5" transform="matrix(-0.998248 0.0591614 -0.0597486 -0.998213 109.727 92.1484)" stroke="white" stroke-width="5"/>
</svg>
