<svg width="203" height="102" viewBox="0 0 203 102" fill="none" xmlns="http://www.w3.org/2000/svg">
<path d="M101.5 2.32458e-06C45.4431 2.32458e-06 0 2.32458e-06 0 2.32458e-06C0 56.333 45.4431 102 101.5 102C157.557 102 203 56.333 203 2.32458e-06C203 2.32458e-06 157.557 2.32458e-06 101.5 2.32458e-06Z" fill="#106F7A"/>
<path d="M102 0.000309125C81.0132 0.000309125 64 0.000309125 64 0.000309125C64 21.0905 81.0132 38.1875 102 38.1875C122.987 38.1875 140 21.0905 140 0.000309125C140 0.000309125 122.987 0.000309125 102 0.000309125Z" fill="#A6DDE3"/>
</svg>
