<svg width="288" height="228" viewBox="0 0 288 228" fill="none" xmlns="http://www.w3.org/2000/svg">
<ellipse cx="72.6168" cy="131.325" rx="72.6168" ry="131.325" transform="matrix(0.272361 0.962195 -0.945892 0.32448 248.438 3.03125)" fill="#FFD449"/>
<ellipse cx="20.4377" cy="36.961" rx="20.4377" ry="36.961" transform="matrix(0.272361 0.962195 -0.945892 0.32448 167.867 69.7461)" fill="#3A3A3A"/>
<path d="M249.886 66.1784C254.381 82.0564 247.212 101.181 230.143 119.591C213.183 137.882 187.074 154.684 155.793 165.414C124.512 176.145 94.3547 178.645 70.9584 174.197C47.4108 169.722 31.6425 158.465 27.148 142.587C22.6538 126.709 29.8225 107.585 46.892 89.1757C63.852 70.8846 89.9608 54.0815 121.242 43.3508C152.523 32.6201 182.68 30.1218 206.076 34.5688C229.624 39.0447 245.392 50.3006 249.886 66.1784Z" stroke="white" stroke-width="8"/>
</svg>
