<svg width="288" height="228" viewBox="0 0 288 228" fill="none" xmlns="http://www.w3.org/2000/svg">
<ellipse cx="72.6169" cy="131.327" rx="72.6169" ry="131.327" transform="matrix(-0.272365 0.962194 0.945894 0.324475 39.5547 3.03125)" fill="white"/>
<ellipse cx="20.4378" cy="36.9619" rx="20.4378" ry="36.9619" transform="matrix(-0.272365 0.962194 0.945894 0.324475 120.133 69.7422)" fill="#3A3A3A"/>
<path d="M38.1056 66.1783C33.6111 82.0563 40.78 101.181 57.8501 119.591C74.8104 137.881 100.919 154.684 132.2 165.415C163.482 176.146 193.64 178.644 217.036 174.197C240.584 169.721 256.353 158.465 260.847 142.587C265.341 126.709 258.173 107.585 241.103 89.1756C224.143 70.8846 198.034 54.0815 166.752 43.3508C135.471 32.6202 105.313 30.1219 81.9168 34.569C58.3689 39.0448 42.6002 50.3006 38.1056 66.1783Z" stroke="#FFD449" stroke-width="8"/>
</svg>
