<svg width="145" height="231" viewBox="0 0 145 231" fill="none" xmlns="http://www.w3.org/2000/svg">
<path d="M5.99928 43.5016L83.9062 9.19922V38.4406L5.99928 71.8995V43.5016Z" fill="#FFD449"/>
<path d="M83.9062 204.329V38.4406M5.99928 91.3V71.8995M83.9062 38.4406V9.19922L5.99928 43.5016V71.8995M83.9062 38.4406L5.99928 71.8995" stroke="black" stroke-width="12"/>
<ellipse cx="34.7499" cy="50.6101" rx="34.7499" ry="50.6101" transform="matrix(-1 0 0 1 139.375 128.98)" fill="black"/>
<path d="M113.053 136.484C105.509 136.484 98.345 140.949 92.9375 148.85C87.5399 156.735 84.1055 167.796 84.1055 180.158C84.1055 192.521 87.5399 203.581 92.9375 211.467C98.345 219.367 105.509 223.832 113.053 223.832C120.596 223.832 127.76 219.367 133.167 211.467C138.565 203.581 142 192.521 142 180.158C142 167.796 138.565 156.735 133.167 148.85C127.76 140.95 120.596 136.484 113.053 136.484Z" stroke="#FFD449" stroke-width="6"/>
</svg>
