<svg width="189" height="218" viewBox="0 0 189 218" fill="none" xmlns="http://www.w3.org/2000/svg">
<path d="M32.1562 114.18V8.5H161.555V88.2511" stroke="black" stroke-width="17"/>
<ellipse cx="31.3856" cy="163.678" rx="27.4481" ry="53.8222" fill="black"/>
<path d="M25.4873 118.07C30.5248 118.07 35.9844 122.147 40.3926 130.776C44.7044 139.217 47.4746 151.122 47.4746 164.464C47.4746 177.805 44.7044 189.71 40.3926 198.151C35.9844 206.781 30.5248 210.857 25.4873 210.857C20.4498 210.857 14.9903 206.781 10.582 198.151C6.27016 189.71 3.5 177.805 3.5 164.464C3.5 151.122 6.27017 139.217 10.582 130.776C14.9903 122.147 20.4498 118.07 25.4873 118.07Z" stroke="white" stroke-width="7"/>
<ellipse cx="161.55" cy="114.178" rx="27.4481" ry="53.8222" fill="black"/>
<path d="M156.464 68.5703C161.501 68.5704 166.961 72.6469 171.369 81.2764C175.681 89.7174 178.451 101.622 178.451 114.964C178.451 128.305 175.681 140.21 171.369 148.651C166.961 157.281 161.501 161.357 156.464 161.357C151.426 161.357 145.967 157.281 141.559 148.651C137.247 140.21 134.477 128.305 134.477 114.964C134.477 101.622 137.247 89.7174 141.559 81.2764C145.967 72.6467 151.426 68.5703 156.464 68.5703Z" stroke="white" stroke-width="7"/>
</svg>
