<svg width="70" height="95" viewBox="0 0 70 95" fill="none" xmlns="http://www.w3.org/2000/svg">
<path d="M17.126 56.2461H6.35645L1.86328 18.6641L12.4629 17.0215L17.126 56.2461ZM69.5439 9.7832H58.7002L58.7021 9.74316L0 9.86035L0.46582 0.117188L70 0L69.5439 9.7832Z" fill="#0B090A"/>
<path d="M31.1992 1.55078C38.8865 1.55078 44.866 3.74257 49.1367 8.125C53.4072 12.4291 55.542 18.4159 55.542 26.085V29.3516H49.0195V24.9111C49.0195 21.0765 48.282 17.9066 46.8066 15.4023C45.3314 12.8984 43.235 11.0206 40.5176 9.76855C37.7999 8.43817 34.5768 7.77246 30.8496 7.77246C27.278 7.77251 24.1336 8.43826 21.416 9.76855C18.776 11.0207 16.7175 12.8981 15.2422 15.4023C13.7669 17.9066 13.0293 21.0765 13.0293 24.9111V63.6484C13.0293 67.4047 13.8064 70.5348 15.3594 73.0391C16.9123 75.5432 19.0085 77.4606 21.6484 78.791C24.366 80.0431 27.4332 80.6699 30.8496 80.6699C34.4213 80.6699 37.5665 80.083 40.2842 78.9092C43.0018 77.6571 45.1375 75.7786 46.6904 73.2744C48.2434 70.6919 49.0195 67.4831 49.0195 63.6484V63.5889H55.542V63.7656C55.542 68.5393 54.494 72.6485 52.3975 76.0918C50.3786 79.535 47.5054 82.1961 43.7783 84.0742C40.1289 85.9523 35.8971 86.8906 31.083 86.8906C26.5017 86.8906 22.3473 86.0303 18.6201 84.3086C14.893 82.5869 11.9041 80.0038 9.65234 76.5605C7.47823 73.1172 6.39062 68.8523 6.39062 63.7656V25.9678C6.39062 17.9856 8.6034 11.9201 13.0293 7.77246C17.4552 3.62484 23.5121 1.55082 31.1992 1.55078Z" fill="#0B090A"/>
<path d="M58.0947 24.9229L58.2354 95.002L46.1016 94.5264V83.5996L46.54 83.6162L46.3984 24.4531L58.0947 24.9229Z" fill="#0B090A"/>
</svg>
