<svg width="2796" height="100" viewBox="0 0 2796 100" fill="none" xmlns="http://www.w3.org/2000/svg">
<path d="M100 50L25 93.3013V6.69873L100 50Z" fill="#F5F3F4"/>
<path d="M1498 50L1423 93.3013V6.69873L1498 50Z" fill="#F5F3F4"/>
<path d="M399 50L324 93.3013V6.69873L399 50Z" fill="#F5F3F4"/>
<path d="M1797 50L1722 93.3013V6.69873L1797 50Z" fill="#F5F3F4"/>
<path d="M698 50L623 93.3013V6.69873L698 50Z" fill="#F5F3F4"/>
<path d="M2096 50L2021 93.3013V6.69873L2096 50Z" fill="#F5F3F4"/>
<path d="M998 50L923 93.3013V6.69873L998 50Z" fill="#F5F3F4"/>
<path d="M2396 50L2321 93.3013V6.69873L2396 50Z" fill="#F5F3F4"/>
<path d="M1298 50L1223 93.3013V6.69873L1298 50Z" fill="#F5F3F4"/>
<path d="M2696 50L2621 93.3013V6.69873L2696 50Z" fill="#F5F3F4"/>
<path d="M200 50L125 93.3013V6.69873L200 50Z" fill="#FFD449"/>
<path d="M1598 50L1523 93.3013V6.69873L1598 50Z" fill="#FFD449"/>
<path d="M499 50L424 93.3013V6.69873L499 50Z" fill="#FFD449"/>
<path d="M1897 50L1822 93.3013V6.69873L1897 50Z" fill="#FFD449"/>
<path d="M798 50L723 93.3013V6.69873L798 50Z" fill="#FFD449"/>
<path d="M2196 50L2121 93.3013V6.69873L2196 50Z" fill="#FFD449"/>
<path d="M1098 50L1023 93.3013V6.69873L1098 50Z" fill="#FFD449"/>
<path d="M2496 50L2421 93.3013V6.69873L2496 50Z" fill="#FFD449"/>
<path d="M1398 50L1323 93.3013V6.69873L1398 50Z" fill="#FFD449"/>
<path d="M2796 50L2721 93.3013V6.69873L2796 50Z" fill="#FFD449"/>
<path d="M300 50L225 93.3013V6.69873L300 50Z" fill="#FFD449"/>
<path d="M1698 50L1623 93.3013V6.69873L1698 50Z" fill="#FFD449"/>
<path d="M599 50L524 93.3013V6.69873L599 50Z" fill="#FFD449"/>
<path d="M1997 50L1922 93.3013V6.69873L1997 50Z" fill="#FFD449"/>
<path d="M898 50L823 93.3013V6.69873L898 50Z" fill="#FFD449"/>
<path d="M2296 50L2221 93.3013V6.69873L2296 50Z" fill="#FFD449"/>
<path d="M1198 50L1123 93.3013V6.69873L1198 50Z" fill="#FFD449"/>
<path d="M2596 50L2521 93.3013V6.69873L2596 50Z" fill="#FFD449"/>
</svg>
