<svg width="2795" height="100" viewBox="0 0 2795 100" fill="none" xmlns="http://www.w3.org/2000/svg">
<path d="M1298 50L1373 93.3013V6.69873L1298 50Z" fill="#F5F3F4"/>
<path d="M2695 50L2770 93.3013V6.69873L2695 50Z" fill="#F5F3F4"/>
<path d="M999 50L1074 93.3013V6.69873L999 50Z" fill="#F5F3F4"/>
<path d="M2396 50L2471 93.3013V6.69873L2396 50Z" fill="#F5F3F4"/>
<path d="M700 50L775 93.3013V6.69873L700 50Z" fill="#F5F3F4"/>
<path d="M2097 50L2172 93.3013V6.69873L2097 50Z" fill="#F5F3F4"/>
<path d="M400 50L475 93.3013V6.69873L400 50Z" fill="#F5F3F4"/>
<path d="M1797 50L1872 93.3013V6.69873L1797 50Z" fill="#F5F3F4"/>
<path d="M100 50L175 93.3013V6.69873L100 50Z" fill="#F5F3F4"/>
<path d="M1497 50L1572 93.3013V6.69873L1497 50Z" fill="#F5F3F4"/>
<path d="M1198 50L1273 93.3013V6.69873L1198 50Z" fill="#FFD449"/>
<path d="M2595 50L2670 93.3013V6.69873L2595 50Z" fill="#FFD449"/>
<path d="M899 50L974 93.3013V6.69873L899 50Z" fill="#FFD449"/>
<path d="M2296 50L2371 93.3013V6.69873L2296 50Z" fill="#FFD449"/>
<path d="M600 50L675 93.3013V6.69873L600 50Z" fill="#FFD449"/>
<path d="M1997 50L2072 93.3013V6.69873L1997 50Z" fill="#FFD449"/>
<path d="M300 50L375 93.3013V6.69873L300 50Z" fill="#FFD449"/>
<path d="M1697 50L1772 93.3013V6.69873L1697 50Z" fill="#FFD449"/>
<path d="M0 50L75 93.3013V6.69873L0 50Z" fill="#FFD449"/>
<path d="M1397 50L1472 93.3013V6.69873L1397 50Z" fill="#FFD449"/>
<path d="M1098 50L1173 93.3013V6.69873L1098 50Z" fill="#FFD449"/>
<path d="M2495 50L2570 93.3013V6.69873L2495 50Z" fill="#FFD449"/>
<path d="M799 50L874 93.3013V6.69873L799 50Z" fill="#FFD449"/>
<path d="M2196 50L2271 93.3013V6.69873L2196 50Z" fill="#FFD449"/>
<path d="M500 50L575 93.3013V6.69873L500 50Z" fill="#FFD449"/>
<path d="M1897 50L1972 93.3013V6.69873L1897 50Z" fill="#FFD449"/>
<path d="M200 50L275 93.3013V6.69873L200 50Z" fill="#FFD449"/>
<path d="M1597 50L1672 93.3013V6.69873L1597 50Z" fill="#FFD449"/>
</svg>
