<svg width="719" height="494" viewBox="0 0 719 494" fill="none" xmlns="http://www.w3.org/2000/svg">
<path d="M589.07 91.5836L659.746 36.8579L707.453 68.6341C684.347 66.7884 669.53 63.5617 659.746 77.4608C640.468 99.0509 629.932 111.306 615.573 135.717L672.115 132.186C655.453 142.816 635.01 155.136 629.709 185.147C610.863 192.005 556.943 227.345 537.829 231.046L422.979 257.526H288.694L138.506 252.23C86.0639 286.011 2.45312 344.028 2.45312 344.028L78.4306 236.342H101.4L157.942 201.035L288.694 192.208L366.438 149.84L239.22 181.616L299.295 142.779L110.235 181.616L14.8215 236.342L157.942 77.4608C218.343 76.3785 278.636 71.7367 306.363 42.1539L422.979 3.31641L484.822 45.6846L497.19 80.9915L530.761 112.768C545.321 93.7958 563.606 90.0366 589.07 91.5836Z" fill="#0B090A"/>
<path d="M589.07 91.5836L659.746 36.8579L707.453 68.6341C684.347 66.7884 669.53 63.5617 659.746 77.4608M589.07 91.5836C613.538 98.0145 628.181 97.4585 659.746 77.4608M589.07 91.5836L615.573 135.717M589.07 91.5836C563.606 90.0366 545.321 93.7958 530.761 112.768L497.19 80.9915M659.746 77.4608C640.468 99.0509 629.932 111.306 615.573 135.717M615.573 135.717L672.115 132.186C655.453 142.816 635.01 155.136 629.709 185.147M615.573 135.717C615.573 135.717 610.273 169.259 629.709 185.147M629.709 185.147C610.863 192.005 556.943 227.345 537.829 231.046L422.979 257.526M422.979 257.526L256.889 344.028L244.521 434.06M422.979 257.526H288.694M244.521 434.06L343.468 396.988L355.837 434.06M244.521 434.06L288.694 449.948L295.761 472.898M244.521 434.06H311.664L332.867 457.01M288.694 257.526L177.378 344.028L143.807 416.407L104.934 465.836M288.694 257.526L138.506 252.23C86.0639 286.011 2.45312 344.028 2.45312 344.028L78.4306 236.342H101.4L157.942 201.035L288.694 192.208L366.438 149.84L239.22 181.616L299.295 142.779M104.934 465.836H157.942L168.543 492.316M104.934 465.836L177.378 434.06L212.716 465.836M104.934 465.836L195.047 407.58L212.716 416.407M497.19 80.9915L484.822 45.6846L422.979 3.31641L306.363 42.1539C278.636 71.7367 218.343 76.3785 157.942 77.4608L14.8215 236.342L110.235 181.616M497.19 80.9915L474.22 123.36L428.28 139.248M299.295 142.779L110.235 181.616M299.295 142.779L361.137 105.706M110.235 181.616L205.649 135.717" stroke="#D40000" stroke-width="6"/>
<circle cx="571.453" cy="119.316" r="12" fill="#0B090A" stroke="#D40000" stroke-width="6"/>
</svg>
