<svg width="769" height="422" viewBox="0 0 769 422" fill="none" xmlns="http://www.w3.org/2000/svg">
<g clip-path="url(#clip0_824_7465)">
<path d="M127.872 179.153L41.814 154.983L9.53685 202.352C30.258 191.962 42.7773 183.406 57.0656 192.612C83.0421 205.38 97.4101 212.78 119.887 230.01L66.1594 247.977C85.5939 251.569 109.168 255.308 125.353 281.13C145.395 280.407 208.641 292.905 227.746 289.155L344.132 270.555L468.584 220.114L605.784 158.791C667.075 170.399 766.356 192.761 766.356 192.761L655.492 121.5L634.204 130.128L568.541 118.646L444.049 159.579L356.083 149.517L485.921 131.179L415.656 117.752L605.46 82.7288L714.443 97.6069L522.123 4.12074C465.738 25.8062 408.117 44.152 371.309 27.1505L248.644 34.9614L207.245 97.4566L209.044 134.824L189.867 176.883C169.248 164.77 150.89 168.154 127.872 179.153Z" fill="#0B090A"/>
<path d="M127.872 179.153L41.814 154.983L9.53685 202.352C30.258 191.962 42.7773 183.406 57.0656 192.612M127.872 179.153C107.61 194.304 93.8314 199.289 57.0656 192.612M127.872 179.153L119.887 230.01M127.872 179.153C150.89 168.154 169.248 164.77 189.867 176.883L209.044 134.824M57.0656 192.612C83.0421 205.38 97.4101 212.78 119.887 230.01M119.887 230.01L66.1594 247.977C85.5939 251.569 109.168 255.308 125.353 281.13M119.887 230.01C119.887 230.01 137.398 259.104 125.353 281.13M125.353 281.13C145.395 280.407 208.641 292.905 227.746 289.155L344.132 270.555M344.132 270.555L530.552 288.334L575.833 367.128M344.132 270.555L468.584 220.114M575.833 367.128L470.206 369.938L472.669 408.941M575.833 367.128L540.863 398.445L542.933 422.369M575.833 367.128L513.607 392.349L502.577 421.582M468.584 220.114L604.24 258.468L662.541 312.936L717.134 344.145M468.584 220.114L605.784 158.791C667.075 170.399 766.356 192.761 766.356 192.761L655.492 121.5L634.204 130.128L568.541 118.646L444.049 159.579L356.083 149.517L485.921 131.179L415.656 117.752M717.134 344.145L668.008 364.056L668.129 392.579M717.134 344.145L638.059 341.907L617.245 384.631M717.134 344.145L611.737 324.003L598.677 338.821M209.044 134.824L207.245 97.4566L248.644 34.9614L371.309 27.1505C408.117 44.152 465.738 25.8062 522.123 4.12074L714.443 97.6069L605.46 82.7288M209.044 134.824L246.247 165.461L294.791 162.93M415.656 117.752L605.46 82.7288M415.656 117.752L344.417 106.624M605.46 82.7288L499.793 76.031" stroke="#D40000" stroke-width="6"/>
<circle cx="9" cy="9" r="12" transform="matrix(-0.926771 0.375628 0.375628 0.926771 159.578 186.516)" fill="#0B090A" stroke="#D40000" stroke-width="6"/>
</g>
<defs>
<clipPath id="clip0_824_7465">
<rect width="769" height="422" fill="white"/>
</clipPath>
</defs>
</svg>
