<svg width="838" height="718" viewBox="0 0 838 718" fill="none" xmlns="http://www.w3.org/2000/svg">
<path d="M142.87 302.153L56.8123 277.983L24.5351 325.352C45.2563 314.962 57.7756 306.406 72.0639 315.612C98.0404 328.38 112.408 335.78 134.885 353.01L81.1577 370.977C100.592 374.569 124.166 378.308 140.352 404.13C160.393 403.407 223.64 415.905 242.744 412.155L359.13 393.555L483.582 343.114L620.782 281.791C682.073 293.399 781.354 315.761 781.354 315.761L670.49 244.5L649.203 253.128L583.539 241.646L459.047 282.579L371.081 272.517L500.919 254.179L430.655 240.752L620.458 205.729L729.441 220.607L537.122 127.121C480.737 148.806 423.115 167.152 386.307 150.15L263.642 157.961L222.243 220.457L224.043 257.824L204.866 299.883C184.246 287.77 165.888 291.154 142.87 302.153Z" fill="#0B090A"/>
<path d="M142.87 302.153L56.8123 277.983L24.5351 325.352C45.2563 314.962 57.7756 306.406 72.0639 315.612M142.87 302.153C122.609 317.304 108.83 322.289 72.0639 315.612M142.87 302.153L134.885 353.01M142.87 302.153C165.888 291.154 184.246 287.77 204.866 299.883L224.043 257.824M72.0639 315.612C98.0404 328.38 112.408 335.78 134.885 353.01M134.885 353.01L81.1577 370.977C100.592 374.569 124.166 378.308 140.352 404.13M134.885 353.01C134.885 353.01 152.396 382.104 140.352 404.13M140.352 404.13C160.393 403.407 223.64 415.905 242.744 412.155L359.13 393.555M359.13 393.555L545.55 411.334L590.831 490.128M359.13 393.555L483.582 343.114M590.831 490.128L485.205 492.938L487.667 531.941M590.831 490.128L555.861 521.445L557.932 545.369M590.831 490.128L528.605 515.349L517.575 544.582M483.582 343.114L619.239 381.468L677.539 435.936L732.132 467.145M483.582 343.114L620.782 281.791C682.073 293.399 781.354 315.761 781.354 315.761L670.49 244.5L649.203 253.128L583.539 241.646L459.047 282.579L371.081 272.517L500.919 254.179L430.655 240.752M732.132 467.145L683.006 487.056L683.128 515.579M732.132 467.145L653.057 464.907L632.243 507.631M732.132 467.145L626.735 447.003L613.676 461.821M224.043 257.824L222.243 220.457L263.642 157.961L386.307 150.15C423.115 167.152 480.737 148.806 537.122 127.121L729.441 220.607L620.458 205.729M224.043 257.824L261.245 288.461L309.789 285.93M430.655 240.752L620.458 205.729M430.655 240.752L359.416 229.624M620.458 205.729L514.791 199.031" stroke="#D40000" stroke-width="6"/>
<circle cx="9" cy="9" r="12" transform="matrix(-0.926771 0.375628 0.375628 0.926771 174.576 309.516)" fill="#0B090A" stroke="#D40000" stroke-width="6"/>
</svg>
