<svg width="768" height="489" viewBox="0 0 768 489" fill="none" xmlns="http://www.w3.org/2000/svg">
<path d="M127.325 187.153L41.2672 162.983L8.98997 210.352C29.7111 199.962 42.2304 191.406 56.5187 200.612C82.4952 213.38 96.8632 220.78 119.34 238.01L65.6125 255.977C85.047 259.569 108.621 263.308 124.807 289.13C144.848 288.407 208.094 300.905 227.199 297.155L343.585 278.555L468.037 228.114L605.237 166.791C666.528 178.399 765.809 200.761 765.809 200.761L654.945 129.5L633.657 138.128L567.994 126.646L443.502 167.579L355.536 157.517L485.374 139.179L415.109 125.752L604.913 90.7288L713.896 105.607L521.576 12.1207C465.192 33.8062 407.57 52.152 370.762 35.1505L248.097 42.9614L206.698 105.457L208.497 142.824L189.32 184.883C168.701 172.77 150.343 176.154 127.325 187.153Z" fill="#0B090A"/>
<path d="M127.325 187.153L41.2672 162.983L8.98997 210.352C29.7111 199.962 42.2304 191.406 56.5187 200.612M127.325 187.153C107.063 202.304 93.2845 207.289 56.5187 200.612M127.325 187.153L119.34 238.01M127.325 187.153C150.343 176.154 168.701 172.77 189.32 184.883L208.497 142.824M56.5187 200.612C82.4952 213.38 96.8632 220.78 119.34 238.01M119.34 238.01L65.6125 255.977C85.047 259.569 108.621 263.308 124.807 289.13M119.34 238.01C119.34 238.01 136.851 267.104 124.807 289.13M124.807 289.13C144.848 288.407 208.094 300.905 227.199 297.155L343.585 278.555M343.585 278.555L530.005 296.334L575.286 375.128M343.585 278.555L468.037 228.114M575.286 375.128L469.659 377.938L472.122 416.941M575.286 375.128L540.316 406.445L542.386 430.369M575.286 375.128L513.06 400.349L502.03 429.582M468.037 228.114L603.694 266.468L661.994 320.936L716.587 352.145M468.037 228.114L605.237 166.791C666.528 178.399 765.809 200.761 765.809 200.761L654.945 129.5L633.657 138.128L567.994 126.646L443.502 167.579L355.536 157.517L485.374 139.179L415.109 125.752M716.587 352.145L667.461 372.056L667.583 400.579M716.587 352.145L637.512 349.907L616.698 392.631M716.587 352.145L611.19 332.003L598.131 346.821M208.497 142.824L206.698 105.457L248.097 42.9614L370.762 35.1505C407.57 52.152 465.192 33.8062 521.576 12.1207L713.896 105.607L604.913 90.7288M208.497 142.824L245.7 173.461L294.244 170.93M415.109 125.752L604.913 90.7288M415.109 125.752L343.871 114.624M604.913 90.7288L499.246 84.031" stroke="#D40000" stroke-width="6"/>
<circle cx="9" cy="9" r="12" transform="matrix(-0.926771 0.375628 0.375628 0.926771 159.031 194.516)" fill="#0B090A" stroke="#D40000" stroke-width="6"/>
</svg>
