<svg width="719" height="494" viewBox="0 0 719 494" fill="none" xmlns="http://www.w3.org/2000/svg">
<path d="M129.665 91.5836L58.988 36.8579L11.2812 68.6341C34.3878 66.7884 49.2041 63.5617 58.988 77.4608C78.2664 99.0509 88.8026 111.306 103.161 135.717L46.6196 132.186C63.2812 142.816 83.7248 155.136 89.0256 185.147C107.871 192.005 161.791 227.345 180.905 231.046L295.755 257.526H430.041L580.229 252.23C632.67 286.011 716.281 344.028 716.281 344.028L640.304 236.342H617.334L560.793 201.035L430.041 192.208L352.296 149.84L479.514 181.616L419.439 142.779L608.499 181.616L703.913 236.342L560.793 77.4608C500.391 76.3785 440.098 71.7367 412.371 42.1539L295.755 3.31641L233.913 45.6846L221.544 80.9915L187.973 112.768C173.413 93.7958 155.129 90.0366 129.665 91.5836Z" fill="#0B090A"/>
<path d="M129.665 91.5836L58.988 36.8579L11.2812 68.6341C34.3878 66.7884 49.2041 63.5617 58.988 77.4608M129.665 91.5836C105.196 98.0145 90.5536 97.4585 58.988 77.4608M129.665 91.5836L103.161 135.717M129.665 91.5836C155.129 90.0366 173.413 93.7958 187.973 112.768L221.544 80.9915M58.988 77.4608C78.2664 99.0509 88.8025 111.306 103.161 135.717M103.161 135.717L46.6196 132.186C63.2812 142.816 83.7248 155.136 89.0256 185.147M103.161 135.717C103.161 135.717 108.462 169.259 89.0256 185.147M89.0256 185.147C107.871 192.005 161.791 227.345 180.905 231.046L295.755 257.526M295.755 257.526L461.845 344.028L474.214 434.06M295.755 257.526H430.041M474.214 434.06L375.266 396.988L362.898 434.06M474.214 434.06L430.041 449.948L422.973 472.898M474.214 434.06H407.071L385.868 457.01M430.041 257.526L541.356 344.028L574.928 416.407L613.8 465.836M430.041 257.526L580.229 252.23C632.67 286.011 716.281 344.028 716.281 344.028L640.304 236.342H617.334L560.793 201.035L430.041 192.208L352.296 149.84L479.514 181.616L419.439 142.779M613.8 465.836H560.793L550.191 492.316M613.8 465.836L541.356 434.06L506.018 465.836M613.8 465.836L523.687 407.58L506.018 416.407M221.544 80.9915L233.913 45.6846L295.755 3.31641L412.371 42.1539C440.098 71.7367 500.391 76.3785 560.793 77.4608L703.913 236.342L608.499 181.616M221.544 80.9915L244.514 123.36L290.454 139.248M419.439 142.779L608.499 181.616M419.439 142.779L357.597 105.706M608.499 181.616L513.086 135.717" stroke="#D40000" stroke-width="6"/>
<circle cx="9" cy="9" r="12" transform="matrix(-1 0 0 1 156.281 110.316)" fill="#0B090A" stroke="#D40000" stroke-width="6"/>
</svg>
