<svg width="89" height="99" viewBox="0 0 89 99" fill="none" xmlns="http://www.w3.org/2000/svg">
<path d="M79.9461 49.1746L69.785 49.2411L71.3125 0L81.1225 0.510771L79.9461 49.1746Z" fill="#D40000"/>
<path d="M19.9561 53.093L9.91133 54.6149L4.28125 5.66797L14.0623 4.76856L19.9561 53.093Z" fill="#D40000"/>
<path d="M51.0557 26.1855L36.8359 26.0508V98.9961H51.21L51.0557 26.1855Z" fill="#D40000"/>
<path d="M89 75.3447H76.9844L75.8916 82.7354L46.2168 78.3848L45.333 83.0537L11.6172 78.4912V75.3447H0V86.1309L48.9951 92.3906L49.8789 87.6162L86.2461 93.0273L89 75.3447Z" fill="#D40000"/>
<path d="M78.3408 9.24902H71.2695V66.0127L55.001 26.0498H47.4316L71.2695 83.5195H78.3408V9.24902ZM41.1221 26.0498H33.7305L17.7285 66.0127V35.4551L10.5312 41.4238V83.5195H17.7285L41.1221 26.0498Z" fill="#D40000"/>
</svg>
