<svg width="89" height="93" viewBox="0 0 89 93" fill="none" xmlns="http://www.w3.org/2000/svg">
<path d="M79.9383 43.8392L69.7771 43.7726L71.3047 93.0019L81.1146 92.4912L79.9383 43.8392Z" fill="#D40000"/>
<path d="M17.4326 89.8828L18.4289 41.2268L8.28053 40.7125L7.6096 89.9604L17.4326 89.8828Z" fill="#D40000"/>
<path d="M49.7705 80.4872L38.8047 80.621V7.69329H49.8896L49.7705 80.4872Z" fill="#D40000"/>
<path d="M89 17.6796H76.9844L75.8916 10.2919L46.2168 14.6406L45.333 9.97356L11.6172 14.5341V17.6796H0V6.89739L48.9951 0.638603L49.8789 5.41204L86.2461 0.00188446L89 17.6796Z" fill="#D40000"/>
<path d="M78.3486 83.7509H71.2773V26.9999L55.0088 66.954H47.4385L71.2773 9.49798H78.3486V83.7509ZM41.1309 66.954H33.7383L17.7363 26.9999V57.5575L10.5391 51.5898V9.49798H17.7363L41.1309 66.954Z" fill="#D40000"/>
</svg>
