<svg width="98" height="106" viewBox="0 0 98 106" fill="none" xmlns="http://www.w3.org/2000/svg">
<path d="M45.6044 63.4173L34.1628 69.3799L24.015 12.4255L37.1564 10.4208L45.6044 63.4173Z" fill="#D40000"/>
<path d="M36.7998 81.4834C35.4914 83.9735 34.2332 86.1873 33.0254 88.124C31.8177 89.9684 30.5095 91.5825 29.1006 92.9658C27.6915 94.3492 26.0802 95.5025 24.2686 96.4248C22.5576 97.2547 20.4944 97.9467 18.0791 98.5L12.4922 94.2109C15.6123 93.3809 18.2301 92.0437 20.3438 90.1992C22.558 88.2625 24.3195 86.3254 25.6279 84.3887C27.037 82.3598 27.9929 80.8377 28.4961 79.8232L38.1592 60.5938L36.9619 58.2383L41.6719 49.4492L42.6885 51.4629L68.8076 0H78.168L36.7998 81.4834Z" fill="#D40000"/>
<path d="M90.2428 13.8697L58.3104 77.7251L42.2376 79.4859L78.0245 8.79848L90.2428 13.8697ZM46.9001 56.9327L44.9308 59.2268L46.616 56.6799L46.9001 56.9327Z" fill="#D40000"/>
<path d="M49.4717 88.9863C48.1632 91.4765 46.9051 93.6902 45.6973 95.627C44.4895 97.4713 43.1815 99.0854 41.7725 100.469C40.3633 101.852 38.7522 103.005 36.9404 103.928C35.2295 104.758 33.1663 105.45 30.751 106.003L25.1641 101.714C28.2843 100.884 30.9019 99.5467 33.0156 97.7021C35.2299 95.7654 36.9913 93.8284 38.2998 91.8916C39.7089 89.8626 40.6647 88.3407 41.168 87.3262L47.9688 73.793H57.1855L49.4717 88.9863Z" fill="#D40000"/>
</svg>
