<svg width="68" height="103" viewBox="0 0 68 103" fill="none" xmlns="http://www.w3.org/2000/svg">
<path d="M59.7783 88.415L1.47461 95.9492L0 86.5322L49.2295 80.1064L48.583 66.7422H58.9795L59.7783 88.415Z" fill="#0B090A"/>
<path d="M17.7139 27.6836C17.5802 28.3577 17.5117 29.0792 17.5117 29.8486C17.5117 31.9903 18.0663 33.8368 19.1758 35.3877C20.3594 36.8648 21.9135 38.1952 23.8369 39.377C25.8342 40.5586 28.0166 41.6662 30.3838 42.7002C32.825 43.7342 35.3405 44.8053 37.9297 45.9131C40.519 46.9471 42.9979 48.1286 45.3652 49.458C47.8065 50.7874 49.9887 52.3388 51.9121 54.1113C53.9095 55.8839 55.4636 58.0259 56.5732 60.5371C57.7568 62.9744 58.3486 65.8551 58.3486 69.1787C58.3486 69.4864 58.3415 69.7908 58.332 70.0918H49.4111C49.4501 69.6154 49.4707 69.1264 49.4707 68.625C49.4707 66.2616 48.8789 64.23 47.6953 62.5312C46.5856 60.8326 45.0689 59.3187 43.1455 57.9893C41.2221 56.6598 39.0399 55.4409 36.5986 54.333C34.2313 53.2251 31.7897 52.1541 29.2744 51.1201C26.7592 50.0861 24.2811 48.9411 21.8398 47.6855C19.3985 46.43 17.2154 45.0266 15.292 43.4756C13.3687 41.8508 11.8518 39.967 10.7422 37.8252C9.63265 35.6834 9.07816 33.1722 9.07812 30.292C9.07812 29.3874 9.12997 28.518 9.23047 27.6836H17.7139Z" fill="#0B090A"/>
<path d="M65.4072 26.0645L17.6904 34.373L40.084 49.3154H23.1611L2.82031 35.2598L6.48242 26.9502L63.8535 16.4258L65.4072 26.0645Z" fill="#0B090A"/>
<path d="M68.0078 43.9932H58.3262L52.6875 1.44043L62.1191 0L68.0078 43.9932Z" fill="#0B090A"/>
<path d="M14.1455 103.005H7.02344L2.875 73.7021L9.81445 72.7109L14.1455 103.005Z" fill="#0B090A"/>
</svg>
