<svg width="8119" height="512" viewBox="0 0 8119 512" fill="none" xmlns="http://www.w3.org/2000/svg">
<rect width="109.175" height="26.9923" transform="matrix(-1 0 0 1 5298.92 215.938)" fill="#FFD449"/>
<rect width="109.175" height="26.9923" transform="matrix(-1 0 0 1 5185.84 215.938)" fill="#FFD449"/>
<rect width="109.175" height="26.9923" transform="matrix(-1 0 0 1 4620.48 215.938)" fill="#FFD449"/>
<rect width="109.175" height="26.9923" transform="matrix(-1 0 0 1 4507.41 154.242)" fill="#FFD449"/>
<rect width="109.175" height="26.9923" transform="matrix(-1 0 0 1 5412 154.242)" fill="#FFD449"/>
<rect width="109.175" height="26.9923" transform="matrix(-1 0 0 1 5185.84 92.5547)" fill="#FFD449"/>
<rect width="109.175" height="26.9923" transform="matrix(-1 0 0 1 4620.48 92.5547)" fill="#FFD449"/>
<rect width="109.175" height="26.9923" transform="matrix(-1 0 0 1 4507.41 30.8438)" fill="#FFD449"/>
<rect width="109.175" height="26.9923" transform="matrix(-1 0 0 1 5412 30.8438)" fill="#FFD449"/>
<rect width="109.175" height="26.9923" transform="matrix(-1 0 0 1 5298.92 185.094)" fill="#FFD449"/>
<rect width="109.175" height="26.9923" transform="matrix(-1 0 0 1 5185.84 185.094)" fill="#FFD449"/>
<rect width="109.175" height="26.9923" transform="matrix(-1 0 0 1 4620.48 185.094)" fill="#FFD449"/>
<rect width="109.175" height="26.9923" transform="matrix(-1 0 0 1 4507.41 123.391)" fill="#FFD449"/>
<rect width="109.175" height="26.9923" transform="matrix(-1 0 0 1 5412 123.391)" fill="#FFD449"/>
<rect width="109.175" height="26.9923" transform="matrix(-1 0 0 1 5072.77 215.938)" fill="#FFD449"/>
<rect width="109.175" height="26.9923" transform="matrix(-1 0 0 1 5185.84 61.7031)" fill="#FFD449"/>
<rect width="109.175" height="26.9923" transform="matrix(-1 0 0 1 4620.48 61.7031)" fill="#FFD449"/>
<rect width="109.175" height="26.9923" transform="matrix(-1 0 0 1 4507.41 0)" fill="#FFD449"/>
<rect width="109.175" height="26.9923" transform="matrix(-1 0 0 1 5412 0)" fill="#FFD449"/>
<rect width="109.175" height="26.9923" transform="matrix(-1 0 0 1 5298.92 154.242)" fill="#FFD449"/>
<rect width="109.175" height="26.9923" transform="matrix(-1 0 0 1 5185.84 154.242)" fill="#FFD449"/>
<rect width="109.175" height="26.9923" transform="matrix(-1 0 0 1 4620.48 154.242)" fill="#FFD449"/>
<rect width="109.175" height="26.9923" transform="matrix(-1 0 0 1 4507.41 92.5547)" fill="#FFD449"/>
<rect width="109.175" height="26.9923" transform="matrix(-1 0 0 1 5412 92.5547)" fill="#FFD449"/>
<rect width="109.175" height="26.9923" transform="matrix(-1 0 0 1 5072.77 185.094)" fill="#FFD449"/>
<rect width="109.175" height="26.9923" transform="matrix(-1 0 0 1 4846.63 215.938)" fill="#FFD449"/>
<rect width="109.175" height="26.9923" transform="matrix(-1 0 0 1 4168.17 215.938)" fill="#FFD449"/>
<rect width="109.175" height="26.9923" transform="matrix(-1 0 0 1 4394.34 215.938)" fill="#FFD449"/>
<rect width="109.175" height="26.9923" transform="matrix(-1 0 0 1 4507.41 215.938)" fill="#FFD449"/>
<rect width="109.175" height="26.9923" transform="matrix(-1 0 0 1 5412 215.938)" fill="#FFD449"/>
<rect width="109.175" height="26.9923" transform="matrix(-1 0 0 1 4733.55 215.938)" fill="#FFD449"/>
<rect width="109.175" height="26.9923" transform="matrix(-1 0 0 1 4281.25 215.938)" fill="#FFD449"/>
<rect width="109.175" height="26.9923" transform="matrix(-1 0 0 1 4733.55 154.242)" fill="#FFD449"/>
<rect width="109.175" height="26.9923" transform="matrix(-1 0 0 1 4281.25 154.242)" fill="#FFD449"/>
<rect width="109.175" height="26.9923" transform="matrix(-1 0 0 1 5072.77 154.242)" fill="#FFD449"/>
<rect width="109.175" height="26.9923" transform="matrix(-1 0 0 1 4846.63 185.094)" fill="#FFD449"/>
<rect width="109.175" height="26.9923" transform="matrix(-1 0 0 1 4168.17 185.094)" fill="#FFD449"/>
<rect width="109.175" height="26.9923" transform="matrix(-1 0 0 1 4394.34 185.094)" fill="#FFD449"/>
<rect width="109.175" height="26.9923" transform="matrix(-1 0 0 1 4394.34 154.242)" fill="#FFD449"/>
<rect width="109.175" height="26.9923" transform="matrix(-1 0 0 1 4507.41 185.094)" fill="#FFD449"/>
<rect width="109.175" height="26.9923" transform="matrix(-1 0 0 1 5412 185.094)" fill="#FFD449"/>
<rect width="109.175" height="26.9923" transform="matrix(-1 0 0 1 4733.55 185.094)" fill="#FFD449"/>
<rect width="109.175" height="26.9923" transform="matrix(-1 0 0 1 4281.25 185.094)" fill="#FFD449"/>
<rect width="109.175" height="26.9923" transform="matrix(-1 0 0 1 4733.55 123.391)" fill="#FFD449"/>
<rect width="109.175" height="26.9923" transform="matrix(-1 0 0 1 4281.25 123.391)" fill="#FFD449"/>
<rect width="109.175" height="26.9923" transform="matrix(-1 0 0 1 4733.55 92.5547)" fill="#FFD449"/>
<rect width="109.175" height="26.9923" transform="matrix(-1 0 0 1 4959.7 215.938)" fill="#FFD449"/>
<rect width="109.175" height="26.9923" transform="matrix(-1 0 0 1 5298.92 123.391)" fill="#FFD449"/>
<rect width="109.175" height="26.9923" transform="matrix(-1 0 0 1 5185.84 123.391)" fill="#FFD449"/>
<rect width="109.175" height="26.9923" transform="matrix(-1 0 0 1 4620.48 123.391)" fill="#FFD449"/>
<rect width="109.175" height="26.9923" transform="matrix(-1 0 0 1 4507.41 61.7031)" fill="#FFD449"/>
<rect width="109.175" height="26.9923" transform="matrix(-1 0 0 1 5412 61.7031)" fill="#FFD449"/>
<rect x="5298.92" y="295.914" width="109.175" height="26.9923" transform="rotate(180 5298.92 295.914)" fill="#FFD449"/>
<rect x="5185.84" y="295.914" width="109.175" height="26.9923" transform="rotate(180 5185.84 295.914)" fill="#FFD449"/>
<rect x="4620.48" y="295.914" width="109.175" height="26.9923" transform="rotate(180 4620.48 295.914)" fill="#FFD449"/>
<rect x="4507.41" y="357.609" width="109.175" height="26.9923" transform="rotate(180 4507.41 357.609)" fill="#FFD449"/>
<rect x="5412" y="357.609" width="109.175" height="26.9923" transform="rotate(180 5412 357.609)" fill="#FFD449"/>
<rect x="5185.84" y="419.297" width="109.175" height="26.9923" transform="rotate(180 5185.84 419.297)" fill="#FFD449"/>
<rect x="4620.48" y="419.297" width="109.175" height="26.9923" transform="rotate(180 4620.48 419.297)" fill="#FFD449"/>
<rect x="4507.41" y="481.008" width="109.175" height="26.9923" transform="rotate(180 4507.41 481.008)" fill="#FFD449"/>
<rect x="5412" y="481.008" width="109.175" height="26.9923" transform="rotate(180 5412 481.008)" fill="#FFD449"/>
<rect x="5298.92" y="326.758" width="109.175" height="26.9923" transform="rotate(180 5298.92 326.758)" fill="#FFD449"/>
<rect x="5185.84" y="326.758" width="109.175" height="26.9923" transform="rotate(180 5185.84 326.758)" fill="#FFD449"/>
<rect x="4620.48" y="326.758" width="109.175" height="26.9923" transform="rotate(180 4620.48 326.758)" fill="#FFD449"/>
<rect x="4507.41" y="388.461" width="109.175" height="26.9923" transform="rotate(180 4507.41 388.461)" fill="#FFD449"/>
<rect x="5412" y="388.461" width="109.175" height="26.9923" transform="rotate(180 5412 388.461)" fill="#FFD449"/>
<rect x="5072.77" y="295.914" width="109.175" height="26.9923" transform="rotate(180 5072.77 295.914)" fill="#FFD449"/>
<rect x="5185.84" y="450.148" width="109.175" height="26.9923" transform="rotate(180 5185.84 450.148)" fill="#FFD449"/>
<rect x="4620.48" y="450.148" width="109.175" height="26.9923" transform="rotate(180 4620.48 450.148)" fill="#FFD449"/>
<rect x="4507.41" y="511.852" width="109.175" height="26.9923" transform="rotate(180 4507.41 511.852)" fill="#FFD449"/>
<rect x="5412" y="511.852" width="109.175" height="26.9923" transform="rotate(180 5412 511.852)" fill="#FFD449"/>
<rect x="5298.92" y="357.609" width="109.175" height="26.9923" transform="rotate(180 5298.92 357.609)" fill="#FFD449"/>
<rect x="5185.84" y="357.609" width="109.175" height="26.9923" transform="rotate(180 5185.84 357.609)" fill="#FFD449"/>
<rect x="4620.48" y="357.609" width="109.175" height="26.9923" transform="rotate(180 4620.48 357.609)" fill="#FFD449"/>
<rect x="4507.41" y="419.297" width="109.175" height="26.9923" transform="rotate(180 4507.41 419.297)" fill="#FFD449"/>
<rect x="5412" y="419.297" width="109.175" height="26.9923" transform="rotate(180 5412 419.297)" fill="#FFD449"/>
<rect x="5072.77" y="326.758" width="109.175" height="26.9923" transform="rotate(180 5072.77 326.758)" fill="#FFD449"/>
<rect x="4846.63" y="295.914" width="109.175" height="26.9923" transform="rotate(180 4846.63 295.914)" fill="#FFD449"/>
<rect x="4168.17" y="295.914" width="109.175" height="26.9923" transform="rotate(180 4168.17 295.914)" fill="#FFD449"/>
<rect x="4394.34" y="295.914" width="109.175" height="26.9923" transform="rotate(180 4394.34 295.914)" fill="#FFD449"/>
<rect x="4507.41" y="295.914" width="109.175" height="26.9923" transform="rotate(180 4507.41 295.914)" fill="#FFD449"/>
<rect x="5412" y="295.914" width="109.175" height="26.9923" transform="rotate(180 5412 295.914)" fill="#FFD449"/>
<rect x="4733.55" y="295.914" width="109.175" height="26.9923" transform="rotate(180 4733.55 295.914)" fill="#FFD449"/>
<rect x="4281.25" y="295.914" width="109.175" height="26.9923" transform="rotate(180 4281.25 295.914)" fill="#FFD449"/>
<rect x="4733.55" y="357.609" width="109.175" height="26.9923" transform="rotate(180 4733.55 357.609)" fill="#FFD449"/>
<rect x="4281.25" y="357.609" width="109.175" height="26.9923" transform="rotate(180 4281.25 357.609)" fill="#FFD449"/>
<rect x="5072.77" y="357.609" width="109.175" height="26.9923" transform="rotate(180 5072.77 357.609)" fill="#FFD449"/>
<rect x="4846.63" y="326.758" width="109.175" height="26.9923" transform="rotate(180 4846.63 326.758)" fill="#FFD449"/>
<rect x="4168.17" y="326.758" width="109.175" height="26.9923" transform="rotate(180 4168.17 326.758)" fill="#FFD449"/>
<rect x="4394.34" y="326.758" width="109.175" height="26.9923" transform="rotate(180 4394.34 326.758)" fill="#FFD449"/>
<rect x="4394.34" y="357.609" width="109.175" height="26.9923" transform="rotate(180 4394.34 357.609)" fill="#FFD449"/>
<rect x="4507.41" y="326.758" width="109.175" height="26.9923" transform="rotate(180 4507.41 326.758)" fill="#FFD449"/>
<rect x="5412" y="326.758" width="109.175" height="26.9923" transform="rotate(180 5412 326.758)" fill="#FFD449"/>
<rect x="4733.55" y="326.758" width="109.175" height="26.9923" transform="rotate(180 4733.55 326.758)" fill="#FFD449"/>
<rect x="4281.25" y="326.758" width="109.175" height="26.9923" transform="rotate(180 4281.25 326.758)" fill="#FFD449"/>
<rect x="4733.55" y="388.461" width="109.175" height="26.9923" transform="rotate(180 4733.55 388.461)" fill="#FFD449"/>
<rect x="4281.25" y="388.461" width="109.175" height="26.9923" transform="rotate(180 4281.25 388.461)" fill="#FFD449"/>
<rect x="4733.55" y="419.297" width="109.175" height="26.9923" transform="rotate(180 4733.55 419.297)" fill="#FFD449"/>
<rect x="4281.25" y="419.297" width="109.175" height="26.9923" transform="rotate(180 4281.25 419.297)" fill="#FFD449"/>
<rect x="4959.7" y="295.914" width="109.175" height="26.9923" transform="rotate(180 4959.7 295.914)" fill="#FFD449"/>
<rect x="5298.92" y="388.461" width="109.175" height="26.9923" transform="rotate(180 5298.92 388.461)" fill="#FFD449"/>
<rect x="5185.84" y="388.461" width="109.175" height="26.9923" transform="rotate(180 5185.84 388.461)" fill="#FFD449"/>
<rect x="4620.48" y="388.461" width="109.175" height="26.9923" transform="rotate(180 4620.48 388.461)" fill="#FFD449"/>
<rect x="4507.41" y="450.148" width="109.175" height="26.9923" transform="rotate(180 4507.41 450.148)" fill="#FFD449"/>
<rect x="5412" y="450.148" width="109.175" height="26.9923" transform="rotate(180 5412 450.148)" fill="#FFD449"/>
<rect x="5525.06" y="215.938" width="109.175" height="26.9923" fill="#FFD449"/>
<rect x="5638.15" y="215.938" width="109.175" height="26.9923" fill="#FFD449"/>
<rect x="6203.51" y="215.938" width="109.175" height="26.9923" fill="#FFD449"/>
<rect x="6316.57" y="154.242" width="109.175" height="26.9923" fill="#FFD449"/>
<rect x="5411.98" y="154.242" width="109.175" height="26.9923" fill="#FFD449"/>
<rect x="5638.15" y="92.5547" width="109.175" height="26.9923" fill="#FFD449"/>
<rect x="6203.51" y="92.5547" width="109.175" height="26.9923" fill="#FFD449"/>
<rect x="6316.57" y="30.8438" width="109.175" height="26.9923" fill="#FFD449"/>
<rect x="5525.06" y="185.094" width="109.175" height="26.9923" fill="#FFD449"/>
<rect x="5638.15" y="185.094" width="109.175" height="26.9923" fill="#FFD449"/>
<rect x="6203.51" y="185.094" width="109.175" height="26.9923" fill="#FFD449"/>
<rect x="6316.57" y="123.391" width="109.175" height="26.9923" fill="#FFD449"/>
<rect x="5411.98" y="123.391" width="109.175" height="26.9923" fill="#FFD449"/>
<rect x="5751.21" y="215.938" width="109.175" height="26.9923" fill="#FFD449"/>
<rect x="5638.15" y="61.7031" width="109.175" height="26.9923" fill="#FFD449"/>
<rect x="5637.98" y="30.9922" width="109.175" height="26.9923" fill="#FFD449"/>
<rect x="6316.57" width="109.175" height="26.9923" fill="#FFD449"/>
<rect x="5525.06" y="154.242" width="109.175" height="26.9923" fill="#FFD449"/>
<rect x="5638.15" y="154.242" width="109.175" height="26.9923" fill="#FFD449"/>
<rect x="6203.51" y="154.242" width="109.175" height="26.9923" fill="#FFD449"/>
<rect x="6316.57" y="92.5547" width="109.175" height="26.9923" fill="#FFD449"/>
<rect x="5411.98" y="92.5547" width="109.175" height="26.9923" fill="#FFD449"/>
<rect x="5751.21" y="185.094" width="109.175" height="26.9923" fill="#FFD449"/>
<rect x="5977.35" y="215.938" width="109.175" height="26.9923" fill="#FFD449"/>
<rect x="6655.81" y="215.938" width="109.175" height="26.9923" fill="#FFD449"/>
<rect x="6429.64" y="215.938" width="109.175" height="26.9923" fill="#FFD449"/>
<rect x="6316.57" y="215.938" width="109.175" height="26.9923" fill="#FFD449"/>
<rect x="5411.98" y="215.938" width="109.175" height="26.9923" fill="#FFD449"/>
<rect x="6090.44" y="215.938" width="109.175" height="26.9923" fill="#FFD449"/>
<rect x="6542.73" y="215.938" width="109.175" height="26.9923" fill="#FFD449"/>
<rect x="6090.44" y="154.242" width="109.175" height="26.9923" fill="#FFD449"/>
<rect x="6542.73" y="154.242" width="109.175" height="26.9923" fill="#FFD449"/>
<rect x="5751.21" y="154.242" width="109.175" height="26.9923" fill="#FFD449"/>
<rect x="5977.35" y="185.094" width="109.175" height="26.9923" fill="#FFD449"/>
<rect x="6655.81" y="185.094" width="109.175" height="26.9923" fill="#FFD449"/>
<rect x="6429.64" y="185.094" width="109.175" height="26.9923" fill="#FFD449"/>
<rect x="6429.64" y="154.242" width="109.175" height="26.9923" fill="#FFD449"/>
<rect x="6316.57" y="185.094" width="109.175" height="26.9923" fill="#FFD449"/>
<rect x="5411.98" y="185.094" width="109.175" height="26.9923" fill="#FFD449"/>
<rect x="6090.44" y="185.094" width="109.175" height="26.9923" fill="#FFD449"/>
<rect x="6542.73" y="185.094" width="109.175" height="26.9923" fill="#FFD449"/>
<rect x="6090.44" y="123.391" width="109.175" height="26.9923" fill="#FFD449"/>
<rect x="6542.73" y="123.391" width="109.175" height="26.9923" fill="#FFD449"/>
<rect x="6542.73" y="92.5547" width="109.175" height="26.9923" fill="#FFD449"/>
<rect x="5864.28" y="215.938" width="109.175" height="26.9923" fill="#FFD449"/>
<rect x="5863.98" y="184.945" width="109.175" height="26.9923" fill="#FFD449"/>
<rect x="5863.98" y="153.953" width="109.175" height="26.9923" fill="#FFD449"/>
<rect x="5863.98" y="122.961" width="109.175" height="26.9923" fill="#FFD449"/>
<rect x="5863.98" y="91.9766" width="109.175" height="26.9923" fill="#FFD449"/>
<rect x="5525.06" y="123.391" width="109.175" height="26.9923" fill="#FFD449"/>
<rect x="5638.15" y="123.391" width="109.175" height="26.9923" fill="#FFD449"/>
<rect x="6203.51" y="123.391" width="109.175" height="26.9923" fill="#FFD449"/>
<rect x="6316.57" y="61.7031" width="109.175" height="26.9923" fill="#FFD449"/>
<rect width="109.255" height="26.9923" transform="matrix(1 0 0 -1 5525.15 295.914)" fill="#FFD449"/>
<rect width="109.255" height="26.9923" transform="matrix(1 0 0 -1 5638.31 295.914)" fill="#FFD449"/>
<rect width="109.255" height="26.9923" transform="matrix(1 0 0 -1 6204.09 295.914)" fill="#FFD449"/>
<rect width="109.255" height="26.9923" transform="matrix(1 0 0 -1 6317.24 357.609)" fill="#FFD449"/>
<rect width="109.255" height="26.9923" transform="matrix(1 0 0 -1 5411.98 357.609)" fill="#FFD449"/>
<rect width="109.255" height="26.9923" transform="matrix(1 0 0 -1 5638.31 419.297)" fill="#FFD449"/>
<rect width="109.255" height="26.9923" transform="matrix(1 0 0 -1 6204.09 419.297)" fill="#FFD449"/>
<rect width="109.255" height="26.9923" transform="matrix(1 0 0 -1 6317.24 481.008)" fill="#FFD449"/>
<rect width="109.255" height="26.9923" transform="matrix(1 0 0 -1 5525.15 326.758)" fill="#FFD449"/>
<rect width="109.255" height="26.9923" transform="matrix(1 0 0 -1 5638.31 326.758)" fill="#FFD449"/>
<rect width="109.255" height="26.9923" transform="matrix(1 0 0 -1 6204.09 326.758)" fill="#FFD449"/>
<rect width="109.255" height="26.9923" transform="matrix(1 0 0 -1 6317.24 388.461)" fill="#FFD449"/>
<rect width="109.255" height="26.9923" transform="matrix(1 0 0 -1 5411.98 388.461)" fill="#FFD449"/>
<rect width="109.255" height="26.9923" transform="matrix(1 0 0 -1 5751.46 295.914)" fill="#FFD449"/>
<rect width="109.255" height="26.9923" transform="matrix(1 0 0 -1 5638.31 450.148)" fill="#FFD449"/>
<rect width="109.255" height="26.9923" transform="matrix(1 0 0 -1 5638.15 480.859)" fill="#FFD449"/>
<rect width="109.255" height="26.9923" transform="matrix(1 0 0 -1 6317.24 511.852)" fill="#FFD449"/>
<rect width="109.255" height="26.9923" transform="matrix(1 0 0 -1 5525.15 357.609)" fill="#FFD449"/>
<rect width="109.255" height="26.9923" transform="matrix(1 0 0 -1 5638.31 357.609)" fill="#FFD449"/>
<rect width="109.255" height="26.9923" transform="matrix(1 0 0 -1 6204.09 357.609)" fill="#FFD449"/>
<rect width="109.255" height="26.9923" transform="matrix(1 0 0 -1 6317.24 419.297)" fill="#FFD449"/>
<rect width="109.255" height="26.9923" transform="matrix(1 0 0 -1 5411.98 419.297)" fill="#FFD449"/>
<rect width="109.255" height="26.9923" transform="matrix(1 0 0 -1 5751.46 326.758)" fill="#FFD449"/>
<rect width="109.255" height="26.9923" transform="matrix(1 0 0 -1 5977.77 295.914)" fill="#FFD449"/>
<rect width="109.255" height="26.9923" transform="matrix(1 0 0 -1 6656.73 295.914)" fill="#FFD449"/>
<rect width="109.255" height="26.9923" transform="matrix(1 0 0 -1 6430.39 295.914)" fill="#FFD449"/>
<rect width="109.255" height="26.9923" transform="matrix(1 0 0 -1 6317.24 295.914)" fill="#FFD449"/>
<rect width="109.255" height="26.9923" transform="matrix(1 0 0 -1 5411.98 295.914)" fill="#FFD449"/>
<rect width="109.255" height="26.9923" transform="matrix(1 0 0 -1 6090.94 295.914)" fill="#FFD449"/>
<rect width="109.255" height="26.9923" transform="matrix(1 0 0 -1 6543.57 295.914)" fill="#FFD449"/>
<rect width="109.255" height="26.9923" transform="matrix(1 0 0 -1 6090.94 357.609)" fill="#FFD449"/>
<rect width="109.255" height="26.9923" transform="matrix(1 0 0 -1 6543.57 357.609)" fill="#FFD449"/>
<rect width="109.255" height="26.9923" transform="matrix(1 0 0 -1 5751.46 357.609)" fill="#FFD449"/>
<rect width="109.255" height="26.9923" transform="matrix(1 0 0 -1 5977.77 326.758)" fill="#FFD449"/>
<rect width="109.255" height="26.9923" transform="matrix(1 0 0 -1 6656.73 326.758)" fill="#FFD449"/>
<rect width="109.255" height="26.9923" transform="matrix(1 0 0 -1 6430.39 326.758)" fill="#FFD449"/>
<rect width="109.255" height="26.9923" transform="matrix(1 0 0 -1 6430.39 357.609)" fill="#FFD449"/>
<rect width="109.255" height="26.9923" transform="matrix(1 0 0 -1 6317.24 326.758)" fill="#FFD449"/>
<rect width="109.255" height="26.9923" transform="matrix(1 0 0 -1 5411.98 326.758)" fill="#FFD449"/>
<rect width="109.255" height="26.9923" transform="matrix(1 0 0 -1 6090.94 326.758)" fill="#FFD449"/>
<rect width="109.255" height="26.9923" transform="matrix(1 0 0 -1 6543.57 326.758)" fill="#FFD449"/>
<rect width="109.255" height="26.9923" transform="matrix(1 0 0 -1 6090.94 388.461)" fill="#FFD449"/>
<rect width="109.255" height="26.9923" transform="matrix(1 0 0 -1 6543.57 388.461)" fill="#FFD449"/>
<rect width="109.255" height="26.9923" transform="matrix(1 0 0 -1 6543.57 419.297)" fill="#FFD449"/>
<rect width="109.255" height="26.9923" transform="matrix(1 0 0 -1 5864.62 295.914)" fill="#FFD449"/>
<rect width="109.255" height="26.9923" transform="matrix(1 0 0 -1 5864.32 326.906)" fill="#FFD449"/>
<rect width="109.255" height="26.9923" transform="matrix(1 0 0 -1 5864.32 357.898)" fill="#FFD449"/>
<rect width="109.255" height="26.9923" transform="matrix(1 0 0 -1 5864.32 388.891)" fill="#FFD449"/>
<rect width="109.255" height="26.9923" transform="matrix(1 0 0 -1 5864.32 419.875)" fill="#FFD449"/>
<rect width="109.255" height="26.9923" transform="matrix(1 0 0 -1 5525.15 388.461)" fill="#FFD449"/>
<rect width="109.255" height="26.9923" transform="matrix(1 0 0 -1 5638.31 388.461)" fill="#FFD449"/>
<rect width="109.255" height="26.9923" transform="matrix(1 0 0 -1 6204.09 388.461)" fill="#FFD449"/>
<rect width="109.255" height="26.9923" transform="matrix(1 0 0 -1 6317.24 450.148)" fill="#FFD449"/>
<rect width="109.16" height="26.9923" transform="matrix(-1 0 0 1 8005.94 215.938)" fill="#FFD449"/>
<rect width="109.16" height="26.9923" transform="matrix(-1 0 0 1 7892.87 215.938)" fill="#FFD449"/>
<rect width="109.16" height="26.9923" transform="matrix(-1 0 0 1 7327.58 215.938)" fill="#FFD449"/>
<rect width="109.16" height="26.9923" transform="matrix(-1 0 0 1 7214.53 154.242)" fill="#FFD449"/>
<rect width="109.16" height="26.9923" transform="matrix(-1 0 0 1 7892.87 92.5547)" fill="#FFD449"/>
<rect width="109.16" height="26.9923" transform="matrix(-1 0 0 1 7214.53 30.8438)" fill="#FFD449"/>
<rect width="109.16" height="26.9923" transform="matrix(-1 0 0 1 8005.94 185.094)" fill="#FFD449"/>
<rect width="109.16" height="26.9923" transform="matrix(-1 0 0 1 7892.87 185.094)" fill="#FFD449"/>
<rect width="109.16" height="26.9923" transform="matrix(-1 0 0 1 7327.58 185.094)" fill="#FFD449"/>
<rect width="109.16" height="26.9923" transform="matrix(-1 0 0 1 7214.53 123.391)" fill="#FFD449"/>
<rect width="109.16" height="26.9923" transform="matrix(-1 0 0 1 7779.82 215.938)" fill="#FFD449"/>
<rect width="109.16" height="26.9923" transform="matrix(-1 0 0 1 7892.87 61.7031)" fill="#FFD449"/>
<rect width="109.16" height="26.9923" transform="matrix(-1 0 0 1 7214.53 0)" fill="#FFD449"/>
<rect width="109.16" height="26.9923" transform="matrix(-1 0 0 1 8005.94 154.242)" fill="#FFD449"/>
<rect width="109.16" height="26.9923" transform="matrix(-1 0 0 1 7892.87 154.242)" fill="#FFD449"/>
<rect width="109.16" height="26.9923" transform="matrix(-1 0 0 1 7327.58 154.242)" fill="#FFD449"/>
<rect width="109.16" height="26.9923" transform="matrix(-1 0 0 1 7214.53 92.5547)" fill="#FFD449"/>
<rect width="109.16" height="26.9923" transform="matrix(-1 0 0 1 7779.82 185.094)" fill="#FFD449"/>
<rect width="109.16" height="26.9923" transform="matrix(-1 0 0 1 7553.7 215.938)" fill="#FFD449"/>
<rect width="109.16" height="26.9923" transform="matrix(-1 0 0 1 6875.34 215.938)" fill="#FFD449"/>
<rect width="109.16" height="26.9923" transform="matrix(-1 0 0 1 7101.48 215.938)" fill="#FFD449"/>
<rect width="109.16" height="26.9923" transform="matrix(-1 0 0 1 7214.53 215.938)" fill="#FFD449"/>
<rect width="109.16" height="26.9923" transform="matrix(-1 0 0 1 8119 215.938)" fill="#FFD449"/>
<rect width="109.16" height="26.9923" transform="matrix(-1 0 0 1 7440.63 215.938)" fill="#FFD449"/>
<rect width="109.16" height="26.9923" transform="matrix(-1 0 0 1 6988.41 215.938)" fill="#FFD449"/>
<rect width="109.16" height="26.9923" transform="matrix(-1 0 0 1 7440.63 154.242)" fill="#FFD449"/>
<rect width="109.16" height="26.9923" transform="matrix(-1 0 0 1 6988.41 154.242)" fill="#FFD449"/>
<rect width="109.16" height="26.9923" transform="matrix(-1 0 0 1 7553.7 185.094)" fill="#FFD449"/>
<rect width="109.16" height="26.9923" transform="matrix(-1 0 0 1 7554.07 153.953)" fill="#FFD449"/>
<rect width="109.16" height="26.9923" transform="matrix(-1 0 0 1 7554.07 122.961)" fill="#FFD449"/>
<rect width="109.16" height="26.9923" transform="matrix(-1 0 0 1 6875.34 185.094)" fill="#FFD449"/>
<rect width="109.16" height="26.9923" transform="matrix(-1 0 0 1 6875.16 153.953)" fill="#FFD449"/>
<rect width="109.16" height="26.9923" transform="matrix(-1 0 0 1 7101.48 185.094)" fill="#FFD449"/>
<rect width="109.16" height="26.9923" transform="matrix(-1 0 0 1 7101.48 154.242)" fill="#FFD449"/>
<rect width="109.16" height="26.9923" transform="matrix(-1 0 0 1 7101.13 122.961)" fill="#FFD449"/>
<rect width="109.16" height="26.9923" transform="matrix(-1 0 0 1 7214.53 185.094)" fill="#FFD449"/>
<rect width="109.16" height="26.9923" transform="matrix(-1 0 0 1 8119 185.094)" fill="#FFD449"/>
<rect width="109.16" height="26.9923" transform="matrix(-1 0 0 1 7440.63 185.094)" fill="#FFD449"/>
<rect width="109.16" height="26.9923" transform="matrix(-1 0 0 1 6988.41 185.094)" fill="#FFD449"/>
<rect width="109.16" height="26.9923" transform="matrix(-1 0 0 1 6988.41 123.391)" fill="#FFD449"/>
<rect width="109.16" height="26.9923" transform="matrix(-1 0 0 1 7666.76 215.938)" fill="#FFD449"/>
<rect width="109.16" height="26.9923" transform="matrix(-1 0 0 1 7667.05 184.945)" fill="#FFD449"/>
<rect width="109.16" height="26.9923" transform="matrix(-1 0 0 1 7667.05 153.953)" fill="#FFD449"/>
<rect width="109.16" height="26.9923" transform="matrix(-1 0 0 1 8005.94 123.391)" fill="#FFD449"/>
<rect width="109.16" height="26.9923" transform="matrix(-1 0 0 1 7892.87 123.391)" fill="#FFD449"/>
<rect width="109.16" height="26.9923" transform="matrix(-1 0 0 1 7327.58 123.391)" fill="#FFD449"/>
<rect width="109.16" height="26.9923" transform="matrix(-1 0 0 1 7214.53 61.7031)" fill="#FFD449"/>
<rect x="8005.94" y="295.914" width="109.16" height="26.9923" transform="rotate(180 8005.94 295.914)" fill="#FFD449"/>
<rect x="7892.87" y="295.914" width="109.16" height="26.9923" transform="rotate(180 7892.87 295.914)" fill="#FFD449"/>
<rect x="7327.58" y="295.914" width="109.16" height="26.9923" transform="rotate(180 7327.58 295.914)" fill="#FFD449"/>
<rect x="7214.53" y="357.609" width="109.16" height="26.9923" transform="rotate(180 7214.53 357.609)" fill="#FFD449"/>
<rect x="7892.87" y="419.297" width="109.16" height="26.9923" transform="rotate(180 7892.87 419.297)" fill="#FFD449"/>
<rect x="7214.53" y="481.008" width="109.16" height="26.9923" transform="rotate(180 7214.53 481.008)" fill="#FFD449"/>
<rect x="8005.94" y="326.758" width="109.16" height="26.9923" transform="rotate(180 8005.94 326.758)" fill="#FFD449"/>
<rect x="7892.87" y="326.758" width="109.16" height="26.9923" transform="rotate(180 7892.87 326.758)" fill="#FFD449"/>
<rect x="7327.58" y="326.758" width="109.16" height="26.9923" transform="rotate(180 7327.58 326.758)" fill="#FFD449"/>
<rect x="7214.53" y="388.461" width="109.16" height="26.9923" transform="rotate(180 7214.53 388.461)" fill="#FFD449"/>
<rect x="7779.82" y="295.914" width="109.16" height="26.9923" transform="rotate(180 7779.82 295.914)" fill="#FFD449"/>
<rect x="7892.87" y="450.148" width="109.16" height="26.9923" transform="rotate(180 7892.87 450.148)" fill="#FFD449"/>
<rect x="7214.53" y="511.852" width="109.16" height="26.9923" transform="rotate(180 7214.53 511.852)" fill="#FFD449"/>
<rect x="8005.94" y="357.609" width="109.16" height="26.9923" transform="rotate(180 8005.94 357.609)" fill="#FFD449"/>
<rect x="7892.87" y="357.609" width="109.16" height="26.9923" transform="rotate(180 7892.87 357.609)" fill="#FFD449"/>
<rect x="7327.58" y="357.609" width="109.16" height="26.9923" transform="rotate(180 7327.58 357.609)" fill="#FFD449"/>
<rect x="7214.53" y="419.297" width="109.16" height="26.9923" transform="rotate(180 7214.53 419.297)" fill="#FFD449"/>
<rect x="7779.82" y="326.758" width="109.16" height="26.9923" transform="rotate(180 7779.82 326.758)" fill="#FFD449"/>
<rect x="7553.7" y="295.914" width="109.16" height="26.9923" transform="rotate(180 7553.7 295.914)" fill="#FFD449"/>
<rect x="6875.16" y="295.914" width="109.16" height="26.9923" transform="rotate(180 6875.16 295.914)" fill="#FFD449"/>
<rect x="7101.48" y="295.914" width="109.16" height="26.9923" transform="rotate(180 7101.48 295.914)" fill="#FFD449"/>
<rect x="7214.53" y="295.914" width="109.16" height="26.9923" transform="rotate(180 7214.53 295.914)" fill="#FFD449"/>
<rect x="8119" y="295.914" width="109.16" height="26.9923" transform="rotate(180 8119 295.914)" fill="#FFD449"/>
<rect x="7440.63" y="295.914" width="109.16" height="26.9923" transform="rotate(180 7440.63 295.914)" fill="#FFD449"/>
<rect x="6988.41" y="295.914" width="109.16" height="26.9923" transform="rotate(180 6988.41 295.914)" fill="#FFD449"/>
<rect x="7440.63" y="357.609" width="109.16" height="26.9923" transform="rotate(180 7440.63 357.609)" fill="#FFD449"/>
<rect x="6988.41" y="357.609" width="109.16" height="26.9923" transform="rotate(180 6988.41 357.609)" fill="#FFD449"/>
<rect x="7553.7" y="326.758" width="109.16" height="26.9923" transform="rotate(180 7553.7 326.758)" fill="#FFD449"/>
<rect x="7554.07" y="357.898" width="109.16" height="26.9923" transform="rotate(180 7554.07 357.898)" fill="#FFD449"/>
<rect x="7554.07" y="388.891" width="109.16" height="26.9923" transform="rotate(180 7554.07 388.891)" fill="#FFD449"/>
<rect x="6875.16" y="326.906" width="109.16" height="26.9923" transform="rotate(180 6875.16 326.906)" fill="#FFD449"/>
<rect x="6875.16" y="357.898" width="109.16" height="26.9923" transform="rotate(180 6875.16 357.898)" fill="#FFD449"/>
<rect x="7101.48" y="326.758" width="109.16" height="26.9923" transform="rotate(180 7101.48 326.758)" fill="#FFD449"/>
<rect x="7101.48" y="357.609" width="109.16" height="26.9923" transform="rotate(180 7101.48 357.609)" fill="#FFD449"/>
<rect x="7101.13" y="388.891" width="109.16" height="26.9923" transform="rotate(180 7101.13 388.891)" fill="#FFD449"/>
<rect x="7214.53" y="326.758" width="109.16" height="26.9923" transform="rotate(180 7214.53 326.758)" fill="#FFD449"/>
<rect x="8119" y="326.758" width="109.16" height="26.9923" transform="rotate(180 8119 326.758)" fill="#FFD449"/>
<rect x="7440.63" y="326.758" width="109.16" height="26.9923" transform="rotate(180 7440.63 326.758)" fill="#FFD449"/>
<rect x="6988.41" y="326.758" width="109.16" height="26.9923" transform="rotate(180 6988.41 326.758)" fill="#FFD449"/>
<rect x="6988.41" y="388.461" width="109.16" height="26.9923" transform="rotate(180 6988.41 388.461)" fill="#FFD449"/>
<rect x="7666.76" y="295.914" width="109.16" height="26.9923" transform="rotate(180 7666.76 295.914)" fill="#FFD449"/>
<rect x="7667.05" y="326.906" width="109.16" height="26.9923" transform="rotate(180 7667.05 326.906)" fill="#FFD449"/>
<rect x="7667.05" y="357.898" width="109.16" height="26.9923" transform="rotate(180 7667.05 357.898)" fill="#FFD449"/>
<rect x="8005.94" y="388.461" width="109.16" height="26.9923" transform="rotate(180 8005.94 388.461)" fill="#FFD449"/>
<rect x="7892.87" y="388.461" width="109.16" height="26.9923" transform="rotate(180 7892.87 388.461)" fill="#FFD449"/>
<rect x="7327.58" y="388.461" width="109.16" height="26.9923" transform="rotate(180 7327.58 388.461)" fill="#FFD449"/>
<rect x="7214.53" y="450.148" width="109.16" height="26.9923" transform="rotate(180 7214.53 450.148)" fill="#FFD449"/>
<rect x="2819.08" y="215.953" width="109.175" height="26.9758" fill="#FFD449"/>
<rect x="2932.16" y="215.953" width="109.175" height="26.9758" fill="#FFD449"/>
<rect x="3497.52" y="215.953" width="109.175" height="26.9758" fill="#FFD449"/>
<rect x="3610.59" y="154.297" width="109.175" height="26.9758" fill="#FFD449"/>
<rect x="2706" y="154.297" width="109.175" height="26.9758" fill="#FFD449"/>
<rect x="3497.52" y="92.6484" width="109.175" height="26.9758" fill="#FFD449"/>
<rect x="3610.59" y="30.9766" width="109.175" height="26.9758" fill="#FFD449"/>
<rect x="3611" width="109.175" height="26.9758" fill="#FFD449"/>
<rect x="2819.08" y="185.133" width="109.175" height="26.9758" fill="#FFD449"/>
<rect x="2932.16" y="185.133" width="109.175" height="26.9758" fill="#FFD449"/>
<rect x="3497.52" y="185.133" width="109.175" height="26.9758" fill="#FFD449"/>
<rect x="3610.59" y="123.461" width="109.175" height="26.9758" fill="#FFD449"/>
<rect x="2706" y="123.461" width="109.175" height="26.9758" fill="#FFD449"/>
<rect x="3045.23" y="215.953" width="109.175" height="26.9758" fill="#FFD449"/>
<rect x="2819.08" y="154.297" width="109.175" height="26.9758" fill="#FFD449"/>
<rect x="2932.16" y="154.297" width="109.175" height="26.9758" fill="#FFD449"/>
<rect x="3497.52" y="154.297" width="109.175" height="26.9758" fill="#FFD449"/>
<rect x="3610.59" y="92.6484" width="109.175" height="26.9758" fill="#FFD449"/>
<rect x="2706" y="92.6484" width="109.175" height="26.9758" fill="#FFD449"/>
<rect x="3045.23" y="185.133" width="109.175" height="26.9758" fill="#FFD449"/>
<rect x="3271.37" y="215.953" width="109.175" height="26.9758" fill="#FFD449"/>
<rect x="3949.83" y="215.953" width="109.175" height="26.9758" fill="#FFD449"/>
<rect x="3723.66" y="215.953" width="109.175" height="26.9758" fill="#FFD449"/>
<rect x="3610.59" y="215.953" width="109.175" height="26.9758" fill="#FFD449"/>
<rect x="2706" y="215.953" width="109.175" height="26.9758" fill="#FFD449"/>
<rect x="3384.45" y="215.953" width="109.175" height="26.9758" fill="#FFD449"/>
<rect x="3836.75" y="215.953" width="109.175" height="26.9758" fill="#FFD449"/>
<rect x="3384.45" y="154.297" width="109.175" height="26.9758" fill="#FFD449"/>
<rect x="3836.75" y="154.297" width="109.175" height="26.9758" fill="#FFD449"/>
<rect x="3045.23" y="154.297" width="109.175" height="26.9758" fill="#FFD449"/>
<rect x="3723.66" y="185.133" width="109.175" height="26.9758" fill="#FFD449"/>
<rect x="3723.66" y="154.297" width="109.175" height="26.9758" fill="#FFD449"/>
<rect x="3724" y="123.031" width="109.175" height="26.9758" fill="#FFD449"/>
<rect x="3724" y="91.9766" width="109.175" height="26.9758" fill="#FFD449"/>
<rect x="3724" y="60.9844" width="109.175" height="26.9758" fill="#FFD449"/>
<rect x="3610.59" y="185.133" width="109.175" height="26.9758" fill="#FFD449"/>
<rect x="2706" y="185.133" width="109.175" height="26.9758" fill="#FFD449"/>
<rect x="3384.45" y="185.133" width="109.175" height="26.9758" fill="#FFD449"/>
<rect x="3836.75" y="185.133" width="109.175" height="26.9758" fill="#FFD449"/>
<rect x="3836.75" y="123.461" width="109.175" height="26.9758" fill="#FFD449"/>
<rect x="3836.75" y="92.6484" width="109.175" height="26.9758" fill="#FFD449"/>
<rect x="3158.3" y="215.953" width="109.175" height="26.9758" fill="#FFD449"/>
<rect x="3157" y="184.984" width="109.175" height="26.9758" fill="#FFD449"/>
<rect x="2819.08" y="123.461" width="109.175" height="26.9758" fill="#FFD449"/>
<rect x="2818" y="93.0703" width="109.175" height="26.9758" fill="#FFD449"/>
<rect x="2932.16" y="123.461" width="109.175" height="26.9758" fill="#FFD449"/>
<rect x="3497.52" y="123.461" width="109.175" height="26.9758" fill="#FFD449"/>
<rect x="3610.59" y="61.8125" width="109.175" height="26.9758" fill="#FFD449"/>
<rect x="2706" y="61.8125" width="109.175" height="26.9758" fill="#FFD449"/>
<rect width="109.175" height="26.9758" transform="matrix(1 0 0 -1 2819.08 295.898)" fill="#FFD449"/>
<rect width="109.175" height="26.9758" transform="matrix(1 0 0 -1 2932.16 295.898)" fill="#FFD449"/>
<rect width="109.175" height="26.9758" transform="matrix(1 0 0 -1 3497.52 295.898)" fill="#FFD449"/>
<rect width="109.175" height="26.9758" transform="matrix(1 0 0 -1 3610.59 357.555)" fill="#FFD449"/>
<rect width="109.175" height="26.9758" transform="matrix(1 0 0 -1 2706 357.555)" fill="#FFD449"/>
<rect width="109.175" height="26.9758" transform="matrix(1 0 0 -1 3497.52 419.203)" fill="#FFD449"/>
<rect width="109.175" height="26.9758" transform="matrix(1 0 0 -1 3610.59 480.875)" fill="#FFD449"/>
<rect width="109.175" height="26.9758" transform="matrix(1 0 0 -1 3611 511.852)" fill="#FFD449"/>
<rect width="109.175" height="26.9758" transform="matrix(1 0 0 -1 2819.08 326.719)" fill="#FFD449"/>
<rect width="109.175" height="26.9758" transform="matrix(1 0 0 -1 2932.16 326.719)" fill="#FFD449"/>
<rect width="109.175" height="26.9758" transform="matrix(1 0 0 -1 3497.52 326.719)" fill="#FFD449"/>
<rect width="109.175" height="26.9758" transform="matrix(1 0 0 -1 3610.59 388.391)" fill="#FFD449"/>
<rect width="109.175" height="26.9758" transform="matrix(1 0 0 -1 2706 388.391)" fill="#FFD449"/>
<rect width="109.175" height="26.9758" transform="matrix(1 0 0 -1 3045.23 295.898)" fill="#FFD449"/>
<rect width="109.175" height="26.9758" transform="matrix(1 0 0 -1 2819.08 357.555)" fill="#FFD449"/>
<rect width="109.175" height="26.9758" transform="matrix(1 0 0 -1 2932.16 357.555)" fill="#FFD449"/>
<rect width="109.175" height="26.9758" transform="matrix(1 0 0 -1 3497.52 357.555)" fill="#FFD449"/>
<rect width="109.175" height="26.9758" transform="matrix(1 0 0 -1 3610.59 419.203)" fill="#FFD449"/>
<rect width="109.175" height="26.9758" transform="matrix(1 0 0 -1 2706 419.203)" fill="#FFD449"/>
<rect width="109.175" height="26.9758" transform="matrix(1 0 0 -1 3045.23 326.719)" fill="#FFD449"/>
<rect width="109.175" height="26.9758" transform="matrix(1 0 0 -1 3271.37 295.898)" fill="#FFD449"/>
<rect width="109.175" height="26.9758" transform="matrix(1 0 0 -1 3949.83 295.898)" fill="#FFD449"/>
<rect width="109.175" height="26.9758" transform="matrix(1 0 0 -1 3723.66 295.898)" fill="#FFD449"/>
<rect width="109.175" height="26.9758" transform="matrix(1 0 0 -1 3610.59 295.898)" fill="#FFD449"/>
<rect width="109.175" height="26.9758" transform="matrix(1 0 0 -1 2706 295.898)" fill="#FFD449"/>
<rect width="109.175" height="26.9758" transform="matrix(1 0 0 -1 3384.45 295.898)" fill="#FFD449"/>
<rect width="109.175" height="26.9758" transform="matrix(1 0 0 -1 3836.75 295.898)" fill="#FFD449"/>
<rect width="109.175" height="26.9758" transform="matrix(1 0 0 -1 3384.45 357.555)" fill="#FFD449"/>
<rect width="109.175" height="26.9758" transform="matrix(1 0 0 -1 3836.75 357.555)" fill="#FFD449"/>
<rect width="109.175" height="26.9758" transform="matrix(1 0 0 -1 3045.23 357.555)" fill="#FFD449"/>
<rect width="109.175" height="26.9758" transform="matrix(1 0 0 -1 3723.66 326.719)" fill="#FFD449"/>
<rect width="109.175" height="26.9758" transform="matrix(1 0 0 -1 3723.66 357.555)" fill="#FFD449"/>
<rect width="109.175" height="26.9758" transform="matrix(1 0 0 -1 3724 388.82)" fill="#FFD449"/>
<rect width="109.175" height="26.9758" transform="matrix(1 0 0 -1 3610.59 326.719)" fill="#FFD449"/>
<rect width="109.175" height="26.9758" transform="matrix(1 0 0 -1 2706 326.719)" fill="#FFD449"/>
<rect width="109.175" height="26.9758" transform="matrix(1 0 0 -1 3384.45 326.719)" fill="#FFD449"/>
<rect width="109.175" height="26.9758" transform="matrix(1 0 0 -1 3836.75 326.719)" fill="#FFD449"/>
<rect width="109.175" height="26.9758" transform="matrix(1 0 0 -1 3836.75 388.391)" fill="#FFD449"/>
<rect width="109.175" height="26.9758" transform="matrix(1 0 0 -1 3836.75 419.203)" fill="#FFD449"/>
<rect width="109.175" height="26.9758" transform="matrix(1 0 0 -1 3837.01 450.758)" fill="#FFD449"/>
<rect width="109.175" height="26.9758" transform="matrix(1 0 0 -1 3158.3 295.898)" fill="#FFD449"/>
<rect width="109.175" height="26.9758" transform="matrix(1 0 0 -1 3157 326.867)" fill="#FFD449"/>
<rect width="109.175" height="26.9758" transform="matrix(1 0 0 -1 2819.08 388.391)" fill="#FFD449"/>
<rect width="109.175" height="26.9758" transform="matrix(1 0 0 -1 2818 418.781)" fill="#FFD449"/>
<rect width="109.175" height="26.9758" transform="matrix(1 0 0 -1 2932.16 388.391)" fill="#FFD449"/>
<rect width="109.175" height="26.9758" transform="matrix(1 0 0 -1 3497.52 388.391)" fill="#FFD449"/>
<rect width="109.175" height="26.9758" transform="matrix(1 0 0 -1 3610.59 450.039)" fill="#FFD449"/>
<rect width="109.175" height="26.9758" transform="matrix(1 0 0 -1 2706 450.039)" fill="#FFD449"/>
<rect x="1466.06" y="215.953" width="109.16" height="26.9758" fill="#FFD449"/>
<rect x="1579.13" y="215.953" width="109.16" height="26.9758" fill="#FFD449"/>
<rect x="2144.42" y="215.953" width="109.16" height="26.9758" fill="#FFD449"/>
<rect x="2257.47" y="154.297" width="109.16" height="26.9758" fill="#FFD449"/>
<rect x="1353" y="154.297" width="109.16" height="26.9758" fill="#FFD449"/>
<rect x="2144.42" y="92.6484" width="109.16" height="26.9758" fill="#FFD449"/>
<rect x="2144.9" y="60.9453" width="109.16" height="26.9758" fill="#FFD449"/>
<rect x="2257.47" y="30.9766" width="109.16" height="26.9758" fill="#FFD449"/>
<rect x="2257.88" width="109.16" height="26.9758" fill="#FFD449"/>
<rect x="1466.06" y="185.133" width="109.16" height="26.9758" fill="#FFD449"/>
<rect x="1579.13" y="185.133" width="109.16" height="26.9758" fill="#FFD449"/>
<rect x="2144.42" y="185.133" width="109.16" height="26.9758" fill="#FFD449"/>
<rect x="2257.47" y="123.461" width="109.16" height="26.9758" fill="#FFD449"/>
<rect x="1353" y="123.461" width="109.16" height="26.9758" fill="#FFD449"/>
<rect x="1692.18" y="215.953" width="109.16" height="26.9758" fill="#FFD449"/>
<rect x="1466.06" y="154.297" width="109.16" height="26.9758" fill="#FFD449"/>
<rect x="1579.13" y="154.297" width="109.16" height="26.9758" fill="#FFD449"/>
<rect x="2144.42" y="154.297" width="109.16" height="26.9758" fill="#FFD449"/>
<rect x="2257.47" y="92.6484" width="109.16" height="26.9758" fill="#FFD449"/>
<rect x="1692.18" y="185.133" width="109.16" height="26.9758" fill="#FFD449"/>
<rect x="1918.3" y="215.953" width="109.16" height="26.9758" fill="#FFD449"/>
<rect x="2596.66" y="215.953" width="109.16" height="26.9758" fill="#FFD449"/>
<rect x="2596.84" y="184.836" width="109.16" height="26.9758" fill="#FFD449"/>
<rect x="2596.84" y="153.859" width="109.16" height="26.9758" fill="#FFD449"/>
<rect x="2370.52" y="215.953" width="109.16" height="26.9758" fill="#FFD449"/>
<rect x="2257.47" y="215.953" width="109.16" height="26.9758" fill="#FFD449"/>
<rect x="1353" y="215.953" width="109.16" height="26.9758" fill="#FFD449"/>
<rect x="2031.37" y="215.953" width="109.16" height="26.9758" fill="#FFD449"/>
<rect x="2483.59" y="215.953" width="109.16" height="26.9758" fill="#FFD449"/>
<rect x="2031.91" y="153.859" width="109.16" height="26.9758" fill="#FFD449"/>
<rect x="2031.91" y="123.883" width="109.16" height="26.9758" fill="#FFD449"/>
<rect x="2031.91" y="92.9219" width="109.16" height="26.9758" fill="#FFD449"/>
<rect x="2483.59" y="154.297" width="109.16" height="26.9758" fill="#FFD449"/>
<rect x="1692.18" y="154.297" width="109.16" height="26.9758" fill="#FFD449"/>
<rect x="1691.95" y="123.883" width="109.16" height="26.9758" fill="#FFD449"/>
<rect x="2370.52" y="185.133" width="109.16" height="26.9758" fill="#FFD449"/>
<rect x="2370.52" y="154.297" width="109.16" height="26.9758" fill="#FFD449"/>
<rect x="2370.87" y="123.031" width="109.16" height="26.9758" fill="#FFD449"/>
<rect x="2370.87" y="92.9219" width="109.16" height="26.9758" fill="#FFD449"/>
<rect x="2370.87" y="61.9453" width="109.16" height="26.9758" fill="#FFD449"/>
<rect x="2257.47" y="185.133" width="109.16" height="26.9758" fill="#FFD449"/>
<rect x="1353" y="185.133" width="109.16" height="26.9758" fill="#FFD449"/>
<rect x="2031.37" y="185.133" width="109.16" height="26.9758" fill="#FFD449"/>
<rect x="2483.59" y="185.133" width="109.16" height="26.9758" fill="#FFD449"/>
<rect x="2483.59" y="123.461" width="109.16" height="26.9758" fill="#FFD449"/>
<rect x="1805.24" y="215.953" width="109.16" height="26.9758" fill="#FFD449"/>
<rect x="1804.95" y="184.984" width="109.16" height="26.9758" fill="#FFD449"/>
<rect x="1917.93" y="184.836" width="109.16" height="26.9758" fill="#FFD449"/>
<rect x="1917.93" y="153.859" width="109.16" height="26.9758" fill="#FFD449"/>
<rect x="1466.06" y="123.461" width="109.16" height="26.9758" fill="#FFD449"/>
<rect x="1464.98" y="93.0703" width="109.16" height="26.9758" fill="#FFD449"/>
<rect x="1464.98" y="61.9453" width="109.16" height="26.9758" fill="#FFD449"/>
<rect x="1464.98" y="30.9766" width="109.16" height="26.9758" fill="#FFD449"/>
<rect x="1579.13" y="123.461" width="109.16" height="26.9758" fill="#FFD449"/>
<rect x="1578.97" y="92.9219" width="109.16" height="26.9758" fill="#FFD449"/>
<rect x="1578.97" y="61.9453" width="109.16" height="26.9758" fill="#FFD449"/>
<rect x="2144.42" y="123.461" width="109.16" height="26.9758" fill="#FFD449"/>
<rect x="2257.47" y="61.8125" width="109.16" height="26.9758" fill="#FFD449"/>
<rect width="109.16" height="26.9758" transform="matrix(1 0 0 -1 1466.06 295.898)" fill="#FFD449"/>
<rect width="109.16" height="26.9758" transform="matrix(1 0 0 -1 1579.13 295.898)" fill="#FFD449"/>
<rect width="109.16" height="26.9758" transform="matrix(1 0 0 -1 2144.42 295.898)" fill="#FFD449"/>
<rect width="109.16" height="26.9758" transform="matrix(1 0 0 -1 2257.47 357.555)" fill="#FFD449"/>
<rect width="109.16" height="26.9758" transform="matrix(1 0 0 -1 1353 357.555)" fill="#FFD449"/>
<rect width="109.16" height="26.9758" transform="matrix(1 0 0 -1 2144.42 419.203)" fill="#FFD449"/>
<rect width="109.16" height="26.9758" transform="matrix(1 0 0 -1 2144.9 450.906)" fill="#FFD449"/>
<rect width="109.16" height="26.9758" transform="matrix(1 0 0 -1 2257.47 480.875)" fill="#FFD449"/>
<rect width="109.16" height="26.9758" transform="matrix(1 0 0 -1 2257.88 511.852)" fill="#FFD449"/>
<rect width="109.16" height="26.9758" transform="matrix(1 0 0 -1 1466.06 326.719)" fill="#FFD449"/>
<rect width="109.16" height="26.9758" transform="matrix(1 0 0 -1 1579.13 326.719)" fill="#FFD449"/>
<rect width="109.16" height="26.9758" transform="matrix(1 0 0 -1 2144.42 326.719)" fill="#FFD449"/>
<rect width="109.16" height="26.9758" transform="matrix(1 0 0 -1 2257.47 388.391)" fill="#FFD449"/>
<rect width="109.16" height="26.9758" transform="matrix(1 0 0 -1 1353 388.391)" fill="#FFD449"/>
<rect width="109.16" height="26.9758" transform="matrix(1 0 0 -1 1692.18 295.898)" fill="#FFD449"/>
<rect width="109.16" height="26.9758" transform="matrix(1 0 0 -1 1466.06 357.555)" fill="#FFD449"/>
<rect width="109.16" height="26.9758" transform="matrix(1 0 0 -1 1579.13 357.555)" fill="#FFD449"/>
<rect width="109.16" height="26.9758" transform="matrix(1 0 0 -1 2144.42 357.555)" fill="#FFD449"/>
<rect width="109.16" height="26.9758" transform="matrix(1 0 0 -1 2257.47 419.203)" fill="#FFD449"/>
<rect width="109.16" height="26.9758" transform="matrix(1 0 0 -1 1692.18 326.719)" fill="#FFD449"/>
<rect width="109.16" height="26.9758" transform="matrix(1 0 0 -1 1918.3 295.898)" fill="#FFD449"/>
<rect width="109.16" height="26.9758" transform="matrix(1 0 0 -1 2596.66 295.898)" fill="#FFD449"/>
<rect width="109.16" height="26.9758" transform="matrix(1 0 0 -1 2596.84 327.016)" fill="#FFD449"/>
<rect width="109.16" height="26.9758" transform="matrix(1 0 0 -1 2596.84 357.992)" fill="#FFD449"/>
<rect width="109.16" height="26.9758" transform="matrix(1 0 0 -1 2370.52 295.898)" fill="#FFD449"/>
<rect width="109.16" height="26.9758" transform="matrix(1 0 0 -1 2257.47 295.898)" fill="#FFD449"/>
<rect width="109.16" height="26.9758" transform="matrix(1 0 0 -1 1353 295.898)" fill="#FFD449"/>
<rect width="109.16" height="26.9758" transform="matrix(1 0 0 -1 2031.37 295.898)" fill="#FFD449"/>
<rect width="109.16" height="26.9758" transform="matrix(1 0 0 -1 2483.59 295.898)" fill="#FFD449"/>
<rect width="109.16" height="26.9758" transform="matrix(1 0 0 -1 2031.91 357.992)" fill="#FFD449"/>
<rect width="109.16" height="26.9758" transform="matrix(1 0 0 -1 2031.91 387.969)" fill="#FFD449"/>
<rect width="109.16" height="26.9758" transform="matrix(1 0 0 -1 2031.91 418.93)" fill="#FFD449"/>
<rect width="109.16" height="26.9758" transform="matrix(1 0 0 -1 2483.59 357.555)" fill="#FFD449"/>
<rect width="109.16" height="26.9758" transform="matrix(1 0 0 -1 1692.18 357.555)" fill="#FFD449"/>
<rect width="109.16" height="26.9758" transform="matrix(1 0 0 -1 1691.95 387.969)" fill="#FFD449"/>
<rect width="109.16" height="26.9758" transform="matrix(1 0 0 -1 2370.52 326.719)" fill="#FFD449"/>
<rect width="109.16" height="26.9758" transform="matrix(1 0 0 -1 2370.52 357.555)" fill="#FFD449"/>
<rect width="109.16" height="26.9758" transform="matrix(1 0 0 -1 2370.87 388.82)" fill="#FFD449"/>
<rect width="109.16" height="26.9758" transform="matrix(1 0 0 -1 2370.87 418.93)" fill="#FFD449"/>
<rect width="109.16" height="26.9758" transform="matrix(1 0 0 -1 2370.87 449.906)" fill="#FFD449"/>
<rect width="109.16" height="26.9758" transform="matrix(1 0 0 -1 2257.47 326.719)" fill="#FFD449"/>
<rect width="109.16" height="26.9758" transform="matrix(1 0 0 -1 1353 326.719)" fill="#FFD449"/>
<rect width="109.16" height="26.9758" transform="matrix(1 0 0 -1 2031.37 326.719)" fill="#FFD449"/>
<rect width="109.16" height="26.9758" transform="matrix(1 0 0 -1 2483.59 326.719)" fill="#FFD449"/>
<rect width="109.16" height="26.9758" transform="matrix(1 0 0 -1 2483.59 388.391)" fill="#FFD449"/>
<rect width="109.16" height="26.9758" transform="matrix(1 0 0 -1 1805.24 295.898)" fill="#FFD449"/>
<rect width="109.16" height="26.9758" transform="matrix(1 0 0 -1 1804.95 326.867)" fill="#FFD449"/>
<rect width="109.16" height="26.9758" transform="matrix(1 0 0 -1 1917.93 327.016)" fill="#FFD449"/>
<rect width="109.16" height="26.9758" transform="matrix(1 0 0 -1 1917.93 357.992)" fill="#FFD449"/>
<rect width="109.16" height="26.9758" transform="matrix(1 0 0 -1 1466.06 388.391)" fill="#FFD449"/>
<rect width="109.16" height="26.9758" transform="matrix(1 0 0 -1 1464.98 418.781)" fill="#FFD449"/>
<rect width="109.16" height="26.9758" transform="matrix(1 0 0 -1 1464.98 449.906)" fill="#FFD449"/>
<rect width="109.16" height="26.9758" transform="matrix(1 0 0 -1 1464.98 480.875)" fill="#FFD449"/>
<rect width="109.16" height="26.9758" transform="matrix(1 0 0 -1 1579.13 388.391)" fill="#FFD449"/>
<rect width="109.16" height="26.9758" transform="matrix(1 0 0 -1 1578.97 418.93)" fill="#FFD449"/>
<rect width="109.16" height="26.9758" transform="matrix(1 0 0 -1 1578.97 449.906)" fill="#FFD449"/>
<rect width="109.16" height="26.9758" transform="matrix(1 0 0 -1 2144.42 388.391)" fill="#FFD449"/>
<rect width="109.16" height="26.9758" transform="matrix(1 0 0 -1 2257.47 450.039)" fill="#FFD449"/>
<rect width="109.16" height="26.9758" transform="matrix(-1 0 0 1 1239.94 215.953)" fill="#FFD449"/>
<rect width="109.16" height="26.9758" transform="matrix(-1 0 0 1 1126.87 215.953)" fill="#FFD449"/>
<rect width="109.16" height="26.9758" transform="matrix(-1 0 0 1 561.578 215.953)" fill="#FFD449"/>
<rect width="109.16" height="26.9758" transform="matrix(-1 0 0 1 448.531 154.297)" fill="#FFD449"/>
<rect width="109.16" height="26.9758" transform="matrix(-1 0 0 1 1353 154.297)" fill="#FFD449"/>
<rect width="109.16" height="26.9758" transform="matrix(-1 0 0 1 561.578 92.6484)" fill="#FFD449"/>
<rect width="109.16" height="26.9758" transform="matrix(-1 0 0 1 448.531 30.9766)" fill="#FFD449"/>
<rect width="109.16" height="26.9758" transform="matrix(-1 0 0 1 448.117 0)" fill="#FFD449"/>
<rect width="109.16" height="26.9758" transform="matrix(-1 0 0 1 1239.94 185.133)" fill="#FFD449"/>
<rect width="109.16" height="26.9758" transform="matrix(-1 0 0 1 1126.87 185.133)" fill="#FFD449"/>
<rect width="109.16" height="26.9758" transform="matrix(-1 0 0 1 561.578 185.133)" fill="#FFD449"/>
<rect width="109.16" height="26.9758" transform="matrix(-1 0 0 1 448.531 123.461)" fill="#FFD449"/>
<rect width="109.16" height="26.9758" transform="matrix(-1 0 0 1 1013.82 215.953)" fill="#FFD449"/>
<rect width="109.16" height="26.9758" transform="matrix(-1 0 0 1 1239.94 154.297)" fill="#FFD449"/>
<rect width="109.16" height="26.9758" transform="matrix(-1 0 0 1 1126.87 154.297)" fill="#FFD449"/>
<rect width="109.16" height="26.9758" transform="matrix(-1 0 0 1 561.578 154.297)" fill="#FFD449"/>
<rect width="109.16" height="26.9758" transform="matrix(-1 0 0 1 448.531 92.6484)" fill="#FFD449"/>
<rect width="109.16" height="26.9758" transform="matrix(-1 0 0 1 1013.82 185.133)" fill="#FFD449"/>
<rect width="109.16" height="26.9758" transform="matrix(-1 0 0 1 787.703 215.953)" fill="#FFD449"/>
<rect width="109.16" height="26.9758" transform="matrix(-1 0 0 1 109.344 215.953)" fill="#FFD449"/>
<rect width="109.16" height="26.9758" transform="matrix(-1 0 0 1 109.164 184.836)" fill="#FFD449"/>
<rect width="109.16" height="26.9758" transform="matrix(-1 0 0 1 335.477 215.953)" fill="#FFD449"/>
<rect width="109.16" height="26.9758" transform="matrix(-1 0 0 1 448.531 215.953)" fill="#FFD449"/>
<rect width="109.16" height="26.9758" transform="matrix(-1 0 0 1 1353 215.953)" fill="#FFD449"/>
<rect width="109.16" height="26.9758" transform="matrix(-1 0 0 1 674.633 215.953)" fill="#FFD449"/>
<rect width="109.16" height="26.9758" transform="matrix(-1 0 0 1 222.406 215.953)" fill="#FFD449"/>
<rect width="109.16" height="26.9758" transform="matrix(-1 0 0 1 674.086 153.859)" fill="#FFD449"/>
<rect width="109.16" height="26.9758" transform="matrix(-1 0 0 1 674.086 123.883)" fill="#FFD449"/>
<rect width="109.16" height="26.9758" transform="matrix(-1 0 0 1 1013.82 154.297)" fill="#FFD449"/>
<rect width="109.16" height="26.9758" transform="matrix(-1 0 0 1 335.477 185.133)" fill="#FFD449"/>
<rect width="109.16" height="26.9758" transform="matrix(-1 0 0 1 335.477 154.297)" fill="#FFD449"/>
<rect width="109.16" height="26.9758" transform="matrix(-1 0 0 1 335.133 123.031)" fill="#FFD449"/>
<rect width="109.16" height="26.9758" transform="matrix(-1 0 0 1 335.133 92.9219)" fill="#FFD449"/>
<rect width="109.16" height="26.9758" transform="matrix(-1 0 0 1 448.531 185.133)" fill="#FFD449"/>
<rect width="109.16" height="26.9758" transform="matrix(-1 0 0 1 1353 185.133)" fill="#FFD449"/>
<rect width="109.16" height="26.9758" transform="matrix(-1 0 0 1 674.633 185.133)" fill="#FFD449"/>
<rect width="109.16" height="26.9758" transform="matrix(-1 0 0 1 900.758 215.953)" fill="#FFD449"/>
<rect width="109.16" height="26.9758" transform="matrix(-1 0 0 1 901.055 184.984)" fill="#FFD449"/>
<rect width="109.16" height="26.9758" transform="matrix(-1 0 0 1 788.07 184.836)" fill="#FFD449"/>
<rect width="109.16" height="26.9758" transform="matrix(-1 0 0 1 788.07 153.859)" fill="#FFD449"/>
<rect width="109.16" height="26.9758" transform="matrix(-1 0 0 1 1239.94 123.461)" fill="#FFD449"/>
<rect width="109.16" height="26.9758" transform="matrix(-1 0 0 1 1241.02 93.0703)" fill="#FFD449"/>
<rect width="109.16" height="26.9758" transform="matrix(-1 0 0 1 1241.02 61.9453)" fill="#FFD449"/>
<rect width="109.16" height="26.9758" transform="matrix(-1 0 0 1 1241.02 30.9766)" fill="#FFD449"/>
<rect width="109.16" height="26.9758" transform="matrix(-1 0 0 1 1126.87 123.461)" fill="#FFD449"/>
<rect width="109.16" height="26.9758" transform="matrix(-1 0 0 1 1127.03 92.9219)" fill="#FFD449"/>
<rect width="109.16" height="26.9758" transform="matrix(-1 0 0 1 561.578 123.461)" fill="#FFD449"/>
<rect width="109.16" height="26.9758" transform="matrix(-1 0 0 1 448.531 61.8125)" fill="#FFD449"/>
<rect x="1239.94" y="296.047" width="109.16" height="26.9758" transform="rotate(180 1239.94 296.047)" fill="#FFD449"/>
<rect x="1126.87" y="296.047" width="109.16" height="26.9758" transform="rotate(180 1126.87 296.047)" fill="#FFD449"/>
<rect x="561.578" y="296.047" width="109.16" height="26.9758" transform="rotate(180 561.578 296.047)" fill="#FFD449"/>
<rect x="448.531" y="357.703" width="109.16" height="26.9758" transform="rotate(180 448.531 357.703)" fill="#FFD449"/>
<rect x="1353" y="357.703" width="109.16" height="26.9758" transform="rotate(180 1353 357.703)" fill="#FFD449"/>
<rect x="561.578" y="419.352" width="109.16" height="26.9758" transform="rotate(180 561.578 419.352)" fill="#FFD449"/>
<rect x="448.531" y="481.023" width="109.16" height="26.9758" transform="rotate(180 448.531 481.023)" fill="#FFD449"/>
<rect x="448.117" y="512" width="109.16" height="26.9758" transform="rotate(180 448.117 512)" fill="#FFD449"/>
<rect x="1239.94" y="326.867" width="109.16" height="26.9758" transform="rotate(180 1239.94 326.867)" fill="#FFD449"/>
<rect x="1126.87" y="326.867" width="109.16" height="26.9758" transform="rotate(180 1126.87 326.867)" fill="#FFD449"/>
<rect x="561.578" y="326.867" width="109.16" height="26.9758" transform="rotate(180 561.578 326.867)" fill="#FFD449"/>
<rect x="448.531" y="388.539" width="109.16" height="26.9758" transform="rotate(180 448.531 388.539)" fill="#FFD449"/>
<rect x="1013.82" y="296.047" width="109.16" height="26.9758" transform="rotate(180 1013.82 296.047)" fill="#FFD449"/>
<rect x="1239.94" y="357.703" width="109.16" height="26.9758" transform="rotate(180 1239.94 357.703)" fill="#FFD449"/>
<rect x="1126.87" y="357.703" width="109.16" height="26.9758" transform="rotate(180 1126.87 357.703)" fill="#FFD449"/>
<rect x="561.578" y="357.703" width="109.16" height="26.9758" transform="rotate(180 561.578 357.703)" fill="#FFD449"/>
<rect x="448.531" y="419.352" width="109.16" height="26.9758" transform="rotate(180 448.531 419.352)" fill="#FFD449"/>
<rect x="1013.82" y="326.867" width="109.16" height="26.9758" transform="rotate(180 1013.82 326.867)" fill="#FFD449"/>
<rect x="787.703" y="296.047" width="109.16" height="26.9758" transform="rotate(180 787.703 296.047)" fill="#FFD449"/>
<rect x="109.344" y="296.047" width="109.16" height="26.9758" transform="rotate(180 109.344 296.047)" fill="#FFD449"/>
<rect x="109.164" y="327.164" width="109.16" height="26.9758" transform="rotate(180 109.164 327.164)" fill="#FFD449"/>
<rect x="335.477" y="296.047" width="109.16" height="26.9758" transform="rotate(180 335.477 296.047)" fill="#FFD449"/>
<rect x="448.531" y="296.047" width="109.16" height="26.9758" transform="rotate(180 448.531 296.047)" fill="#FFD449"/>
<rect x="1353" y="296.047" width="109.16" height="26.9758" transform="rotate(180 1353 296.047)" fill="#FFD449"/>
<rect x="674.633" y="296.047" width="109.16" height="26.9758" transform="rotate(180 674.633 296.047)" fill="#FFD449"/>
<rect x="222.406" y="296.047" width="109.16" height="26.9758" transform="rotate(180 222.406 296.047)" fill="#FFD449"/>
<rect x="674.086" y="358.141" width="109.16" height="26.9758" transform="rotate(180 674.086 358.141)" fill="#FFD449"/>
<rect x="674.086" y="388.117" width="109.16" height="26.9758" transform="rotate(180 674.086 388.117)" fill="#FFD449"/>
<rect x="1013.82" y="357.703" width="109.16" height="26.9758" transform="rotate(180 1013.82 357.703)" fill="#FFD449"/>
<rect x="335.477" y="326.867" width="109.16" height="26.9758" transform="rotate(180 335.477 326.867)" fill="#FFD449"/>
<rect x="335.477" y="357.703" width="109.16" height="26.9758" transform="rotate(180 335.477 357.703)" fill="#FFD449"/>
<rect x="335.133" y="388.969" width="109.16" height="26.9758" transform="rotate(180 335.133 388.969)" fill="#FFD449"/>
<rect x="335.133" y="419.078" width="109.16" height="26.9758" transform="rotate(180 335.133 419.078)" fill="#FFD449"/>
<rect x="448.531" y="326.867" width="109.16" height="26.9758" transform="rotate(180 448.531 326.867)" fill="#FFD449"/>
<rect x="1353" y="326.867" width="109.16" height="26.9758" transform="rotate(180 1353 326.867)" fill="#FFD449"/>
<rect x="674.633" y="326.867" width="109.16" height="26.9758" transform="rotate(180 674.633 326.867)" fill="#FFD449"/>
<rect x="900.758" y="296.047" width="109.16" height="26.9758" transform="rotate(180 900.758 296.047)" fill="#FFD449"/>
<rect x="901.055" y="327.016" width="109.16" height="26.9758" transform="rotate(180 901.055 327.016)" fill="#FFD449"/>
<rect x="788.07" y="327.164" width="109.16" height="26.9758" transform="rotate(180 788.07 327.164)" fill="#FFD449"/>
<rect x="788.07" y="358.141" width="109.16" height="26.9758" transform="rotate(180 788.07 358.141)" fill="#FFD449"/>
<rect x="1239.94" y="388.539" width="109.16" height="26.9758" transform="rotate(180 1239.94 388.539)" fill="#FFD449"/>
<rect x="1241.02" y="418.93" width="109.16" height="26.9758" transform="rotate(180 1241.02 418.93)" fill="#FFD449"/>
<rect x="1241.02" y="450.055" width="109.16" height="26.9758" transform="rotate(180 1241.02 450.055)" fill="#FFD449"/>
<rect x="1241.02" y="481.023" width="109.16" height="26.9758" transform="rotate(180 1241.02 481.023)" fill="#FFD449"/>
<rect x="1126.87" y="388.539" width="109.16" height="26.9758" transform="rotate(180 1126.87 388.539)" fill="#FFD449"/>
<rect x="1127.03" y="419.078" width="109.16" height="26.9758" transform="rotate(180 1127.03 419.078)" fill="#FFD449"/>
<rect x="561.578" y="388.539" width="109.16" height="26.9758" transform="rotate(180 561.578 388.539)" fill="#FFD449"/>
<rect x="448.531" y="450.188" width="109.16" height="26.9758" transform="rotate(180 448.531 450.188)" fill="#FFD449"/>
</svg>
